<svg width="301" height="249" viewBox="0 0 301 249" fill="none" xmlns="http://www.w3.org/2000/svg">
<path d="M299.072 122.092C298.527 121.673 297.889 121.393 297.212 121.276C296.499 121.111 295.771 121.008 295.047 120.894L285.664 119.539C284.717 119.363 283.751 119.312 282.79 119.387C282.309 119.426 281.839 119.561 281.41 119.784C280.981 120.007 280.6 120.313 280.29 120.684C280.011 121.03 279.857 121.46 279.856 121.905C279.908 122.353 280.053 122.784 280.283 123.172C280.373 123.353 280.451 123.541 280.515 123.733C280.605 124.165 280.717 124.591 280.85 125.011C280.892 125.102 280.946 125.187 281.011 125.263C281.012 125.285 281.012 125.306 281.011 125.328C280.908 125.855 281.239 126.404 281.091 126.912C280.961 127.347 280.538 127.61 280.271 127.973C280.093 128.23 279.995 128.534 279.988 128.846C279.981 129.159 280.066 129.467 280.233 129.732C280.519 130.174 281.037 130.476 281.186 130.983C281.38 131.651 280.854 132.296 280.386 132.811C279.523 133.76 278.726 134.765 278 135.822C277.796 136.082 277.664 136.391 277.619 136.719C277.577 137.383 278.213 137.967 278.103 138.627C278.015 139.146 277.508 139.462 277.07 139.772C275.45 140.84 274.15 142.557 274.021 144.5C273.605 141.409 272.326 138.499 270.332 136.104C269.787 135.448 269.188 134.788 268.963 133.956C268.88 133.624 268.864 133.269 268.75 132.949C268.369 131.937 267.157 131.502 266.627 130.571C266.246 129.915 266.246 129.072 265.773 128.495C265.301 127.919 264.558 127.789 264.15 127.232C263.946 126.855 263.773 126.462 263.632 126.057C263.461 125.727 263.22 125.438 262.926 125.21C262.87 125.165 262.812 125.123 262.751 125.084C262.814 125.027 262.865 124.958 262.9 124.88C262.935 124.803 262.953 124.719 262.953 124.634C262.953 124.187 262.511 123.893 262.126 123.672C261.631 123.39 261.147 123.084 260.674 122.768C261.189 122.527 261.636 122.161 261.974 121.703C262.397 121.019 262.572 120.211 262.469 119.413C262.443 118.77 262.203 118.153 261.787 117.662C261.547 117.406 261.246 117.223 260.994 116.983C260.342 116.345 260.121 115.403 259.851 114.533C259.493 113.388 258.932 112.186 257.888 111.579C257.385 111.285 256.798 111.148 256.306 110.839C255.815 110.53 255.403 109.946 255.575 109.385C255.689 109.003 256.043 108.74 256.284 108.416C256.57 107.996 256.68 107.481 256.59 106.981C256.499 106.48 256.215 106.036 255.8 105.744C255.517 105.565 255.171 105.409 255.114 105.081C254.893 105.023 254.693 104.905 254.536 104.739C254.38 104.573 254.274 104.366 254.229 104.142C254.144 103.693 254.144 103.232 254.229 102.783C254.328 102.074 254.426 101.366 254.523 100.662C254.691 100.732 254.871 100.768 255.053 100.768C255.234 100.768 255.414 100.732 255.582 100.662C255.912 101.198 256.295 101.699 256.726 102.157C257.886 103.53 258.79 105.1 259.393 106.794C259.611 107.404 259.832 108.088 260.396 108.412C260.59 108.523 260.811 108.58 261.002 108.698C261.237 108.862 261.439 109.069 261.596 109.309C262.054 109.915 262.511 110.518 262.965 111.125L262.987 111.217C263 111.27 263.02 111.322 263.048 111.369C263.133 111.464 263.25 111.524 263.376 111.537C264.779 111.862 266.353 112.159 267.568 111.392C268.666 110.705 269.146 109.347 270.076 108.439C270.736 107.794 271.669 107.294 271.856 106.386C271.634 106.317 271.415 106.237 271.201 106.145C271.391 105.954 271.582 105.733 271.841 105.481C272.217 105.112 272.557 104.707 272.855 104.272C273.176 103.734 273.432 103.16 273.617 102.562C274.351 100.466 275.088 98.3682 275.827 96.2694C276.178 95.2773 276.529 94.2775 276.971 93.312C277.428 92.2665 277.969 91.2629 278.468 90.2364C279.757 87.5668 280.751 84.7646 281.434 81.8794C281.555 81.4858 281.595 81.0717 281.552 80.6621C281.445 80.0019 280.946 79.4829 280.469 79.0136C279.99 78.4943 279.444 78.0413 278.846 77.6665C278.545 77.4794 278.211 77.354 277.861 77.2977C277.512 77.2414 277.155 77.2552 276.811 77.3384C275.835 77.6246 275.221 78.6244 274.996 79.628C274.772 80.6316 274.855 81.6657 274.76 82.6807C274.623 84.1499 274.12 85.5694 273.998 87.0424C273.933 87.8934 273.998 88.7558 273.895 89.6067C273.708 90.7204 273.32 91.7909 272.752 92.7664C271.516 95.0928 269.842 97.1582 267.824 98.849C267.591 99.0436 267.351 99.2306 267.123 99.4405C267.123 99.2764 267.149 99.1085 267.172 98.9444C267.006 98.9877 266.844 99.0451 266.688 99.1161C266.707 98.9234 266.688 98.7288 266.631 98.5438C266.326 97.6317 264.969 97.3989 264.725 96.4717C264.685 96.2423 264.663 96.0101 264.661 95.7772C264.581 94.9644 264.028 94.2775 263.837 93.4876C263.662 92.7587 263.795 91.9612 263.456 91.2858C263.167 90.8634 262.827 90.4789 262.442 90.141C261.984 89.6172 261.654 88.9941 261.478 88.3208C261.429 88.1338 261.383 87.9392 261.33 87.7522C261.387 87.3288 261.34 86.8976 261.192 86.4967C260.846 85.6343 259.95 85.081 259.626 84.2071C259.374 83.5279 259.485 82.6807 259.009 82.1541C258.755 81.9025 258.446 81.7154 258.105 81.6085C256.361 80.9283 254.531 80.4954 252.667 80.3225C251.622 80.2271 250.471 80.1736 249.724 79.4372C248.852 78.5824 248.81 77.0445 247.788 76.3844C246.889 75.8005 245.616 76.2317 244.919 77.0522C244.814 77.1729 244.717 77.3003 244.629 77.4338C244.502 76.9223 244.474 76.391 244.549 75.8692C244.549 75.7395 244.576 75.6059 244.587 75.4876C246.308 74.9246 247.772 73.7667 248.718 72.2211C248.718 72.2211 248.718 72.2211 248.718 72.244L248.764 72.3623C248.875 72.6409 249.05 72.908 249.309 72.9386C249.481 72.9365 249.648 72.8759 249.782 72.7668C250.012 72.6068 250.224 72.4226 250.414 72.2173C250.511 72.1105 250.602 71.9998 250.689 71.8853C250.864 71.647 251.015 71.3913 251.138 71.1221C251.328 70.7172 251.456 70.2864 251.52 69.8438C251.588 69.4011 251.596 68.947 251.672 68.5044C251.743 68.1617 251.836 67.824 251.95 67.4932C251.988 67.3825 252.026 67.2718 252.061 67.1612C252.095 67.0505 252.145 66.9017 252.183 66.7796C252.421 65.9947 252.549 65.1805 252.564 64.3602C252.564 64.2229 252.564 64.0855 252.564 63.9481C252.55 63.4128 252.43 62.8856 252.21 62.3975C251.99 61.9093 251.675 61.47 251.283 61.1052C250.628 60.5672 249.759 60.342 249.279 59.6132C248.966 59.1247 248.897 58.4951 248.715 57.9227C248.517 57.2377 248.131 56.6218 247.602 56.145C247.072 55.6681 246.42 55.3494 245.719 55.2248C244.875 55.1321 244.027 55.3655 243.348 55.8773L243.295 55.9193C242.917 56.2083 242.597 56.5655 242.35 56.9725C241.846 56.8336 241.385 56.5713 241.008 56.2093C240.627 55.8544 240.334 55.408 239.949 55.0645C239.589 54.7347 239.147 54.5075 238.67 54.4069C238.193 54.3062 237.697 54.3356 237.235 54.4921C236.759 54.683 236.335 54.9842 235.998 55.3709C235.661 55.7576 235.42 56.2189 235.295 56.7168C235.086 57.5029 235.124 58.4073 234.686 59.0637C234.346 59.575 233.79 59.8269 233.401 60.2924C233.16 60.5872 232.995 60.9372 232.921 61.3113C232.875 61.5205 232.853 61.7343 232.856 61.9485C232.856 62.0439 232.856 62.1393 232.879 62.2309C232.879 62.2309 232.879 62.2615 232.879 62.2767C232.893 62.3813 232.914 62.4846 232.944 62.5858C233.052 62.9727 233.246 63.3301 233.512 63.6314C233.763 63.92 234.077 64.1471 234.43 64.2954C234.574 64.3516 234.722 64.3988 234.872 64.4366L235.326 64.5396L235.486 64.5778C234.939 65.6066 234.635 66.7477 234.598 67.9128C234.561 69.078 234.792 70.236 235.272 71.2977C235.272 71.4045 235.246 71.5114 235.234 71.6182C235.172 73.1208 235.239 74.626 235.433 76.1173C235.486 76.7087 235.516 77.3613 235.154 77.8306C234.989 78.0153 234.804 78.1804 234.602 78.3229C234.807 78.0558 235.017 77.7925 235.231 77.5292C234.693 76.9873 233.843 76.9186 233.081 76.972C231.606 77.0824 230.174 77.5204 228.889 78.2542C228.035 78.7465 227.158 79.399 226.183 79.2845C225.607 79.2197 225.039 78.9029 224.479 79.0556C224.164 79.1846 223.87 79.3594 223.606 79.5745C223.398 79.7242 223.146 79.8019 222.89 79.7959C222.292 79.0594 221.365 78.5595 220.649 77.9604C219.833 77.2336 219.087 76.4326 218.419 75.5678C217.185 74.0757 215.954 72.5798 214.742 71.0725C213.72 69.8056 212.672 68.4357 212.493 66.8139C212.475 66.653 212.466 66.4912 212.466 66.3293C212.491 65.5587 212.588 64.7921 212.756 64.0397C212.801 63.858 212.801 63.668 212.756 63.4864C212.642 63.1048 212.203 62.9636 211.826 62.8796C211.876 62.5858 211.91 62.2843 211.929 61.9981C212.142 58.7164 211.91 55.3813 212.603 52.1682C212.866 50.9318 213.297 49.6802 214.185 48.7834C215.576 47.3753 217.905 47.0357 218.972 45.3681C219.864 43.9791 219.509 42.0139 218.389 40.789C217.268 39.564 215.542 39.0641 213.899 39.1252C213.438 39.1094 212.983 39.2316 212.592 39.4763C212.226 39.8014 211.953 40.2173 211.799 40.6821L210.164 44.6622C209.69 45.6984 209.29 46.767 208.968 47.86C208.51 49.5314 208.407 51.2943 208.045 52.981C208.045 54.2784 207.211 55.8964 206.753 57.0908C206.243 58.434 205.69 59.762 205.229 61.1319C205.114 61.4754 204.714 62.4942 204.467 63.4215C204.373 63.4761 204.286 63.5414 204.207 63.6161C204.008 63.8715 203.828 64.1405 203.666 64.4213C203.319 64.8792 202.755 65.1234 202.374 65.5661C201.993 66.0087 201.913 66.8215 202.443 67.0429C202.55 67.0791 202.662 67.1034 202.774 67.1154C202.844 67.1212 202.913 67.1327 202.98 67.1497C203.552 67.31 203.777 68.0312 203.693 68.6265C203.609 69.2218 203.312 69.7713 203.262 70.3666C203.159 71.4198 203.777 72.4005 204.371 73.2858C204.987 74.2455 205.667 75.1622 206.406 76.0295C206.944 76.6324 207.55 77.1743 208.091 77.7543C210.153 79.876 211.792 82.3564 213.644 84.6612C214.31 85.5311 215.068 86.3269 215.904 87.0348C216.45 87.4623 217.021 87.8561 217.615 88.2139L220.801 90.2364C221.163 90.5015 221.572 90.6945 222.006 90.805C222.147 90.824 222.291 90.824 222.433 90.805C222.452 90.9004 222.467 90.9919 222.49 91.0873C222.737 92.0871 223.282 92.9953 223.343 94.0142C223.404 95.033 223.313 96.0748 223.385 97.1051C223.454 98.0553 223.664 99.0131 223.717 99.948C223.824 101.749 223.382 103.527 222.955 105.29C222.311 107.87 221.922 110.503 220.668 112.842C220.317 113.487 219.906 114.143 219.906 114.88C219.906 114.968 219.906 115.059 219.929 115.147L219.357 115.471C219.189 115.567 219.022 115.662 218.869 115.761C218.145 116.235 217.371 116.757 217.074 117.574C216.834 118.234 216.944 118.99 216.655 119.631C216.641 119.66 216.626 119.688 216.609 119.715C216.304 120.31 215.698 120.753 215.561 121.405C215.458 121.905 215.656 122.436 215.561 122.932C215.561 122.932 215.561 122.932 215.561 122.951C215.474 123.2 215.405 123.455 215.355 123.714C215.351 123.799 215.359 123.883 215.378 123.966C215.451 124.255 215.61 124.515 215.835 124.71C215.973 124.842 216.122 124.961 216.281 125.065C216.444 125.172 216.612 125.271 216.784 125.362L216.883 125.416C217.028 125.492 217.173 125.565 217.322 125.633L217.421 125.675C217.592 125.752 217.768 125.82 217.943 125.881L218.065 125.92C218.202 125.965 218.343 126.007 218.484 126.042L218.579 126.072L218.667 126.091L219.048 126.171L219.189 126.198C219.357 126.226 219.528 126.249 219.704 126.267H219.856C219.986 126.267 220.112 126.286 220.237 126.29H220.416C220.55 126.29 220.679 126.29 220.798 126.29H220.935C221.114 126.29 221.293 126.263 221.472 126.24H221.529C221.689 126.217 221.849 126.19 222.01 126.156L222.131 126.129C222.28 126.095 222.429 126.061 222.577 126.015L222.657 125.992C222.837 125.939 223.016 125.881 223.191 125.813C223.798 125.563 224.386 125.271 224.952 124.939C225.333 124.729 225.714 124.515 226.095 124.321C226.378 124.178 226.668 124.051 226.964 123.939C227.685 123.631 228.469 123.5 229.251 123.557C229.637 123.61 230.018 123.688 230.394 123.79C230.394 123.832 230.394 123.874 230.394 123.916C230.704 125.748 231.01 127.58 231.313 129.411C231.812 129.052 232.339 128.734 232.89 128.461C232.787 128.738 232.72 129.026 232.688 129.32C232.666 129.547 232.666 129.776 232.688 130.003C232.723 130.365 232.799 130.766 232.582 131.052C232.448 131.228 232.201 131.327 232.128 131.525C232.075 131.728 232.062 131.939 232.09 132.147C232.074 132.384 231.974 132.608 231.808 132.778C231.641 132.947 231.42 133.051 231.183 133.071C231.292 133.378 231.295 133.713 231.19 134.022C231.086 134.33 230.881 134.595 230.608 134.773C230.448 134.849 230.299 134.947 230.165 135.063C230.035 135.231 229.948 135.429 229.91 135.639C229.406 137.529 228.371 139.233 226.926 140.55C226.384 140.976 225.889 141.46 225.451 141.992C225.18 142.405 224.956 142.846 224.784 143.309C223.768 145.797 222.736 148.286 221.689 150.777C221.11 152.17 220.546 153.585 220.363 155.085C219.906 159.199 216.247 162.686 216.933 166.77C217.072 167.79 217.482 168.753 218.122 169.559C218.884 170.479 220.028 171.005 221.171 171.433C224.109 172.577 227.208 173.203 230.295 173.833L235.143 174.829C236.094 175.048 237.059 175.201 238.032 175.287C239.202 175.367 240.402 175.256 241.542 175.554C242.247 175.737 242.922 176.077 243.649 176.115C244.274 176.149 245.044 176.016 245.414 176.527C245.784 177.038 245.498 177.714 245.849 178.168C246.413 178.889 247.788 178.168 248.402 178.847C248.57 179.108 248.698 179.392 248.783 179.69C248.876 179.875 249.006 180.039 249.164 180.171C249.202 180.387 249.217 180.605 249.21 180.824C249.13 181.71 248.946 182.584 248.661 183.426C248.204 184.976 247.748 186.526 247.293 188.078C247.119 188.626 246.992 189.188 246.912 189.757C246.883 190.034 246.883 190.312 246.912 190.589C246.992 191.432 247.476 192.302 248.28 192.577C248.904 192.742 249.567 192.66 250.132 192.348C250.677 192.063 251.189 191.717 251.657 191.318C252.501 190.678 253.242 189.914 253.856 189.051C255.761 186.197 255.144 182.335 256.482 179.179C257.37 177.073 259.1 175.363 259.675 173.142C259.81 172.72 259.826 172.268 259.721 171.837C259.481 171.074 258.669 170.639 257.911 170.364H257.877C257.254 170.142 256.617 169.96 255.971 169.819C255.811 169.784 255.647 169.757 255.483 169.731C255.121 169.435 254.832 169.059 254.641 168.632C254.611 168.405 254.551 168.183 254.462 167.972C254.401 167.881 254.32 167.806 254.224 167.752C254.129 167.699 254.022 167.67 253.913 167.666C253.532 167.628 253.021 167.766 252.606 167.735C251.756 167.674 251.192 166.838 250.43 166.453C249.667 166.067 248.84 166.163 248.028 166.22C247.738 166.26 247.443 166.242 247.16 166.167C246.821 166.011 246.512 165.798 246.245 165.537C245.776 165.172 245.228 164.92 244.646 164.803C244.063 164.686 243.461 164.706 242.887 164.862C242.522 165.009 242.136 165.097 241.744 165.121C241.001 165.079 240.475 164.415 239.926 163.911C238.424 162.534 236.286 162.171 234.464 161.267C234.186 161.163 233.953 160.963 233.809 160.702C233.599 160.183 234.072 159.664 234.499 159.309L237.632 156.703C241.062 153.849 245.349 151.7 246.942 147.514C247.108 146.953 247.366 146.423 247.705 145.946C247.828 145.8 247.97 145.672 248.128 145.564C248.821 145.115 249.66 144.951 250.471 145.106C251.46 145.328 252.397 145.737 253.231 146.312C254.595 147.139 255.923 148.029 257.213 148.983C258.492 149.898 259.708 150.898 260.853 151.975C262.854 153.883 264.52 156.146 266.383 158.203C268.247 160.26 270.377 162.179 272.965 163.163C275.553 164.148 278.682 164.106 280.904 162.454C283.469 160.546 284.292 157.134 284.94 154.005C286.369 152.624 286.8 150.521 287.497 148.663C287.935 147.484 288.496 146.373 288.968 145.198C289.532 143.816 289.974 142.389 290.417 140.966C290.918 139.537 291.258 138.056 291.43 136.551C291.613 134.174 290.977 131.644 291.644 129.411C292.524 129.217 293.325 128.72 294.19 128.43C295.478 128.007 296.857 128.076 298.222 128.083H298.31C298.78 128.133 299.253 128.022 299.651 127.766C300.108 127.385 300.181 126.732 300.204 126.141C300.257 124.679 300.166 123.038 299.072 122.092ZM243.851 56.9992C243.536 57.0773 243.21 57.1005 242.887 57.0679L243.851 56.9992Z" fill="url(#paint0_linear)"/>
<path d="M156.208 234L156.21 233.283C157.635 233.287 159.082 233.262 160.51 233.21L160.536 233.926C159.099 233.979 157.642 234.004 156.208 234ZM151.881 233.902C150.449 233.842 148.996 233.751 147.562 233.634L147.621 232.919C149.045 233.037 150.489 233.126 151.912 233.187L151.881 233.902ZM164.858 233.681L164.803 232.966C166.225 232.857 167.665 232.717 169.082 232.551L169.166 233.263C167.739 233.43 166.29 233.571 164.858 233.681ZM143.256 233.192C141.828 233.016 140.386 232.81 138.972 232.578L139.088 231.871C140.493 232.101 141.925 232.306 143.344 232.481L143.256 233.192ZM173.453 232.672L173.341 231.964C174.747 231.741 176.171 231.486 177.573 231.205L177.713 231.908C176.302 232.191 174.869 232.447 173.453 232.672H173.453ZM134.715 231.791C133.306 231.501 131.886 231.179 130.494 230.833L130.667 230.137C132.049 230.481 133.46 230.801 134.86 231.089L134.715 231.791ZM181.94 230.972L181.771 230.276C183.159 229.939 184.558 229.57 185.927 229.178L186.125 229.867C184.746 230.261 183.338 230.633 181.94 230.972H181.94ZM126.315 229.705C124.935 229.301 123.545 228.865 122.186 228.408L122.414 227.728C123.765 228.182 125.145 228.616 126.516 229.017L126.315 229.705ZM190.261 228.592L190.036 227.911C191.39 227.464 192.754 226.982 194.09 226.479L194.343 227.15C192.998 227.656 191.624 228.141 190.261 228.592H190.261ZM118.101 226.94C116.758 226.426 115.406 225.877 114.081 225.307L114.364 224.649C115.68 225.214 117.023 225.76 118.357 226.27L118.101 226.94ZM198.351 225.549L198.072 224.889C199.384 224.334 200.701 223.745 201.987 223.138L202.293 223.787C200.998 224.397 199.672 224.99 198.351 225.549H198.351ZM110.131 223.514C108.832 222.892 107.529 222.235 106.259 221.562L106.595 220.929C107.856 221.597 109.15 222.249 110.441 222.867L110.131 223.514ZM206.162 221.866L205.831 221.231C207.095 220.571 208.362 219.877 209.595 219.169L209.952 219.79C208.71 220.503 207.435 221.202 206.162 221.866ZM102.47 219.456C101.223 218.73 99.9783 217.971 98.7695 217.199L99.155 216.595C100.356 217.361 101.592 218.116 102.83 218.837L102.47 219.456ZM213.656 217.563L213.275 216.956C214.479 216.199 215.686 215.405 216.863 214.597L217.269 215.187C216.084 216.001 214.868 216.801 213.656 217.563ZM95.1641 214.797C93.9817 213.974 92.8025 213.118 91.6589 212.251L92.0915 211.68C93.2276 212.54 94.399 213.391 95.5734 214.209L95.1641 214.797ZM220.784 212.669L220.355 212.095C221.494 211.244 222.635 210.356 223.745 209.455L224.197 210.011C223.079 210.918 221.931 211.813 220.784 212.669V212.669ZM88.2593 209.567C87.1496 208.655 86.0433 207.707 84.9709 206.75L85.4478 206.215C86.5132 207.166 87.6123 208.107 88.7146 209.014L88.2593 209.567ZM227.501 207.218L227.028 206.68C228.098 205.738 229.165 204.76 230.197 203.776L230.691 204.294C229.653 205.285 228.579 206.269 227.501 207.218ZM81.7983 203.804C80.7679 202.808 79.7412 201.775 78.7471 200.735L79.2653 200.239C80.2529 201.273 81.2728 202.299 82.2966 203.289L81.7983 203.804ZM233.763 201.244L233.248 200.746C234.239 199.722 235.224 198.662 236.176 197.596L236.711 198.074C235.752 199.146 234.761 200.213 233.763 201.244ZM75.8216 197.546C74.8696 196.466 73.9293 195.355 73.0264 194.243L73.5829 193.791C74.4795 194.896 75.4137 196 76.3592 197.072L75.8216 197.546ZM239.53 194.787L238.976 194.332C239.885 193.227 240.783 192.092 241.644 190.956L242.215 191.389C241.348 192.532 240.444 193.675 239.53 194.787V194.787ZM70.3665 190.832C69.5066 189.683 68.6586 188.501 67.846 187.318L68.4366 186.912C69.2438 188.087 70.0861 189.261 70.9404 190.403L70.3665 190.832ZM244.762 187.885L244.174 187.476C244.992 186.301 245.796 185.097 246.563 183.895L247.167 184.281C246.395 185.49 245.586 186.703 244.762 187.885ZM65.469 183.707C64.705 182.494 63.955 181.248 63.2396 180.004L63.8608 179.647C64.5714 180.882 65.3165 182.12 66.0753 183.325L65.469 183.707ZM249.426 180.582L248.808 180.221C249.529 178.984 250.233 177.717 250.901 176.458L251.534 176.794C250.862 178.062 250.153 179.336 249.426 180.582V180.582ZM61.1618 176.215C60.4983 174.945 59.8513 173.643 59.2389 172.347L59.887 172.041C60.4953 173.329 61.138 174.621 61.797 175.883L61.1618 176.215ZM253.488 172.923L252.842 172.613C253.459 171.324 254.06 170.005 254.625 168.691L255.283 168.974C254.714 170.297 254.11 171.625 253.488 172.923ZM57.4743 168.406C56.9142 167.084 56.3748 165.736 55.8709 164.398L56.5415 164.146C57.0421 165.474 57.5779 166.814 58.1342 168.126L57.4743 168.406ZM256.918 164.955L256.249 164.698C256.761 163.359 257.253 161.995 257.709 160.642L258.388 160.871C257.929 162.233 257.434 163.607 256.918 164.955V164.955ZM54.4271 160.318C53.9752 158.954 53.5455 157.562 53.1499 156.182L53.8389 155.984C54.2319 157.355 54.6587 158.738 55.1074 160.092L54.4271 160.318ZM259.688 156.742L259 156.541C259.4 155.174 259.778 153.778 260.123 152.39L260.818 152.564C260.471 153.961 260.09 155.367 259.688 156.742ZM52.0417 151.997C51.7019 150.601 51.3865 149.179 51.1038 147.772L51.8066 147.631C52.0873 149.029 52.4005 150.441 52.7379 151.828L52.0417 151.997ZM261.779 148.344L261.077 148.199C261.365 146.804 261.629 145.381 261.861 143.971L262.568 144.088C262.334 145.507 262.069 146.939 261.779 148.344V148.344ZM50.3379 143.512C50.1128 142.096 49.9132 140.654 49.7446 139.224L50.4563 139.141C50.6239 140.561 50.8221 141.993 51.0459 143.399L50.3379 143.512ZM263.185 139.803L262.473 139.715C262.648 138.297 262.797 136.858 262.914 135.439L263.628 135.498C263.51 136.927 263.361 138.375 263.185 139.803V139.803ZM49.3243 134.917C49.2133 133.485 49.1299 132.031 49.0763 130.596L49.7923 130.569C49.8456 131.995 49.9285 133.439 50.0386 134.862L49.3243 134.917ZM263.9 131.179L263.184 131.148C263.245 129.72 263.278 128.274 263.283 126.849L263.283 126.612L264 126.614L264 126.85C263.995 128.286 263.961 129.741 263.9 131.179ZM49.7167 126.27L49 126.268L49.0006 126.147C49.0051 124.749 49.0369 123.333 49.0952 121.941L49.811 121.971C49.7533 123.354 49.7218 124.761 49.7172 126.151L49.7167 126.27ZM263.203 122.314C263.148 120.891 263.064 119.447 262.952 118.022L263.667 117.965C263.779 119.4 263.864 120.854 263.919 122.287L263.203 122.314ZM50.0761 117.68L49.3618 117.621C49.4791 116.187 49.627 114.738 49.801 113.315L50.5125 113.403C50.3396 114.816 50.1928 116.255 50.0761 117.68ZM262.53 113.743C262.362 112.329 262.162 110.896 261.936 109.485L262.644 109.372C262.871 110.793 263.072 112.235 263.241 113.658L262.53 113.743ZM51.1199 109.146L50.4127 109.031C50.6445 107.613 50.9083 106.18 51.1972 104.774L51.8991 104.918C51.6123 106.315 51.3502 107.738 51.1199 109.146H51.1199ZM261.17 105.254C260.887 103.853 260.572 102.441 260.234 101.058L260.93 100.888C261.271 102.28 261.588 103.702 261.872 105.112L261.17 105.254ZM52.8483 100.725L52.1527 100.553C52.4981 99.1589 52.8771 97.7527 53.2792 96.3728L53.9672 96.5733C53.5678 97.9439 53.1914 99.3407 52.8483 100.725ZM259.129 96.9032C258.734 95.5331 258.306 94.1514 257.856 92.7965L258.536 92.5706C258.989 93.9346 259.421 95.3256 259.817 96.7049L259.129 96.9032ZM55.2533 92.4708L54.574 92.2425C55.0319 90.8794 55.5249 89.5049 56.0394 88.1572L56.709 88.4128C56.1979 89.7516 55.7081 91.1168 55.2533 92.4708ZM256.417 88.7448C255.912 87.4101 255.375 86.0714 254.82 84.7657L255.479 84.4855C256.038 85.7999 256.579 87.1475 257.087 88.4912L256.417 88.7448ZM58.3281 84.4185L57.6694 84.1357C58.237 82.8136 58.8397 81.4844 59.4607 80.1855L60.1073 80.4945C59.4903 81.7848 58.8918 83.1051 58.3281 84.4185H58.3281ZM253.063 80.8529C252.453 79.5663 251.809 78.2743 251.149 77.0129L251.783 76.6803C252.449 77.9503 253.097 79.2509 253.71 80.5464L253.063 80.8529ZM62.0438 76.6468L61.4101 76.312C62.0823 75.0409 62.7902 73.7656 63.5139 72.5213L64.1335 72.8817C63.4146 74.1176 62.7114 75.3845 62.0438 76.6468ZM249.08 73.252C248.368 72.016 247.621 70.7793 246.862 69.5761L247.468 69.1935C248.233 70.4048 248.984 71.6499 249.701 72.894L249.08 73.252ZM66.3731 69.2051L65.7686 68.8199C66.5414 67.6069 67.3493 66.3934 68.1697 65.2131L68.7581 65.6222C67.9431 66.7946 67.1407 67.9999 66.3731 69.2051ZM244.496 65.9911C243.687 64.817 242.844 63.6434 241.989 62.5033L242.562 62.0734C243.423 63.2212 244.272 64.4025 245.086 65.5847L244.496 65.9911ZM71.2848 62.1388L70.7134 61.7065C71.5808 60.5598 72.483 59.4156 73.3948 58.3055L73.9487 58.7605C73.0428 59.8631 72.1466 60.9997 71.2848 62.1388ZM239.343 59.1178C238.443 58.012 237.507 56.9093 236.563 55.8403L237.1 55.3658C238.051 56.442 238.992 57.5521 239.899 58.6654L239.343 59.1178ZM76.7454 55.4921L76.2105 55.0155C77.1655 53.9436 78.156 52.8757 79.1546 51.8414L79.6702 52.3393C78.6782 53.3666 77.6943 54.4275 76.7454 55.4921H76.7454ZM233.653 52.6756C232.665 51.6433 231.644 50.6185 230.619 49.6294L231.116 49.1135C232.148 50.1093 233.176 51.1409 234.171 52.18L233.653 52.6756ZM82.7179 49.3064L82.2227 48.7882C83.26 47.7966 84.3324 46.8119 85.4098 45.8611L85.884 46.3984C84.8136 47.3429 83.7484 48.3213 82.7179 49.3064L82.7179 49.3064ZM227.464 46.7064C226.397 45.7562 225.296 44.8158 224.195 43.9116L224.649 43.3576C225.758 44.2679 226.866 45.2144 227.941 46.1712L227.464 46.7064ZM89.1632 43.6201L88.7108 43.0644C89.8257 42.1573 90.973 41.2619 92.1204 40.4027L92.55 40.9762C91.4101 41.8297 90.2706 42.7194 89.1633 43.6201L89.1632 43.6201ZM220.814 41.2496C219.674 40.3878 218.501 39.5384 217.33 38.7248L217.738 38.1361C218.918 38.9552 220.098 39.8103 221.246 40.6778L220.814 41.2496ZM96.0397 38.4701L95.6333 37.8798C96.8174 37.065 98.032 36.2646 99.2435 35.5008L99.6258 36.1071C98.4223 36.8657 97.2157 37.6606 96.0397 38.4701ZM213.745 36.3414C212.54 35.5742 211.302 34.8215 210.067 34.1041L210.428 33.4845C211.67 34.2066 212.916 34.9645 214.13 35.7367L213.745 36.3414ZM103.303 33.8909L102.945 33.2697C104.187 32.5551 105.461 31.8552 106.732 31.1898L107.065 31.8246C105.802 32.4857 104.536 33.1809 103.303 33.8909V33.8909ZM206.301 32.0163C205.038 31.3491 203.743 30.6983 202.453 30.0822L202.761 29.4355C204.06 30.0556 205.364 30.7108 206.636 31.3826L206.301 32.0163ZM110.906 29.9127L110.599 29.2646C111.894 28.6528 113.219 28.0584 114.54 27.4979L114.819 28.1576C113.508 28.7142 112.191 29.3047 110.906 29.9127L110.906 29.9127ZM198.528 28.3052C197.212 27.7415 195.868 27.1977 194.533 26.6884L194.788 26.0187C196.133 26.5314 197.486 27.0791 198.81 27.6465L198.528 28.3052ZM118.8 26.5626L118.546 25.892C119.889 25.3852 121.262 24.8987 122.626 24.446L122.852 25.1263C121.497 25.5759 120.133 26.0592 118.8 26.5626ZM190.473 25.2347C189.121 24.7812 187.74 24.3492 186.37 23.9509L186.57 23.2629C187.95 23.6638 189.339 24.0986 190.701 24.5552L190.473 25.2347ZM126.96 23.8551L126.762 23.1665C128.141 22.77 129.549 22.3963 130.945 22.0556L131.115 22.7519C129.728 23.0903 128.33 23.4615 126.96 23.8551ZM182.218 22.8346C180.836 22.4926 179.424 22.1739 178.024 21.8875L178.168 21.1853C179.578 21.4737 180.998 21.7947 182.39 22.1388L182.218 22.8346ZM135.312 21.8185L135.17 21.116C136.576 20.833 138.009 20.5745 139.43 20.3477L139.543 21.0553C138.132 21.2808 136.708 21.5375 135.312 21.8185ZM173.796 21.1108C172.387 20.8815 170.955 20.6777 169.539 20.5055L169.626 19.794C171.051 19.9675 172.493 20.1726 173.911 20.4036L173.796 21.1108ZM143.801 20.4635L143.717 19.7518C145.143 19.5829 146.592 19.4405 148.024 19.329L148.08 20.0434C146.657 20.1544 145.218 20.2956 143.801 20.4635ZM165.262 20.0716C163.841 19.9562 162.397 19.8678 160.97 19.8091L161 19.0928C162.436 19.1521 163.89 19.241 165.32 19.3572L165.262 20.0716ZM152.372 19.7948L152.345 19.0787C153.779 19.0243 155.235 18.9979 156.673 19.0001L156.672 19.7168C155.243 19.7146 153.796 19.7408 152.372 19.7948Z" fill="#2D9CDB"/>
<path d="M245.353 81.1391C244.892 81.5315 244.351 81.8192 243.768 81.9824L241.065 82.9517C239.598 83.4783 238.066 84.0087 236.519 83.8179C235.654 83.711 231.945 83.1654 231.385 82.4899C230.531 81.4444 233.523 79.9065 234.544 79.025C234.776 78.8584 234.99 78.6692 235.185 78.4603C235.566 77.9947 235.516 77.3422 235.463 76.7545C235.269 75.2658 235.203 73.7632 235.265 72.2631C235.295 71.9055 235.345 71.55 235.417 71.1985C235.798 69.4431 237.43 70.0842 238.718 70.5497C240.268 71.0541 241.768 71.7044 243.196 72.4921C243.631 72.7166 244.009 73.0377 244.301 73.4308C244.865 74.2856 244.64 75.4075 244.549 76.4836C244.469 77.3193 244.473 78.1206 244.995 78.7274C245.258 78.9593 245.499 79.2148 245.715 79.4906C245.837 79.7683 245.868 80.0777 245.803 80.374C245.738 80.6703 245.58 80.9382 245.353 81.1391Z" fill="#BE6F72"/>
<path d="M208.026 53.6373C208.407 51.9469 208.491 50.203 208.949 48.5278C209.271 47.4385 209.671 46.3737 210.145 45.3414L211.826 41.4148C211.98 40.9511 212.253 40.5364 212.619 40.2127C213.011 39.9698 213.465 39.8477 213.926 39.8617C215.569 39.8006 217.295 40.312 218.416 41.5216C219.536 42.7313 219.89 44.6889 218.999 46.0741C217.932 47.7417 215.603 48.0775 214.212 49.4818C213.324 50.3785 212.893 51.6263 212.63 52.8589C211.937 56.0643 212.169 59.388 211.956 62.6621C211.887 63.681 211.689 64.8449 210.812 65.3715C210.282 65.6314 209.693 65.746 209.105 65.7035L206.605 65.7454C206.185 65.7454 204.665 66.0087 204.387 65.692C203.899 65.1387 205.012 62.3836 205.214 61.7692C205.663 60.4069 206.216 59.0789 206.738 57.7395C207.192 56.5451 208.026 54.931 208.026 53.6373Z" fill="#BE6F72"/>
<path d="M259.649 173.52C259.073 175.726 257.343 177.443 256.455 179.545C255.117 182.694 255.719 186.544 253.829 189.391C253.216 190.255 252.474 191.021 251.63 191.661C251.162 192.06 250.651 192.404 250.106 192.688C249.541 193 248.877 193.082 248.253 192.917C247.449 192.642 246.965 191.772 246.885 190.932C246.857 190.657 246.857 190.379 246.885 190.104C246.965 189.536 247.093 188.976 247.266 188.429C247.724 186.885 248.18 185.338 248.634 183.789C248.919 182.949 249.103 182.078 249.183 181.194C249.233 180.232 248.623 178.981 248.882 178.084C249 177.679 249.442 177.321 249.644 176.981C249.931 176.492 250.152 175.967 250.3 175.42C250.612 174.356 250.826 173.219 251.481 172.322C251.909 171.79 252.41 171.321 252.968 170.929C253.38 170.567 253.863 170.296 254.386 170.131C254.893 170.042 255.414 170.067 255.91 170.204C256.557 170.342 257.193 170.523 257.816 170.746H257.85C258.612 171.021 259.42 171.444 259.66 172.215C259.777 172.643 259.773 173.094 259.649 173.52Z" fill="#3F3D56"/>
<path d="M300.2 126.606C300.177 127.198 300.105 127.858 299.647 128.228C299.249 128.483 298.776 128.595 298.306 128.545H298.203C296.842 128.545 295.459 128.469 294.171 128.892C293.191 129.217 292.292 129.812 291.27 129.93C289.864 130.09 288.541 129.32 287.295 128.648C286.122 128.015 284.917 127.442 283.686 126.931C282.878 126.599 281.228 126.385 280.839 125.5C280.706 125.081 280.594 124.655 280.504 124.225C280.44 124.033 280.362 123.845 280.271 123.664C280.043 123.278 279.897 122.847 279.844 122.401C279.846 121.956 279.999 121.526 280.279 121.18C280.59 120.812 280.97 120.508 281.399 120.288C281.827 120.067 282.295 119.933 282.775 119.894C283.736 119.819 284.702 119.871 285.649 120.047L295.032 121.398C295.756 121.501 296.484 121.604 297.197 121.779C297.873 121.897 298.512 122.177 299.056 122.596C300.166 123.527 300.257 125.164 300.2 126.606Z" fill="#3F3D56"/>
<path d="M291.952 129.049C290.809 131.464 291.632 134.322 291.426 136.994C291.254 138.495 290.914 139.972 290.413 141.397C289.971 142.817 289.528 144.24 288.964 145.618C288.492 146.762 287.932 147.907 287.493 149.075C286.796 150.937 286.35 153.032 284.936 154.417C284.288 157.539 283.465 160.95 280.9 162.843C278.67 164.491 275.564 164.549 272.961 163.553C270.358 162.557 268.243 160.649 266.379 158.592C264.516 156.535 262.85 154.295 260.849 152.38C259.703 151.302 258.484 150.304 257.202 149.392C255.911 148.453 254.584 147.57 253.219 146.743C252.384 146.171 251.448 145.763 250.46 145.541C249.649 145.386 248.809 145.55 248.116 145.999C247.959 146.107 247.816 146.235 247.693 146.381C247.354 146.856 247.096 147.385 246.931 147.945C245.33 152.12 241.035 154.265 237.605 157.111L234.472 159.71C234.045 160.065 233.573 160.584 233.782 161.099C233.926 161.36 234.159 161.56 234.438 161.664C236.26 162.564 238.398 162.927 239.899 164.301C240.448 164.804 240.974 165.468 241.717 165.506C242.11 165.483 242.496 165.397 242.86 165.251C243.434 165.095 244.036 165.075 244.618 165.192C245.201 165.308 245.748 165.558 246.218 165.922C246.485 166.183 246.794 166.396 247.133 166.552C247.416 166.627 247.711 166.645 248.002 166.605C248.814 166.548 249.675 166.476 250.403 166.838C251.131 167.201 251.729 168.056 252.579 168.117C252.994 168.147 253.49 168.01 253.886 168.048C253.995 168.051 254.102 168.081 254.198 168.134C254.293 168.187 254.374 168.262 254.435 168.353C254.524 168.563 254.584 168.784 254.614 169.01C254.77 169.548 255.296 169.876 255.639 170.318C256.165 170.998 256.242 171.921 256.188 172.78C256.016 175.464 254.821 177.98 252.85 179.809C252.29 180.381 251.576 180.779 250.795 180.954C250.404 181.035 249.997 180.992 249.632 180.83C249.267 180.668 248.962 180.395 248.76 180.049C248.675 179.752 248.547 179.469 248.379 179.21C247.765 178.534 246.39 179.252 245.826 178.53C245.475 178.08 245.727 177.359 245.391 176.893C245.056 176.428 244.248 176.512 243.627 176.485C242.899 176.447 242.224 176.103 241.519 175.924C240.376 175.626 239.179 175.737 238.009 175.657C237.037 175.571 236.071 175.418 235.12 175.199L230.272 174.207C227.185 173.577 224.087 172.94 221.148 171.814C220.024 171.387 218.892 170.86 218.099 169.944C217.46 169.14 217.049 168.177 216.91 167.159C216.22 163.087 219.879 159.607 220.34 155.505C220.504 154.009 221.102 152.597 221.666 151.208C222.701 148.725 223.732 146.241 224.761 143.755C224.928 143.293 225.145 142.85 225.409 142.435C225.848 141.904 226.342 141.422 226.884 140.996C228.328 139.684 229.364 137.983 229.868 136.097C229.906 135.887 229.993 135.689 230.123 135.521C230.259 135.407 230.407 135.311 230.566 135.234C230.838 135.057 231.043 134.793 231.147 134.485C231.251 134.177 231.249 133.843 231.141 133.536C231.378 133.517 231.599 133.413 231.766 133.243C231.932 133.074 232.033 132.85 232.048 132.613C232.02 132.406 232.033 132.196 232.086 131.995C232.178 131.796 232.406 131.697 232.54 131.521C232.757 131.235 232.681 130.835 232.647 130.476C232.624 130.249 232.624 130.02 232.647 129.793C232.73 128.985 233.091 128.231 233.668 127.66C234.579 126.763 235.875 126.996 237.132 126.782C238.387 126.511 239.612 126.119 240.791 125.61C244.098 124.306 247.58 123.499 251.123 123.218C254.684 122.937 258.26 123.508 261.558 124.882C262.038 125.076 262.49 125.333 262.904 125.645C263.197 125.871 263.438 126.159 263.609 126.488C263.749 126.892 263.923 127.284 264.127 127.66C264.535 128.217 265.305 128.396 265.75 128.923C266.196 129.449 266.235 130.338 266.604 130.991C267.134 131.922 268.361 132.353 268.727 133.365C268.841 133.685 268.857 134.036 268.94 134.368C269.146 135.2 269.764 135.856 270.309 136.513C272.307 138.905 273.586 141.816 273.998 144.908C274.12 142.973 275.419 141.26 277.047 140.191C277.485 139.905 277.992 139.588 278.08 139.069C278.19 138.413 277.554 137.829 277.596 137.161C277.642 136.835 277.773 136.527 277.977 136.268C278.703 135.214 279.5 134.211 280.363 133.265C280.831 132.75 281.357 132.121 281.163 131.441C281.014 130.934 280.496 130.636 280.21 130.193C280.043 129.93 279.958 129.622 279.965 129.31C279.972 128.998 280.07 128.694 280.248 128.438C280.515 128.076 280.938 127.812 281.068 127.381C281.216 126.874 280.885 126.324 280.988 125.801C281.127 125.383 281.404 125.023 281.773 124.782C282.278 124.321 282.853 123.943 283.476 123.66C284.482 123.279 285.603 123.42 286.67 123.569C288.454 123.817 290.455 124.199 291.461 125.694C292.105 126.629 292.433 128.049 291.952 129.049Z" fill="#65617D"/>
<path opacity="0.1" d="M300.2 126.606C300.177 127.198 300.105 127.858 299.647 128.228C299.249 128.483 298.776 128.595 298.306 128.545H298.203C298.359 127.751 299.323 127.297 299.491 126.492C299.52 126.245 299.497 125.994 299.425 125.756C299.353 125.517 299.233 125.297 299.072 125.107C298.256 124.004 296.945 123.393 295.642 122.947C291.959 121.683 288.014 121.387 284.185 122.088C283.144 122.258 282.131 122.57 281.174 123.016C280.857 123.214 280.552 123.431 280.26 123.664C280.031 123.278 279.886 122.847 279.833 122.401C279.834 121.956 279.988 121.526 280.267 121.18C280.578 120.812 280.959 120.508 281.387 120.288C281.816 120.067 282.283 119.933 282.764 119.894C283.724 119.819 284.69 119.871 285.637 120.047L295.02 121.398C295.745 121.501 296.473 121.604 297.185 121.779C297.862 121.897 298.5 122.177 299.045 122.596C300.166 123.527 300.257 125.164 300.2 126.606Z" fill="black"/>
<path opacity="0.1" d="M259.649 173.52C259.073 175.726 257.343 177.443 256.455 179.545C255.117 182.694 255.719 186.544 253.829 189.391C253.216 190.255 252.474 191.021 251.63 191.661C251.162 192.06 250.651 192.404 250.106 192.688C249.541 193 248.877 193.082 248.253 192.917C247.449 192.642 246.965 191.772 246.885 190.932C246.857 190.657 246.857 190.379 246.885 190.104L246.908 190.165C247.24 190.967 247.781 191.806 248.634 191.947C248.955 191.97 249.277 191.927 249.58 191.82C249.883 191.713 250.16 191.545 250.395 191.325C251.653 190.314 252.385 188.807 253.082 187.353C253.628 186.304 254.06 185.2 254.37 184.06C254.523 183.411 254.595 182.747 254.751 182.098C255.476 178.946 257.941 176.374 258.486 173.18C258.531 172.961 258.541 172.735 258.517 172.513C258.445 172.222 258.335 171.942 258.189 171.681C258.057 171.385 257.959 171.075 257.899 170.757C258.662 171.032 259.47 171.456 259.71 172.226C259.808 172.655 259.787 173.103 259.649 173.52Z" fill="black"/>
<path opacity="0.1" d="M253.894 168.048C253.541 168.971 252.948 169.783 252.175 170.399C251.09 171.226 249.82 171.776 248.474 172.001C247.848 172.161 247.191 172.153 246.569 171.978C245.723 171.685 245.113 170.891 244.248 170.662C243.63 170.494 242.967 170.643 242.342 170.551C241.218 170.395 240.345 169.536 239.438 168.849C236.66 166.758 233.012 166.083 230.234 163.992C230.11 163.916 230.008 163.809 229.937 163.682C229.884 163.545 229.864 163.398 229.88 163.251C229.89 161.983 230.175 160.732 230.714 159.584C231.156 158.783 231.683 158.032 232.284 157.344C234.773 154.291 237.273 151.216 240.254 148.64C241.504 147.56 242.868 146.553 244.446 146.064C245.323 145.793 247.053 145.538 248.12 145.995C247.962 146.103 247.82 146.231 247.697 146.377C247.358 146.852 247.1 147.381 246.935 147.942C245.33 152.12 241.035 154.265 237.605 157.111L234.472 159.71C234.045 160.065 233.573 160.584 233.782 161.099C233.926 161.36 234.159 161.56 234.438 161.664C236.26 162.564 238.398 162.927 239.899 164.301C240.448 164.804 240.974 165.468 241.717 165.507C242.11 165.483 242.496 165.397 242.86 165.251C243.434 165.096 244.036 165.075 244.618 165.192C245.201 165.308 245.748 165.558 246.218 165.922C246.485 166.183 246.794 166.396 247.133 166.552C247.416 166.627 247.711 166.645 248.002 166.606C248.814 166.548 249.675 166.476 250.403 166.838C251.131 167.201 251.729 168.056 252.579 168.117C253.002 168.147 253.498 168.002 253.894 168.048Z" fill="black"/>
<path d="M218.842 116.257C218.118 116.723 217.348 117.25 217.051 118.059C216.807 118.719 216.922 119.474 216.628 120.115C216.335 120.757 215.675 121.203 215.531 121.89C215.428 122.39 215.63 122.916 215.531 123.416C215.444 123.676 215.374 123.941 215.321 124.21C215.283 124.779 215.771 125.24 216.247 125.557C217.261 126.218 218.416 126.631 219.619 126.763C220.822 126.896 222.039 126.744 223.172 126.32C224.19 125.939 225.108 125.317 226.084 124.828C227.035 124.28 228.124 124.015 229.22 124.065C229.849 124.134 230.451 124.363 231.08 124.447C231.391 124.508 231.712 124.493 232.015 124.402C232.318 124.312 232.595 124.149 232.822 123.928C233.016 123.659 233.146 123.35 233.203 123.023C233.733 120.928 233.493 118.707 232.99 116.601C232.487 114.495 231.724 112.468 231.187 110.373C230.806 108.82 230.512 107.229 229.876 105.76C229.239 104.291 228.168 102.924 226.671 102.364C226.553 102.305 226.419 102.288 226.29 102.314C226.193 102.354 226.108 102.417 226.042 102.497C224.857 103.754 223.964 105.258 223.427 106.901C222.829 108.729 222.665 110.667 222.116 112.503C221.88 113.266 221.575 114.288 220.973 114.872C220.371 115.456 219.525 115.819 218.842 116.257Z" fill="#3F3D56"/>
<path opacity="0.1" d="M233.214 123.012C233.15 123.339 233.014 123.649 232.814 123.916C232.588 124.138 232.311 124.302 232.008 124.391C231.704 124.481 231.383 124.495 231.072 124.431C230.447 124.355 229.845 124.122 229.216 124.05C228.12 123.999 227.031 124.264 226.08 124.813C225.104 125.301 224.174 125.908 223.164 126.301C221.687 126.862 220.073 126.954 218.541 126.564C217.728 126.36 216.955 126.019 216.255 125.557C215.774 125.244 215.29 124.794 215.328 124.21C215.382 123.943 215.452 123.679 215.538 123.42C215.637 122.92 215.439 122.394 215.538 121.894C215.683 121.207 216.346 120.749 216.636 120.115C216.925 119.482 216.815 118.723 217.055 118.062C217.352 117.25 218.126 116.727 218.85 116.257C219.574 115.788 220.435 115.429 221.015 114.861C221.09 114.772 221.157 114.678 221.217 114.578C221.635 113.933 221.941 113.223 222.124 112.476C222.684 110.637 222.837 108.702 223.431 106.87C223.97 105.229 224.864 103.726 226.049 102.47C226.113 102.388 226.197 102.325 226.293 102.287C226.422 102.261 226.556 102.277 226.674 102.333C228.168 102.898 229.239 104.264 229.88 105.733C230.52 107.202 230.79 108.786 231.191 110.343C231.724 112.438 232.49 114.472 232.993 116.574C233.496 118.677 233.744 120.913 233.214 123.012Z" fill="black"/>
<path opacity="0.1" d="M244.549 76.4722C242.757 77.0423 240.818 76.929 239.104 76.1542C237.39 75.3794 236.023 73.9976 235.265 72.2746C235.295 71.917 235.346 71.5615 235.417 71.2099C235.798 69.4546 237.43 70.0957 238.718 70.5612C240.268 71.0656 241.768 71.7159 243.196 72.5035C243.631 72.7281 244.009 73.0492 244.301 73.4423C244.865 74.2856 244.64 75.4075 244.549 76.4722Z" fill="black"/>
<path d="M242.247 76.4492C246.457 76.4492 249.869 73.0323 249.869 68.8173C249.869 64.6022 246.457 61.1853 242.247 61.1853C238.037 61.1853 234.625 64.6022 234.625 68.8173C234.625 73.0323 238.037 76.4492 242.247 76.4492Z" fill="#BE6F72"/>
<path opacity="0.1" d="M262.93 125.851C262.93 126.484 262.073 126.687 261.436 126.652C259.15 126.519 256.912 125.889 254.649 126.08C251.786 126.339 249.157 127.923 246.287 128.068C245.182 128.125 244.057 127.961 242.967 128.163C241.557 128.427 240.299 129.285 238.863 129.407C237.616 129.514 236.385 129.045 235.139 129.094C234.268 129.146 233.418 129.389 232.65 129.804C232.734 128.996 233.095 128.242 233.672 127.671C234.583 126.774 235.878 127.007 237.136 126.793C238.391 126.522 239.616 126.13 240.795 125.622C244.102 124.317 247.584 123.511 251.127 123.229C254.686 122.946 258.261 123.512 261.558 124.882C262.038 125.076 262.49 125.333 262.904 125.645C262.924 125.711 262.933 125.781 262.93 125.851Z" fill="black"/>
<path d="M238.722 82.7532L235.635 81.6085L234.331 81.1276C233.8 80.9048 233.241 80.7558 232.669 80.685C231.175 80.5705 229.769 81.5665 228.973 82.8372C228.176 84.1079 227.875 85.6229 227.62 87.0996C227.269 89.1196 226.972 91.1471 226.728 93.1823C226.465 95.0201 226.331 96.8742 226.328 98.7307C226.415 103.455 227.414 108.114 228.511 112.712C229.049 114.751 229.455 116.822 229.727 118.913C229.819 119.776 229.861 120.642 229.952 121.508C230.051 122.481 230.211 123.443 230.371 124.408L231.29 129.892C232.433 129.079 233.733 128.366 235.139 128.324C236.385 128.278 237.62 128.743 238.863 128.637C240.292 128.518 241.557 127.66 242.967 127.396C244.057 127.194 245.182 127.354 246.291 127.301C249.157 127.156 251.79 125.568 254.649 125.313C256.916 125.107 259.169 125.748 261.44 125.881C262.073 125.92 262.93 125.717 262.93 125.08C262.93 124.637 262.488 124.344 262.103 124.122C260.289 123.028 258.562 121.795 256.939 120.432C255.437 119.242 253.913 118.02 252.88 116.41C250.391 112.537 251.245 107.298 249.122 103.211C247.396 99.8908 249.122 95.5406 249.122 91.7971C249.122 89.9311 249.122 88.0422 248.684 86.2296C248.41 85.2158 248.069 84.2214 247.663 83.2531L246.18 79.4944C246.149 79.3846 246.089 79.2855 246.005 79.2082C245.905 79.1394 245.787 79.1034 245.666 79.1052C244.775 79.0517 243.897 79.3335 243.204 79.8951C242.506 80.4637 242.06 81.2803 241.374 81.8718C240.623 82.5243 239.655 83.0967 238.722 82.7532Z" fill="#E3E8F4"/>
<path d="M243.703 80.5858C243.947 79.5402 244.21 78.4527 244.907 77.636C245.605 76.8194 246.878 76.3882 247.777 76.9721C248.798 77.636 248.84 79.1701 249.713 80.0248C250.475 80.7575 251.619 80.8147 252.655 80.9101C254.519 81.08 256.35 81.5116 258.094 82.1923C258.434 82.2979 258.744 82.4837 258.997 82.7342C259.473 83.276 259.378 84.1079 259.615 84.7834C259.938 85.6534 260.834 86.2067 261.181 87.0729C261.562 88.0346 261.181 89.1107 260.861 90.099C260.285 91.8734 259.923 93.7166 259.363 95.4986C258.803 97.2807 258.006 99.036 256.695 100.379C256.116 100.975 255.255 101.524 254.492 101.169L254.199 103.287C254.113 103.735 254.113 104.194 254.199 104.642C254.243 104.866 254.35 105.072 254.506 105.238C254.662 105.405 254.862 105.523 255.083 105.58C255.14 105.909 255.487 106.065 255.769 106.244C255.977 106.387 256.155 106.569 256.292 106.781C256.429 106.993 256.523 107.23 256.568 107.479C256.613 107.727 256.609 107.982 256.555 108.229C256.5 108.475 256.398 108.709 256.253 108.916C256.013 109.24 255.658 109.496 255.544 109.881C255.373 110.438 255.78 111.026 256.276 111.331C256.771 111.636 257.354 111.778 257.858 112.071C258.902 112.674 259.462 113.861 259.82 115.014C260.087 115.884 260.308 116.826 260.964 117.46C261.215 117.7 261.516 117.883 261.756 118.135C262.172 118.627 262.412 119.243 262.439 119.887C262.543 120.684 262.368 121.493 261.943 122.176C261.181 123.267 259.759 123.592 258.513 124.084C256.489 124.916 254.824 126.404 253.04 127.671C252.314 128.257 251.458 128.66 250.544 128.846C249.309 129.011 248.093 128.465 246.851 128.415C246.108 128.422 245.368 128.52 244.648 128.705L242.361 129.201C242.483 127.427 241.508 125.649 240.963 123.958C239.934 120.776 239.743 117.372 239.987 114.037C240.231 110.701 240.909 107.412 241.58 104.138C242.049 101.848 242.003 99.4558 242.723 97.2311C243.398 95.0903 244.362 93.0335 244.717 90.805C245.296 87.1989 242.887 84.1423 243.703 80.5858Z" fill="#3F3D56"/>
<path d="M261.04 87.6414C261.25 88.0292 261.398 88.4477 261.478 88.8816C261.654 89.5538 261.985 90.1757 262.442 90.698C262.826 91.0366 263.166 91.4211 263.456 91.8428C263.807 92.5068 263.673 93.3158 263.837 94.0408C264.028 94.8307 264.58 95.5176 264.661 96.3304C264.663 96.5633 264.684 96.7956 264.725 97.0249C264.973 97.9484 266.33 98.1697 266.631 99.0932C266.833 99.6923 266.486 100.345 266.551 100.974C266.598 101.169 266.61 101.371 266.585 101.57C266.499 101.795 266.348 101.989 266.151 102.127C264.889 103.333 264.016 104.889 263.643 106.595C263.276 108.292 263.083 110.022 263.067 111.758L261.577 109.786C261.419 109.546 261.218 109.339 260.983 109.175C260.792 109.06 260.571 109.003 260.377 108.889C259.813 108.568 259.592 107.889 259.374 107.278C258.771 105.588 257.867 104.021 256.707 102.653C256.101 101.94 255.396 101.222 255.262 100.295C255.222 99.8693 255.245 99.4398 255.331 99.0207C255.712 96.5212 256.12 93.9607 257.335 91.7436C257.903 90.7057 258.639 89.7669 259.184 88.7137C259.55 88.0154 260.064 86.199 261.04 87.6414Z" fill="#3F3D56"/>
<path d="M223.443 90.0417C223.45 90.363 223.368 90.6799 223.206 90.9575C223.06 91.1266 222.871 91.2517 222.658 91.3191C222.445 91.3865 222.218 91.3934 222.002 91.3391C221.568 91.2301 221.159 91.0383 220.798 90.7744C219.736 90.1028 218.673 89.4299 217.611 88.7557C217.018 88.3979 216.447 88.0055 215.9 87.5804C215.064 86.8738 214.307 86.0794 213.64 85.2107C211.788 82.9211 210.149 80.4369 208.087 78.3419C207.527 77.7695 206.944 77.22 206.403 76.6209C205.663 75.7549 204.983 74.8395 204.368 73.8811C203.773 72.9996 203.156 72.0227 203.258 70.9695C203.319 70.3742 203.605 69.8247 203.689 69.2332C203.773 68.6417 203.548 67.9205 202.976 67.7602C202.909 67.7432 202.84 67.7317 202.771 67.7259C202.658 67.7139 202.547 67.6896 202.439 67.6534C201.909 67.4321 201.989 66.6116 202.37 66.1804C202.752 65.7492 203.316 65.5088 203.662 65.0356C203.824 64.7549 204.005 64.4858 204.204 64.2305C204.459 64.0114 204.764 63.8581 205.092 63.784C207.29 63.1353 209.616 63.0474 211.857 63.5283C212.238 63.6123 212.672 63.7649 212.786 64.1351C212.832 64.3154 212.832 64.5042 212.786 64.6846C212.618 65.437 212.521 66.2035 212.497 66.9741C212.496 67.1348 212.505 67.2954 212.523 67.455C212.703 69.0729 213.751 70.4429 214.772 71.7059C215.984 73.2094 217.215 74.7015 218.45 76.1897C219.118 77.0521 219.864 77.8506 220.679 78.5747C221.442 79.2082 222.429 79.7195 223.023 80.5323C223.507 81.1886 223.351 82.0854 223.404 82.8753C223.582 85.2604 223.594 87.6549 223.443 90.0417Z" fill="#3F3D56"/>
<path d="M271.845 105.962C272.221 105.596 272.561 105.193 272.858 104.76C273.179 104.223 273.435 103.651 273.621 103.054L275.831 96.7769C276.182 95.7848 276.532 94.7888 276.974 93.8233C277.432 92.7816 277.973 91.778 278.472 90.7706C279.756 88.1194 280.749 85.3365 281.434 82.4708C281.554 82.0771 281.594 81.6631 281.552 81.2535C281.445 80.5934 280.946 80.0782 280.469 79.6088C279.99 79.0908 279.444 78.639 278.846 78.2656C278.545 78.0785 278.21 77.9531 277.861 77.8968C277.512 77.8404 277.155 77.8543 276.811 77.9375C275.835 78.2237 275.221 79.2234 274.996 80.227C274.772 81.2306 274.855 82.2571 274.76 83.2798C274.623 84.7452 274.12 86.1609 273.998 87.63C273.933 88.481 273.998 89.3396 273.895 90.1867C273.707 91.2992 273.32 92.3684 272.752 93.3425C271.513 95.6631 269.84 97.723 267.824 99.4099C267.271 99.8182 266.774 100.297 266.345 100.833C265.987 101.37 265.744 101.976 265.632 102.612C265.379 103.58 265.489 104.607 265.941 105.5C266.562 106.561 267.755 107.027 268.895 107.263C270.434 107.584 270.789 107.057 271.845 105.962Z" fill="#BE6F72"/>
<path d="M242.293 57.7586C242.621 57.1412 243.123 56.6343 243.737 56.3011C244.351 55.9679 245.05 55.8232 245.746 55.8849C246.446 56.0092 247.098 56.3274 247.628 56.8035C248.157 57.2797 248.543 57.8947 248.741 58.579C248.92 59.1476 248.993 59.7772 249.305 60.2657C249.778 61.0022 250.654 61.2158 251.31 61.7501C251.701 62.1141 252.016 62.5528 252.236 63.0403C252.456 63.5278 252.577 64.0544 252.591 64.5892C252.627 65.6815 252.455 66.7707 252.084 67.7984C251.926 68.2369 251.799 68.6857 251.703 69.1416C251.626 69.5843 251.619 70.0346 251.55 70.4772C251.466 71.0512 251.267 71.6024 250.967 72.0985C250.666 72.5946 250.27 73.0255 249.801 73.3659C249.667 73.475 249.501 73.5356 249.328 73.5376C249.031 73.5033 248.848 73.156 248.737 72.8431C248.131 71.0916 248.276 68.9508 247.16 67.5542C246.652 66.9908 246.038 66.5331 245.353 66.2071C245.074 66.0268 244.759 65.9084 244.431 65.8599C243.947 65.8859 243.483 66.056 243.097 66.3483C242.292 66.8886 241.4 67.2838 240.459 67.516C239.99 67.6273 239.502 67.6323 239.031 67.5307C238.559 67.429 238.116 67.2232 237.735 66.9284C237.209 66.4933 236.824 65.8408 236.241 65.5012C235.657 65.1616 235.048 65.1806 234.472 64.9479C234.105 64.7917 233.779 64.5537 233.518 64.2521C233.257 63.9506 233.068 63.5933 232.966 63.2076C232.864 62.8219 232.851 62.4179 232.928 62.0264C233.006 61.635 233.171 61.2664 233.413 60.9487C233.794 60.4908 234.358 60.2313 234.697 59.7238C235.135 59.0674 235.097 58.1669 235.307 57.3808C235.431 56.8834 235.672 56.4229 236.009 56.0373C236.346 55.6517 236.771 55.3523 237.247 55.1637C237.708 55.0067 238.204 54.9766 238.681 55.0766C239.158 55.1767 239.6 55.4031 239.96 55.7323C240.341 56.0757 240.646 56.5184 241.02 56.8771C241.388 57.2305 241.84 57.4856 242.333 57.6189C242.825 57.7522 243.344 57.7596 243.84 57.6403" fill="#3F3D56"/>
<path opacity="0.1" d="M248.558 113.926C248.336 114.124 248.179 114.384 248.107 114.673C248.035 114.961 248.051 115.265 248.154 115.544C248.238 115.723 252.171 114.964 252.587 114.907C253.623 114.758 255.441 114.83 256.139 113.88C257.381 112.197 253.532 112.571 252.827 112.632C251.485 112.747 249.58 112.93 248.558 113.926Z" fill="black"/>
<path d="M212.779 64.6998C212.611 65.4522 212.514 66.2188 212.489 66.9894C211.346 67.2222 210.157 66.8406 209.059 66.459L205.907 65.3829C205.716 65.2602 205.484 65.2152 205.261 65.257C205.037 65.2988 204.838 65.4243 204.703 65.608C204.196 66.1346 203.499 67.1344 202.797 67.7259C202.684 67.7139 202.573 67.6896 202.466 67.6534C201.936 67.432 202.016 66.6116 202.397 66.1804C202.778 65.7492 203.342 65.5088 203.689 65.0356C203.85 64.7549 204.031 64.4858 204.23 64.2305C204.486 64.0114 204.79 63.8581 205.118 63.784C207.317 63.1353 209.642 63.0474 211.883 63.5283C212.264 63.6123 212.699 63.7649 212.813 64.1351C212.85 64.3231 212.838 64.5176 212.779 64.6998Z" fill="#3F3D56"/>
<path opacity="0.1" d="M212.779 64.6998C212.611 65.4522 212.514 66.2188 212.489 66.9894C211.346 67.2222 210.157 66.8406 209.059 66.459L205.907 65.3829C205.716 65.2602 205.484 65.2152 205.261 65.257C205.037 65.2988 204.838 65.4243 204.703 65.608C204.196 66.1346 203.499 67.1344 202.797 67.7259C202.684 67.7139 202.573 67.6896 202.466 67.6534C201.936 67.432 202.016 66.6116 202.397 66.1804C202.778 65.7492 203.342 65.5088 203.689 65.0356C203.85 64.7549 204.031 64.4858 204.23 64.2305C204.486 64.0114 204.79 63.8581 205.118 63.784C207.317 63.1353 209.642 63.0474 211.883 63.5283C212.264 63.6123 212.699 63.7649 212.813 64.1351C212.85 64.3231 212.838 64.5176 212.779 64.6998Z" fill="black"/>
<path opacity="0.1" d="M241.61 137.146C242.159 137.329 242.754 137.596 242.941 138.146L238.527 137.024L236.24 136.44C235.836 136.337 234.388 136.219 234.121 135.902C233.74 135.437 235.093 135.757 235.337 135.791C236.077 135.902 236.816 136.017 237.552 136.15C238.939 136.398 240.273 136.806 241.61 137.146Z" fill="black"/>
<path opacity="0.1" d="M243.322 141.058C242.941 140.802 241.847 140.832 241.378 140.722C240.692 140.558 240.017 140.34 239.343 140.13C237.975 139.684 236.618 139.176 235.211 138.848C234.952 138.791 234.068 138.776 234.11 138.447C234.152 138.119 234.994 138.005 235.204 137.989C236.45 137.898 238.005 138.482 239.164 138.898C240.64 139.427 242.039 140.154 243.322 141.058Z" fill="black"/>
<path opacity="0.1" d="M240.524 133.658C239.126 133.277 237.856 132.407 236.416 132.239C236.04 132.253 235.671 132.14 235.368 131.918C235.198 131.752 235.081 131.54 235.029 131.308C235.993 131.258 237.113 131.666 237.99 132.052C238.472 132.259 238.936 132.507 239.377 132.792C239.697 132.987 240.177 133.548 240.524 133.658Z" fill="black"/>
<path d="M267.187 99.4901C266.951 101.077 267.293 102.695 268.151 104.05C269.009 105.404 270.326 106.404 271.86 106.866C271.673 107.771 270.739 108.271 270.08 108.916C269.15 109.82 268.67 111.175 267.572 111.862C266.349 112.625 264.775 112.327 263.38 112.007C263.253 111.992 263.136 111.931 263.052 111.835C263.023 111.789 263.003 111.739 262.991 111.686C262.53 109.995 262.229 108.191 262.702 106.496C263.083 105.054 263.997 103.825 264.729 102.551C265.461 101.276 265.529 99.9099 267.187 99.4901Z" fill="#3F3D56"/>
<path d="M233.112 77.6093C231.636 77.7168 230.204 78.1536 228.919 78.8877C228.065 79.3761 227.189 80.0325 226.213 79.9142C225.638 79.8493 225.07 79.5326 224.51 79.6852C224.194 79.8127 223.9 79.9877 223.637 80.2042C223.504 80.3105 223.345 80.3804 223.177 80.4071C223.008 80.4339 222.836 80.4166 222.676 80.3568L222.295 85.6381C222.151 87.6453 222.009 89.6945 222.49 91.6521C222.737 92.6519 223.282 93.5601 223.343 94.5751C223.404 95.5902 223.313 96.632 223.385 97.6585C223.454 98.6086 223.664 99.5435 223.717 100.494C223.824 102.287 223.382 104.065 222.955 105.809C222.311 108.381 221.922 111.011 220.668 113.338C220.317 113.983 219.906 114.64 219.906 115.372C219.906 115.464 219.906 115.552 219.929 115.639C219.547 115.849 219.193 116.048 218.869 116.254C218.145 116.723 217.371 117.246 217.074 118.059C216.834 118.719 216.944 119.474 216.655 120.112C216.365 120.749 215.702 121.203 215.557 121.89C215.454 122.39 215.652 122.916 215.557 123.416C215.471 123.675 215.401 123.939 215.348 124.206C215.309 124.779 215.793 125.24 216.274 125.553C216.974 126.015 217.747 126.356 218.56 126.561L220.836 117.517C222.91 113.676 224.636 109.657 225.992 105.508C226.38 104.152 226.879 102.829 227.482 101.555C227.914 100.833 228.296 100.084 228.626 99.3108C228.973 98.3491 229.007 97.3074 229.175 96.2923C229.374 95.1076 229.673 93.9421 230.07 92.8084C230.482 91.5834 230.958 90.3623 231.042 89.0763C231.168 87.237 230.501 85.2947 231.21 83.5928C231.511 82.9558 231.902 82.3658 232.372 81.8412C233.355 80.6354 234.251 79.3723 235.234 78.1665C234.724 77.6208 233.874 77.5635 233.112 77.6093Z" fill="#3F3D56"/>
<g opacity="0.1">
<path opacity="0.1" d="M243.851 56.5032L243.375 56.5375L243.322 56.5757C243.5 56.5684 243.678 56.5441 243.851 56.5032Z" fill="black"/>
<path opacity="0.1" d="M252.571 64.4251C252.492 65.1838 252.328 65.9312 252.084 66.6536C251.926 67.0921 251.799 67.5409 251.703 67.9969C251.626 68.4395 251.619 68.8898 251.55 69.3324C251.466 69.9064 251.267 70.4577 250.967 70.9538C250.666 71.4499 250.27 71.8808 249.801 72.2211C249.667 72.3302 249.501 72.3908 249.328 72.3929C249.031 72.3585 248.848 72.0113 248.737 71.6984C248.131 69.9468 248.276 67.8061 247.16 66.4094C246.652 65.846 246.038 65.3883 245.353 65.0624C245.074 64.8821 244.759 64.7637 244.431 64.7151C243.947 64.7412 243.483 64.9112 243.097 65.2036C242.292 65.7438 241.4 66.139 240.46 66.3713C239.99 66.4826 239.502 66.4876 239.031 66.3859C238.559 66.2842 238.116 66.0785 237.735 65.7836C237.209 65.3486 236.824 64.696 236.241 64.3564C235.657 64.0168 235.048 64.0359 234.472 63.8031C234.113 63.6494 233.792 63.4166 233.535 63.1219C233.278 62.8273 233.09 62.4784 232.986 62.1012C232.972 62.0536 232.962 62.0051 232.955 61.9562C232.86 62.3821 232.871 62.825 232.986 63.246C233.09 63.6232 233.278 63.9721 233.535 64.2667C233.792 64.5613 234.113 64.7942 234.472 64.9479C235.048 65.1807 235.696 65.1845 236.241 65.5012C236.786 65.8179 237.209 66.4934 237.735 66.9284C238.116 67.2233 238.559 67.429 239.031 67.5307C239.502 67.6324 239.99 67.6274 240.46 67.5161C241.4 67.2838 242.292 66.8886 243.097 66.3484C243.483 66.056 243.947 65.8859 244.431 65.8599C244.759 65.9085 245.074 66.0269 245.353 66.2072C246.029 66.5394 246.634 67.0009 247.133 67.5657C248.25 68.9623 248.105 71.1031 248.711 72.8546C248.821 73.1713 249.004 73.5148 249.301 73.5491C249.484 73.55 249.662 73.485 249.801 73.3659C250.272 73.0246 250.67 72.5921 250.971 72.0939C251.272 71.5957 251.47 71.0421 251.554 70.4658C251.622 70.0231 251.63 69.5729 251.706 69.1302C251.803 68.6743 251.93 68.2255 252.087 67.787C252.459 66.7593 252.631 65.67 252.594 64.5777C252.587 64.532 252.579 64.4785 252.571 64.4251Z" fill="black"/>
</g>
<path d="M228.458 95.0444L228.199 98.5284C228.161 99.0016 227.258 110.266 220.596 123.431C214.879 134.723 203.754 149.43 182.75 157.695C181.112 158.344 179.411 158.949 177.647 159.512L175.681 153.33C180.618 151.774 185.374 149.691 189.866 147.117C200.572 140.928 208.895 132.094 214.7 120.726C217.779 114.673 219.974 108.209 221.217 101.532H197.321V95.0444H228.458Z" fill="#FFD361"/>
<path opacity="0.1" d="M180.178 157.699C201.178 149.434 212.306 134.731 218.019 123.439C224.681 110.274 225.588 99.0169 225.623 98.5361L225.882 95.0521H228.549L228.29 98.5361C228.256 99.0093 227.349 110.274 220.687 123.439C214.97 134.731 203.845 149.434 182.846 157.699C181.207 158.348 179.505 158.954 177.739 159.519L177.48 158.706C178.399 158.378 179.299 158.042 180.178 157.699Z" fill="white"/>
<path d="M138.133 153.33L136.166 159.512C134.4 158.947 132.698 158.34 131.059 157.691C110.06 149.426 98.931 134.723 93.218 123.431C86.556 110.266 85.649 99.0092 85.6147 98.5284L85.3555 95.0444H116.478V101.532H92.5777C93.827 108.21 96.0282 114.674 99.1139 120.726C104.918 132.094 113.238 140.928 123.944 147.113C128.437 149.69 133.194 151.774 138.133 153.33Z" fill="#FFD361"/>
<path opacity="0.1" d="M133.628 157.699C112.628 149.434 101.5 134.731 95.7868 123.439C89.1248 110.274 88.2177 99.0169 88.1834 98.5361L87.9243 95.0521H85.2564L85.5156 98.5361C85.5499 99.0093 86.457 110.274 93.1189 123.439C98.8357 134.731 109.961 149.434 130.96 157.699C132.599 158.348 134.301 158.954 136.067 159.519L136.326 158.706C135.409 158.378 134.51 158.042 133.628 157.699Z" fill="white"/>
<path d="M192.858 213.088V248.069H120.952V213.088L123.239 210.035C146.54 201.754 151.262 180.16 152.204 171.616C152.344 170.435 152.424 169.248 152.444 168.059H161.335C161.355 169.248 161.435 170.435 161.575 171.616C162.532 180.16 167.254 201.762 190.541 210.035L192.858 213.088Z" fill="#FFD361"/>
<path opacity="0.1" d="M192.858 213.088H120.952V217.476H192.858V213.088Z" fill="black"/>
<path opacity="0.1" d="M127.05 210.035C150.352 201.754 155.074 180.16 156.015 171.616C156.155 170.435 156.235 169.248 156.255 168.059H152.444C152.424 169.248 152.344 170.435 152.204 171.616C151.247 180.16 146.525 201.762 123.239 210.035L120.952 213.088V248.069H124.763V213.088L127.05 210.035Z" fill="white"/>
<path opacity="0.1" d="M110.029 95.0444H116.478V101.532H110.601C110.37 99.3946 110.179 97.2323 110.029 95.0444Z" fill="black"/>
<path opacity="0.1" d="M138.133 153.33L136.166 159.512C134.4 158.947 132.698 158.34 131.059 157.691C128.363 154.395 125.981 150.854 123.944 147.114C128.437 149.69 133.194 151.774 138.133 153.33Z" fill="black"/>
<path opacity="0.1" d="M175.677 153.33C180.614 151.774 185.37 149.691 189.862 147.117C187.824 150.858 185.441 154.4 182.747 157.699C181.108 158.348 179.407 158.953 177.643 159.515L175.677 153.33Z" fill="black"/>
<path opacity="0.1" d="M203.777 95.0444C203.627 97.2323 203.436 99.3946 203.205 101.532H197.332V95.0444H203.777Z" fill="black"/>
<path opacity="0.1" d="M161.591 171.616C158.496 172.216 155.314 172.216 152.219 171.616C152.359 170.435 152.439 169.248 152.459 168.059H161.351C161.371 169.248 161.451 170.435 161.591 171.616Z" fill="black"/>
<path d="M110.791 84.2987C110.955 132.403 131.536 171.303 156.907 171.303C182.278 171.303 202.854 132.403 203.022 84.2987H110.791Z" fill="#FFD361"/>
<path opacity="0.1" d="M118.985 84.2987H110.791C110.955 132.403 131.536 171.303 156.907 171.303C158.28 171.3 159.65 171.184 161.004 170.956C137.55 167.033 119.142 129.785 118.985 84.2987Z" fill="white"/>
<path d="M181.359 226.478H132.45V239.071H181.359V226.478Z" fill="#F86D70"/>
<path opacity="0.1" d="M134.737 228.195H181.359V226.478H132.45V239.071H134.737V228.195Z" fill="white"/>
<path d="M84.7077 130.743C83.8273 130.449 78.6441 126.343 78.2515 124.485C77.859 122.626 80.9918 105.313 80.9918 105.313C80.9918 105.313 80.7021 105.313 80.2295 105.256V104.978L80.8736 82.2343C80.8736 82.2343 83.5148 66.9704 78.5259 67.8595C73.5371 68.7487 76.6661 82.2343 76.6661 82.2343C76.6661 82.2343 76.0982 89.0802 75.698 91.1332C75.3169 93.1136 73.5714 101.181 74.7605 103.688C74.804 103.777 74.8524 103.863 74.9053 103.947C74.9053 103.947 75.1035 112.552 72.9502 113.728C70.8959 114.846 70.0422 120.474 69.9698 120.978L69.8593 120.932C69.2459 120.548 68.7075 120.055 68.27 119.478C68.2243 119.421 68.19 119.36 68.1481 119.299C69.5503 117.719 70.306 115.668 70.2643 113.556C70.2226 111.443 69.3866 109.423 67.9232 107.901C67.2428 107.193 66.4445 106.609 65.5641 106.176C65.5385 105.447 65.3661 104.73 65.0572 104.069C64.0663 101.948 58.5782 99.1734 54.6793 99.1085C52.8804 99.0551 51.4055 99.5665 50.8681 100.975C50.5937 101.688 50.6776 102.501 50.5632 103.241C50.3346 104.768 49.3551 105.962 48.0974 106.912C47.5895 106.345 47.0405 105.815 46.4548 105.329C45.1818 104.352 42.6436 101.131 42.6436 101.131C42.6436 101.131 34.7201 92.9152 34.1332 90.6638C33.5463 88.4124 25.6304 74.8924 23.8697 77.2468C22.1089 79.6013 29.9333 89.8624 29.9333 89.8624C29.9333 89.8624 31.4196 93.5906 32.563 94.8499C33.7063 96.1092 42.4721 108.855 42.4721 108.855L42.8913 109.725C41.0391 110.701 39.3469 111.945 38.7486 113.884C37.872 116.738 39.789 119.608 41.1153 122.279C43.6993 127.492 44.069 134.139 40.7342 138.902C37.7462 143.107 32.563 145.106 27.7113 146.854C30.0544 148.696 32.9653 149.664 35.9435 149.59C34.823 152.841 30.8518 153.917 27.4674 154.52C29.2434 156.23 31.7855 156.852 34.2247 157.23C35.4193 157.433 36.6298 157.529 37.8415 157.516H38.1388L38.436 157.493C38.8491 157.465 39.2602 157.413 39.667 157.336C41.4278 156.978 43.139 156.016 44.0385 154.459C44.8007 153.127 45.0675 151.311 46.451 150.643C46.8112 150.48 47.1994 150.388 47.5943 150.372H47.5524C47.8116 150.372 48.0783 150.372 48.3375 150.372L54.1038 150.43C54.3439 150.43 54.5917 150.43 54.8394 150.43C56.4668 150.391 58.2047 150.109 59.0317 148.762C59.3719 148.108 59.5509 147.382 59.5538 146.644C59.6758 144.816 59.5538 142.935 59.6034 141.092C60.095 144.446 60.6095 149.674 59.3861 151.605C58.3922 153.068 57.1876 154.376 55.8112 155.486C55.4651 155.777 55.1485 156.102 54.8661 156.455C54.6793 156.589 54.5688 156.661 54.5688 156.661L54.4506 157.016C54.0163 157.676 53.7015 158.407 53.5207 159.176C53.4542 159.373 53.4295 159.583 53.4483 159.79C53.5817 160.061 52.4955 161.179 52.8118 161.649C50.0983 164.835 49.5838 169.662 49.5838 169.662L44.6292 177.195C42.0833 183.892 38.2722 184.579 38.2722 184.579C38.2722 184.579 29.3197 178.565 29.0757 178.271C28.8318 177.977 25.4094 176.508 25.4094 176.508C25.0059 175.799 24.3898 175.236 23.6486 174.898C22.4748 174.409 22.3757 172.608 22.3757 172.608C22.2309 168.353 19.7345 168.029 19.7345 168.029C17.7222 167.857 16.1863 168.216 15.0048 168.872L14.6466 168.899C12.9163 169.04 10.8354 169.197 8.54868 169.349C2.1878 169.769 0.67476 173.894 0.67476 173.894C0.67476 173.894 -0.106534 174.775 0.918676 175.729C1.94389 176.683 8.50675 175.729 8.78497 175.707C8.28481 175.761 7.779 175.726 7.29099 175.604C8.32382 175.565 9.74539 175.527 10.9573 175.527H11.2508C11.1745 176.171 11.1376 176.818 11.1403 177.466C11.1403 178.687 14.5132 179.469 14.5132 179.469L24.7843 188.627C24.7843 188.627 31.2405 191.516 35.349 195.672C39.4574 199.827 43.0895 196.24 43.0895 196.24C47.4381 195.164 59.9502 180.019 59.9616 180.003C59.9616 180.446 60.2246 195.176 60.7239 198.133C60.7437 198.283 60.7808 198.43 60.8344 198.572C61.4213 199.843 60.6362 203.315 60.297 204.78C60.0807 206.007 59.9976 207.253 60.0493 208.497C60.0493 208.497 55.3577 226.432 55.7464 228.008C56.1352 229.584 53.2044 236.907 53.2044 236.907V243.013L53.7151 242.986C53.6487 243.084 53.5876 243.186 53.5321 243.291L53.4978 243.356C53.4978 243.356 56.6268 244.039 58.7306 243.845C60.8344 243.65 64.4474 245.466 64.4474 245.466C64.4474 245.466 65.6708 246.046 69.4362 246.291C73.2017 246.535 73.2017 244.627 73.2017 244.627C72.771 242.028 66.8218 241.158 66.6388 241.131C66.1586 240.83 65.7089 240.502 65.3392 240.219L65.263 240.158C65.2879 240.101 65.3096 240.043 65.3278 239.983C65.9643 237.388 62.4427 236.262 62.4427 236.262V235.629C64.7294 234.453 65.183 226.387 65.183 226.387C65.183 226.387 68.613 216.412 69.0932 214.748C69.5735 213.084 69.0932 210.592 69.0932 210.592L69.4362 208.44C69.4362 208.44 70.1718 206.975 70.1718 206.681C70.267 205.936 70.5533 205.229 71.0026 204.628C71.54 203.991 70.4157 202.476 70.4157 202.476L71.3952 199.934V197.145L73.6819 187.025C73.6819 187.025 76.0791 175.237 75.2483 171.379C74.4175 167.521 76.2278 165.56 76.2278 165.56C76.0646 165.646 75.8966 165.722 75.7247 165.789C75.9536 165.259 76.1508 164.716 76.3154 164.163L81.4605 164.801V164.877H83.3166C83.3166 164.877 82.7297 157.627 82.7297 154.703C82.7297 151.78 84.7077 141.29 84.7077 141.29C84.7077 141.29 85.5881 131.037 84.7077 130.743ZM61.8672 122.279C61.8672 122.565 61.8405 122.863 61.8215 123.168L61.7186 123.325L61.528 123.164L61.2956 123.527L61.2269 123.561C60.7239 123.302 60.4647 121.817 60.1026 122.138L60.0531 122.18C59.9731 122.088 59.893 122.062 59.8092 122.138L59.733 122.203C59.733 122.092 59.733 121.978 59.733 121.863C60.4302 122.043 61.1473 122.134 61.8672 122.134C61.871 122.184 61.8672 122.233 61.8672 122.279ZM78.9795 156.043H79.09L78.9071 156.524C78.9299 156.363 78.9528 156.207 78.9795 156.043ZM60.1941 242.578L59.4929 242.402L59.874 242.337L60.2284 242.57L60.2703 242.601L60.1941 242.578ZM67.3591 241.551C67.1267 241.429 66.8904 241.288 66.6617 241.143C66.7379 241.185 67.039 241.341 67.3591 241.551Z" fill="url(#paint1_linear)"/>
<path d="M81.51 148.834L76.8947 160.878H78.0152L73.6742 164.343L81.51 165.319V148.834Z" fill="#F86D70"/>
<path opacity="0.1" d="M81.51 148.834L76.8947 160.878L75.7322 160.565L73.6742 164.343L81.51 165.319V148.834Z" fill="black"/>
<path d="M74.2726 156.539H81.51L84.1664 134.654H74.2726V156.539Z" fill="#F86D70"/>
<path opacity="0.1" d="M74.2726 156.539H81.51L84.1664 134.654H74.2726V156.539Z" fill="black"/>
<path d="M60.1369 139.836L61.6994 139.573L65.2896 138.963C65.2896 138.963 76.0714 136.528 78.2972 136.33C79.6455 136.151 80.9604 135.776 82.1998 135.215C82.7829 134.963 83.1526 134.773 83.1526 134.773L79.269 127.671L73.2435 123.199C73.2435 123.199 69.4323 122.386 67.8202 120.165C67.4604 119.687 67.2262 119.127 67.1389 118.535C67.0517 117.942 67.1143 117.338 67.3209 116.776C68.3042 113.724 61.4479 119.696 61.4479 119.696C61.4479 119.696 61.5127 121.127 61.4479 122.951C61.4479 123.309 61.4136 123.683 61.3869 124.065C61.3869 124.317 61.3526 124.569 61.3259 124.828C61.1583 126.641 60.8152 128.507 60.1369 129.621C58.479 132.346 60.1369 139.836 60.1369 139.836Z" fill="#FFC896"/>
<path opacity="0.1" d="M61.4479 123.103H61.6004C61.8748 123.103 62.0958 122.52 62.3626 122.493C64.5083 122.287 66.4673 121.836 67.8279 120.314C67.469 119.836 67.2354 119.276 67.1482 118.685C67.061 118.094 67.123 117.49 67.3286 116.929C68.3119 113.876 61.4556 119.845 61.4556 119.845C61.4556 119.845 61.528 121.279 61.4479 123.103Z" fill="black"/>
<path d="M53.1014 114.449C53.1009 115.547 53.3166 116.635 53.7363 117.65C54.1559 118.665 54.7713 119.588 55.5471 120.365C56.323 121.141 57.2441 121.757 58.2579 122.178C59.2717 122.598 60.3583 122.814 61.4555 122.813C61.7299 122.813 62.0005 122.813 62.2711 122.775C63.8808 122.617 65.4101 121.995 66.6733 120.983C67.9364 119.972 68.8792 118.615 69.3871 117.077C69.895 115.54 69.9462 113.887 69.5344 112.321C69.1227 110.755 68.2658 109.342 67.0677 108.254C65.8696 107.167 64.3818 106.45 62.7849 106.193C61.1881 105.935 59.5509 106.147 58.072 106.803C56.5932 107.459 55.3363 108.53 54.4539 109.887C53.5716 111.245 53.1017 112.829 53.1014 114.449Z" fill="#FFC896"/>
<path d="M50.5365 101.753C50.2621 102.463 50.346 103.256 50.2354 104.008C49.8276 106.721 47.0722 108.347 44.5796 109.484C42.0871 110.621 39.2745 111.968 38.4817 114.59C37.6128 117.425 39.5108 120.268 40.8294 122.928C43.3982 128.11 43.764 134.719 40.4483 139.459C37.5023 143.656 32.3686 145.648 27.536 147.396C29.8619 149.228 32.7525 150.191 35.711 150.12C34.602 153.353 30.6574 154.425 27.2959 155.02C29.0605 156.722 31.5873 157.34 34.0074 157.714C35.772 157.989 37.5823 158.168 39.3431 157.813C41.1038 157.459 42.7731 156.501 43.6802 154.951C44.4424 153.627 44.7016 151.822 46.0774 151.155C46.6985 150.91 47.3675 150.812 48.0326 150.868L53.7494 150.929C55.5292 150.929 57.6368 150.792 58.5553 149.27C58.8941 148.619 59.0718 147.897 59.0736 147.163C59.3213 143.408 58.601 139.44 60.1445 136.013C60.6095 134.979 57.6253 133.342 57.9379 132.246C59.0126 128.48 59.2832 125.515 59.2718 121.596C59.2718 118.562 61.2422 115.948 62.8695 113.388C64.4969 110.827 65.8575 107.595 64.5731 104.848C63.1249 101.784 52.2478 97.3303 50.5365 101.753Z" fill="#3F3D56"/>
<path d="M58.1475 241.479L59.6034 242.444L59.8282 242.593L59.8701 242.62L61.5966 243.764L65.6289 244.444L69.1733 244.199C69.1733 244.199 70.1947 242.063 68.5901 242.112C68.0762 242.086 67.5754 241.941 67.1266 241.689L66.9056 241.578C66.6731 241.456 66.4406 241.318 66.212 241.173C65.7356 240.872 65.2858 240.544 64.9238 240.265C64.3902 239.853 64.0358 239.54 64.0358 239.54L58.1475 241.479Z" fill="#FFC896"/>
<path opacity="0.1" d="M59.6224 242.444L59.8472 242.593L59.8892 242.62L61.6156 243.764L65.6479 244.444L69.1923 244.2C69.1923 244.2 70.2137 242.063 68.6092 242.112C68.0952 242.086 67.5944 241.941 67.1457 241.689C67.4277 241.91 67.664 242.15 67.6869 242.353C67.7516 242.898 65.0648 243.879 65.0648 243.879L61.2764 242.875C61.2764 242.875 60.6323 242.692 59.752 242.463L59.6681 242.44L59.6224 242.444Z" fill="black"/>
<path d="M53.1434 243.375C53.1434 243.375 56.2495 244.055 58.338 243.86C60.4266 243.665 64.0243 245.466 64.0243 245.466C64.0243 245.466 65.2401 246.039 68.9788 246.283C72.7176 246.527 72.7176 244.627 72.7176 244.627C72.2908 242.044 66.3834 241.193 66.2005 241.154C66.2729 241.193 66.5816 241.349 66.8941 241.559C67.3134 241.834 67.7669 242.192 67.8012 242.482C67.866 243.024 65.1791 244.009 65.1791 244.009L61.3908 243.009C61.3908 243.009 60.7467 242.822 59.8663 242.593H59.7825C58.4771 242.237 57.1507 241.963 55.8112 241.773C54.18 241.597 53.3454 242.986 53.1739 243.299C53.1614 243.323 53.1512 243.349 53.1434 243.375Z" fill="#3F3D56"/>
<path d="M4.18481 174.753L5.83506 176.019C5.83506 176.019 6.31527 175.997 7.03177 175.974H7.26045C8.28566 175.935 9.69961 175.897 10.9001 175.897C11.6762 175.862 12.4538 175.906 13.2212 176.027C14.0444 176.317 15.5079 171.311 15.5079 171.311L13.8538 170.929L13.305 170.799L12.9239 170.708L11.5785 170.391L7.50056 170.856L4.63454 172.703L4.18481 174.753Z" fill="#FFC896"/>
<path opacity="0.1" d="M4.18481 174.753L5.83506 176.019C5.83506 176.019 6.31527 175.997 7.03177 175.974C6.70298 175.847 6.43189 175.604 6.26953 175.291C5.2024 172.326 10.4961 171.059 10.4961 171.059L12.962 170.952L13.4422 170.929H13.8233L13.2745 170.799L12.8934 170.708L11.548 170.391L7.47006 170.856L4.60405 172.703L4.18481 174.753Z" fill="black"/>
<path d="M0.930059 176.092C1.92859 177.015 8.4686 176.092 8.743 176.069C8.24667 176.125 7.7443 176.09 7.26045 175.966C7.0209 175.923 6.79395 175.827 6.59614 175.685C6.39834 175.543 6.23468 175.359 6.11709 175.146C5.04996 172.177 10.3437 170.914 10.3437 170.914L12.8095 170.807L13.2859 170.784L19.2809 170.524L19.5706 168.872C19.5706 168.872 17.6231 169.055 14.5665 169.3C12.8477 169.441 10.7553 169.597 8.49528 169.746C2.18013 170.166 0.678519 174.268 0.678519 174.268C0.678519 174.268 -0.0875297 175.146 0.930059 176.092Z" fill="#3F3D56"/>
<path d="M74.2764 104.466C74.317 104.557 74.3654 104.644 74.4212 104.726L75.8771 106.863L79.6655 107.244L79.7074 105.741L80.3438 83.1196C80.3438 83.1196 82.966 67.9473 78.0114 68.8211C73.0568 69.695 76.1668 83.1196 76.1668 83.1196C76.1668 83.1196 75.6027 89.9273 75.2064 91.9727C74.8214 93.9493 73.0949 101.986 74.2764 104.466Z" fill="#FFC896"/>
<path d="M65.7736 160.653L66.8522 162.5L69.2646 166.632C69.2646 166.632 73.6399 168.239 74.7604 167.014C75.374 166.346 76.0371 164.014 76.5021 162.053C76.8832 160.466 77.1386 159.126 77.1386 159.126L65.7736 160.653Z" fill="#FFC896"/>
<path opacity="0.1" d="M65.7736 160.653L66.8522 162.5C66.9198 162.441 66.9811 162.376 67.0351 162.305C68.2547 160.748 73.6247 161.973 76.5021 162.072C76.8832 160.485 77.1386 159.145 77.1386 159.145L65.7736 160.653Z" fill="black"/>
<path opacity="0.1" d="M10.9002 175.89C11.6762 175.855 12.4538 175.898 13.2212 176.02C14.0444 176.31 15.5079 171.303 15.5079 171.303L13.305 170.784L19.3 170.524L19.5897 168.872C19.5897 168.872 17.6422 169.055 14.5856 169.3C13.954 169.664 13.3905 170.135 12.9201 170.692L12.8286 170.807C11.5519 172.375 11.0793 174.398 10.9002 175.89Z" fill="black"/>
<path opacity="0.1" d="M58.1475 241.479L59.8282 242.593C62.336 242.139 64.6265 241.425 64.8971 240.303C64.8984 240.286 64.8984 240.268 64.8971 240.25C64.3635 239.838 64.0091 239.525 64.0091 239.525L58.1475 241.479Z" fill="black"/>
<path opacity="0.1" d="M53.1776 243.31C55.3922 243.2 57.5987 242.963 59.7862 242.601C58.4797 242.242 57.1521 241.965 55.8111 241.772C54.1838 241.597 53.3491 242.986 53.1776 243.31Z" fill="black"/>
<path d="M11.0831 177.817C11.0831 179.034 14.4332 179.813 14.4332 179.813L24.6357 188.906C24.6357 188.906 31.0461 191.776 35.1241 195.908C39.2021 200.041 42.7998 196.492 42.7998 196.492C47.1217 195.424 59.5691 180.347 59.5691 180.347C59.5691 180.347 59.8587 197.565 60.4418 198.828C61.0249 200.091 60.2475 203.544 59.9083 205.006C59.6943 206.225 59.6125 207.463 59.6643 208.7C59.6643 208.7 55.0033 226.547 55.392 228.104C55.7807 229.661 52.8652 236.957 52.8652 236.957V243.036C52.8652 243.036 64.2797 242.597 64.9085 240.021C65.5374 237.445 62.0463 236.323 62.0463 236.323V235.69C64.333 234.522 64.7637 226.501 64.7637 226.501C64.7637 226.501 68.1671 216.579 68.6511 214.927C69.1351 213.275 68.6511 210.791 68.6511 210.791L68.9903 208.654C68.9903 208.654 69.7183 207.192 69.7183 206.902C69.8134 206.162 70.0983 205.458 70.5453 204.861C71.0789 204.227 69.9622 202.72 69.9622 202.72L70.934 200.19V197.42L73.2207 187.353C73.2207 187.353 75.6027 175.63 74.7757 171.788C73.9487 167.945 75.7476 166.003 75.7476 166.003C71.8487 168.048 69.8821 163.495 69.2381 161.538C69.0742 161.034 68.9941 160.698 68.9941 160.698C68.9941 160.698 63.6394 158.722 58.6544 159.195C57.642 159.277 56.6442 159.489 55.6855 159.825C50.1478 161.82 49.2751 170.086 49.2751 170.086L44.3701 177.576C41.8432 184.239 38.0549 184.918 38.0549 184.918C38.0549 184.918 29.1672 178.939 28.9081 178.645C28.6489 178.351 25.2646 176.893 25.2646 176.893C24.8644 176.188 24.2522 175.627 23.5152 175.291C22.349 174.802 22.2537 173.001 22.2537 173.001C22.1089 168.769 19.6316 168.422 19.6316 168.422C11.0336 167.704 11.0831 176.603 11.0831 177.817Z" fill="#3F3D56"/>
<path d="M60.5295 154.039H65.7737V137.749H60.5295V154.039Z" fill="#F86D70"/>
<path opacity="0.1" d="M60.5295 154.039H65.7737V137.749H60.5295V154.039Z" fill="black"/>
<path opacity="0.1" d="M74.2725 104.432C74.2717 104.443 74.2717 104.455 74.2725 104.466C74.3131 104.557 74.3616 104.644 74.4174 104.726L75.8732 106.863L79.6615 107.244L79.7035 105.741C78.522 105.649 75.8313 105.325 74.2725 104.432Z" fill="black"/>
<path d="M74.4212 104.726C74.4212 104.726 74.6156 113.281 72.4776 114.449C70.3395 115.616 69.5086 121.699 69.5086 121.699C69.5086 121.699 75.9877 125.965 77.4321 127.843C78.8765 129.72 82.1923 134.193 81.5101 135.261C80.8279 136.329 83.1641 141.195 83.1641 141.195C83.1641 141.195 78.888 149.949 79.8598 153.257C80.8317 156.566 80.9269 165.316 80.9269 165.316H82.7754C82.7754 165.316 82.1923 158.119 82.1923 155.199C82.1923 152.28 84.1321 141.874 84.1321 141.874C84.1321 141.874 85.0087 131.663 84.1321 131.373C83.2556 131.083 78.1105 126.996 77.7217 125.145C77.333 123.294 80.4429 106.065 80.4429 106.065C80.4429 106.065 76.4602 105.893 74.4212 104.726Z" fill="#F86D70"/>
<path opacity="0.1" d="M60.4303 136.238C60.6076 137.428 61.0406 138.566 61.6994 139.573L65.2896 138.963C65.2896 138.963 76.0714 136.528 78.2972 136.33C79.6455 136.151 80.9604 135.776 82.1998 135.215C81.3455 132.184 79.6781 129.446 77.3787 127.297L76.0104 126.026C73.9942 124.152 71.6576 122.657 69.1122 121.611C69.2723 121.745 80.5839 131.415 78.1066 133.311C75.6293 135.208 68.9597 130.59 68.9597 130.59L61.3755 124.065L61.1011 123.828L60.6628 124.511C60.8858 124.603 61.1034 124.708 61.3145 124.824C63.8993 126.245 65.8176 128.632 66.6502 131.464C68.2089 136.711 60.4303 136.238 60.4303 136.238Z" fill="black"/>
<path d="M58.0979 160.553C58.0979 160.553 65.2858 164.541 67.0313 162.305C67.4125 161.813 68.2166 161.599 69.219 161.542C69.0551 161.038 68.975 160.702 68.975 160.702C68.975 160.702 63.6203 158.725 58.6353 159.199C58.3075 160.023 58.0979 160.553 58.0979 160.553Z" fill="#444053"/>
<path d="M61.406 123.836L69.2647 130.606C69.2647 130.606 75.9076 135.238 78.4115 133.326C80.9155 131.415 69.4133 121.623 69.4133 121.623C71.9533 122.671 74.2876 124.162 76.3078 126.026L77.676 127.297C81.2738 130.636 82.0855 130.636 82.2075 135.543C82.238 136.753 81.8264 138.489 81.51 138.802C80.3438 139.947 79.5282 148.262 79.7074 149.235C79.8865 150.208 77.535 158.607 78.2972 160.943C79.0595 163.278 68.7692 159.775 67.0275 162.015C65.2858 164.255 58.0979 160.263 58.0979 160.263C58.0979 160.263 62.0806 150.048 63.0525 149.369C64.0243 148.69 65.1905 143.435 63.0525 141.004C60.9144 138.573 60.7238 136.238 60.7238 136.238C60.7238 136.238 68.4987 136.719 66.9399 131.472C66.5014 129.951 65.7406 128.543 64.7093 127.343C63.678 126.143 62.4006 125.18 60.9639 124.519L61.406 123.836Z" fill="#E8E8F0"/>
<path opacity="0.1" d="M71.8944 141.054C71.8944 141.054 68.8797 146.743 64.9809 148.22C64.8551 148.266 64.7332 148.308 64.5998 148.346C60.5294 149.586 72.1993 142.817 71.8944 141.054Z" fill="black"/>
<path d="M29.7351 90.7172C29.7351 90.7172 31.1909 94.4149 32.3572 95.678C33.5234 96.9411 42.1672 109.587 42.1672 109.587L42.8989 111.114L43.5278 112.415L49.0654 111.831L49.4465 109.595L49.2331 109.335C48.6767 108.668 47.1598 106.874 46.1422 106.092C44.8807 105.123 42.3539 101.913 42.3539 101.913C42.3539 101.913 34.4876 93.7395 33.9045 91.5033C33.3214 89.2672 25.4513 75.8578 23.7058 78.1779C21.9602 80.498 29.7351 90.7172 29.7351 90.7172Z" fill="#FFC896"/>
<g opacity="0.1">
<path opacity="0.1" d="M45.803 150.868C45.1383 150.811 44.4693 150.907 43.8479 151.151C42.4758 151.819 42.2167 153.623 41.4544 154.948C40.5626 156.497 38.8628 157.455 37.1135 157.81C36.7658 157.877 36.4146 157.926 36.0616 157.955C37.1758 158.063 38.2996 158.014 39.4002 157.81C41.1496 157.455 42.8493 156.497 43.7412 154.948C44.5034 153.623 44.7626 151.819 46.1346 151.151C46.4948 150.988 46.8831 150.898 47.2779 150.884L45.803 150.868Z" fill="black"/>
<path opacity="0.1" d="M59.3404 121.596C59.3404 118.562 61.3107 115.948 62.9343 113.388C64.5579 110.827 65.9223 107.595 64.6379 104.848C63.5403 102.501 56.924 99.3528 53.1052 99.9748C56.844 100.459 61.4517 102.925 62.3512 104.848C63.6356 107.595 62.2712 110.827 60.6476 113.388C59.024 115.948 57.046 118.562 57.0536 121.596C57.0536 125.511 56.7907 128.465 55.7159 132.246C55.4072 133.334 58.3837 134.979 57.9264 136.009C56.379 139.443 57.1032 143.404 56.8554 147.159C56.8503 147.893 56.6714 148.615 56.3333 149.266C55.5711 150.521 54.0085 150.845 52.4878 150.914H53.8179C55.5939 150.914 57.7015 150.777 58.62 149.254C58.9581 148.603 59.137 147.881 59.1422 147.148C59.3899 143.393 58.6658 139.428 60.2131 135.998C60.6781 134.967 57.6939 133.326 58.0026 132.235C59.0774 128.48 59.348 125.511 59.3404 121.596Z" fill="black"/>
</g>
<path opacity="0.1" d="M42.8988 111.106L43.5277 112.407L49.0653 111.823L49.4465 109.587L49.233 109.328C48.6423 109.618 44.2175 111.751 42.8988 111.106Z" fill="black"/>
<path opacity="0.1" d="M63.3459 125.733C63.3459 125.733 61.9853 123.596 61.2079 124.176C60.4304 124.756 60.1293 122.424 59.6834 122.813C59.2375 123.203 57.9379 124.286 57.3967 122.771C56.9736 121.565 52.3697 113.937 50.5022 110.869C50.022 110.076 49.7209 109.587 49.7209 109.587C49.7209 109.587 44.4767 112.213 43.2152 111.339V113.186L44.2824 113.285L49.9992 123.97C49.9992 123.97 51.798 126.835 51.6761 127.835C51.5541 128.835 53.9818 133.212 54.3706 133.502C54.7593 133.792 58.944 138.657 58.944 138.657C58.944 138.657 61.0821 149.163 59.2337 152.082C57.3852 155.001 54.1838 157.138 54.1838 157.138C54.1838 157.138 53.2196 159.958 53.3606 160.252C53.5016 160.546 52.2401 161.809 52.8232 162.198C53.4064 162.587 54.1838 165.308 54.1838 165.308C54.1838 165.308 56.905 160.931 58.3761 160.252C59.8473 159.573 61.73 150.62 61.73 150.62C61.73 150.62 62.2674 145.347 62.3093 141.943C62.3512 138.539 62.1797 125.733 63.3459 125.733Z" fill="black"/>
<path d="M63.0524 125.733C63.0524 125.733 61.6957 123.596 60.9182 124.176C60.1407 124.756 59.8358 122.424 59.3937 122.813C58.9516 123.203 57.652 124.286 57.107 122.771C56.6801 121.565 52.0762 113.937 50.2126 110.869L49.4313 109.587C49.4313 109.587 44.1871 112.213 42.9218 111.339V113.186L43.9927 113.285L49.7095 123.97C49.7095 123.97 51.5122 126.835 51.3864 127.835C51.2606 128.835 53.6731 133.212 54.0809 133.502C54.4887 133.792 58.6543 138.657 58.6543 138.657C58.6543 138.657 60.7924 149.163 58.9478 152.082C57.9734 153.548 56.788 154.862 55.4301 155.982C54.2894 156.924 53.4866 158.213 53.1434 159.653C53.0772 159.849 53.0538 160.057 53.0748 160.263C53.2158 160.553 51.9543 161.82 52.5374 162.209C53.1205 162.599 53.9056 165.331 53.9056 165.331C53.9056 165.331 56.6268 160.954 58.0979 160.275C59.569 159.596 61.4556 150.643 61.4556 150.643C61.4556 150.643 61.9891 145.37 62.0349 141.966C62.0806 138.562 61.9091 125.733 63.0524 125.733Z" fill="#F86D70"/>
<path opacity="0.1" d="M49.7438 169.99C49.7438 169.99 53.8256 170.753 55.4606 171.933C57.0956 173.112 49.2445 170.086 49.2445 170.086L49.7438 169.99Z" fill="black"/>
<path opacity="0.1" d="M59.5576 180.347C59.5576 180.347 63.8147 183.899 63.0524 187.109C62.2902 190.318 60.3236 198.393 60.3236 198.393L59.5576 180.347Z" fill="black"/>
<path opacity="0.1" d="M22.326 173.516C22.326 173.516 16.3272 174.173 16.716 174.951C17.1047 175.73 22.326 174.234 22.326 174.234V173.516Z" fill="black"/>
<path opacity="0.1" d="M68.3881 203.059C68.3881 203.059 68.7692 203.544 66.5435 203.059C64.3178 202.575 65.9604 201.079 65.9604 201.079L68.3881 203.059Z" fill="black"/>
<path opacity="0.1" d="M67.6259 209.772C67.6259 209.772 64.5769 210.256 62.9419 209.772C61.3069 209.287 67.6259 209.772 67.6259 209.772Z" fill="black"/>
<path opacity="0.1" d="M61.3526 236.033C61.3526 236.033 60.8191 235.449 58.1474 236.518C55.4758 237.586 54.4087 237.636 53.6312 237.281C52.8537 236.926 61.3526 236.033 61.3526 236.033Z" fill="black"/>
<path opacity="0.1" d="M64.3178 172.688L60.5295 177.966C60.5295 177.966 62.5685 173.344 64.3178 172.688Z" fill="black"/>
<path opacity="0.1" d="M56.9545 124.176C56.9545 124.176 56.7907 125.927 54.3477 126.61C51.9047 127.293 51.4398 127.847 51.4398 127.847" fill="black"/>
<path opacity="0.1" d="M50.6051 111.48C50.6051 111.48 47.3808 113.769 44.0155 113.285L50.6051 111.48Z" fill="black"/>
<path opacity="0.1" d="M53.0595 160.504C53.0595 160.504 54.0009 161.095 56.2609 158.508L53.0595 160.504Z" fill="black"/>
<path opacity="0.1" d="M76.5326 133.071C76.624 132.597 76.2963 132.159 75.9876 131.788L75.3549 131.025C75.2313 130.869 75.0921 130.726 74.9395 130.598C74.5584 130.304 74.0706 130.216 73.6742 129.953" fill="black"/>
<path d="M281.163 0.0419576C281.163 0.0419576 249.077 -1.89655 252.85 20.6177C252.85 20.6177 252.087 24.5978 255.7 26.4027C255.7 26.4027 255.758 24.7351 258.993 25.3037C260.145 25.4949 261.316 25.5513 262.481 25.4716C264.054 25.3628 265.55 24.744 266.741 23.7086C266.741 23.7086 275.763 19.9766 279.269 5.21642C279.269 5.21642 281.864 1.99574 281.761 1.16767L276.346 3.48397C276.346 3.48397 278.198 7.39534 276.727 10.6466C276.727 10.6466 276.551 3.62516 275.511 3.7778C275.301 3.81214 272.698 5.13247 272.698 5.13247C272.698 5.13247 275.881 11.944 273.48 16.8971C273.48 16.8971 274.39 8.50197 271.704 5.62473L267.892 7.85326C267.892 7.85326 271.612 14.8899 269.089 20.633C269.089 20.633 269.737 11.8257 267.088 8.39513L263.635 11.093C263.635 11.093 267.13 18.0305 265 22.7928C265 22.7928 264.721 12.5393 262.888 11.7646C262.888 11.7646 259.866 14.4358 259.405 15.5272C259.405 15.5272 261.798 20.5643 260.312 23.2202C260.312 23.2202 259.401 16.3896 258.654 16.3514C258.654 16.3514 255.643 20.8772 255.331 23.9834C255.331 23.9834 255.46 19.3699 257.926 15.924C257.926 15.924 255.014 16.4239 253.315 18.3128C253.315 18.3128 253.783 15.1151 258.669 14.8365C258.669 14.8365 261.158 11.4021 261.821 11.1922C261.821 11.1922 256.966 10.7877 254.02 12.0928C254.02 12.0928 256.611 9.07437 262.713 10.4481L266.124 7.65864C266.124 7.65864 259.729 6.78479 257.015 7.75023C257.015 7.75023 260.137 5.07904 267.042 7.02519L270.755 4.8043C270.755 4.8043 265.301 3.62898 262.054 4.0411C262.054 4.0411 265.484 2.19035 271.845 4.19756L274.512 3.00316C274.512 3.00316 270.518 2.21706 269.348 2.09114C268.178 1.96521 268.117 1.64467 268.117 1.64467C270.648 1.22218 273.246 1.5115 275.622 2.48037C275.622 2.48037 281.262 0.396843 281.163 0.0419576Z" fill="#4DC274"/>
<path d="M241.588 5.76974C241.588 5.76974 227.105 4.89206 228.801 15.0655C228.801 15.0655 228.462 16.8666 230.085 17.6832C230.085 17.6832 230.112 16.92 231.576 17.1833C232.095 17.2709 232.624 17.2965 233.15 17.2596C233.861 17.2112 234.537 16.9311 235.074 16.4621C235.074 16.4621 239.152 14.7793 240.738 8.10893C240.738 8.10893 241.908 6.65123 241.862 6.27726L239.415 7.32284C239.415 7.32284 240.254 9.09345 239.594 10.5626C239.594 10.5626 239.514 7.38771 239.046 7.46403C238.95 7.46403 237.773 8.07458 237.773 8.07458C237.773 8.07458 239.213 11.1541 238.127 13.3941C238.127 13.3941 238.539 9.60098 237.323 8.29973L235.6 9.30715C235.6 9.30715 237.285 12.4859 236.141 15.0807C236.141 15.0807 236.435 11.1007 235.238 9.55137L233.679 10.7839C233.679 10.7839 235.257 13.9207 234.297 16.0691C234.297 16.0691 234.171 11.4365 233.34 11.0892C233.34 11.0892 231.976 12.2951 231.766 12.7911C231.766 12.7911 232.849 15.0807 232.178 16.2637C232.178 16.2637 231.766 13.1765 231.416 13.1651C231.416 13.1651 230.059 15.2105 229.914 16.5995C229.982 15.3032 230.386 14.047 231.088 12.9552C230.303 13.1041 229.578 13.4795 229.003 14.0351C229.003 14.0351 229.216 12.5927 231.423 12.463C231.423 12.463 232.567 10.9137 232.849 10.8183C232.849 10.8183 230.653 10.6351 229.323 11.2266C229.323 11.2266 230.493 9.86046 233.253 10.4634L234.777 9.20411C234.777 9.20411 231.888 8.82252 230.661 9.24609C230.661 9.24609 232.071 8.04024 235.192 8.91792L236.869 7.91431C236.869 7.91431 234.407 7.38008 232.936 7.57469C232.936 7.57469 234.487 6.73518 237.361 7.64338L238.562 7.10533C238.562 7.10533 236.755 6.74663 236.225 6.6932C235.696 6.63978 235.669 6.49096 235.669 6.49096C236.813 6.30039 237.987 6.43252 239.061 6.87255C239.061 6.87255 241.633 5.93001 241.588 5.76974Z" fill="#4DC274"/>
<defs>
<linearGradient id="paint0_linear" x1="251.138" y1="192.68" x2="251.138" y2="39.1634" gradientUnits="userSpaceOnUse">
<stop stop-color="#808080" stop-opacity="0.25"/>
<stop offset="0.54" stop-color="#808080" stop-opacity="0.12"/>
<stop offset="1" stop-color="#808080" stop-opacity="0.1"/>
</linearGradient>
<linearGradient id="paint1_linear" x1="15131.1" y1="95622.5" x2="33955.2" y2="95622.5" gradientUnits="userSpaceOnUse">
<stop stop-color="#808080" stop-opacity="0.25"/>
<stop offset="0.54" stop-color="#808080" stop-opacity="0.12"/>
<stop offset="1" stop-color="#808080" stop-opacity="0.1"/>
</linearGradient>
</defs>
</svg>
