<svg width="340" height="330" viewBox="0 0 340 330" fill="none" xmlns="http://www.w3.org/2000/svg">
<g clip-path="url(#clip0)">
<path opacity="0.1" d="M-88.4539 80.1504C-78.733 102.145 -91.1332 127.471 -105.73 146.543C-110.615 152.938 -116.008 159.642 -116.686 167.664C-117.502 177.476 -110.869 186.495 -103 192.392C-88.6481 203.137 -69.0469 206.46 -51.9655 201.037C-37.2048 196.353 -24.7946 185.772 -9.90444 181.507C14.9955 174.363 41.3895 186.206 62.7139 200.962C77.8082 211.393 93.9733 224.104 112.17 221.869C124.974 220.298 135.84 211.293 143.216 200.693C146.776 195.575 149.874 189.838 155.058 186.386C158.141 184.33 161.761 183.243 165.381 182.465C198.444 175.386 233.533 192.661 266.157 183.777C288.193 177.791 305.763 160.331 316.689 140.242C327.615 120.153 332.714 97.4705 336.962 74.9973C339.98 59.034 342.485 41.7888 335.548 27.1076C328.207 11.5634 311.216 2.14007 294.139 0.37414C277.063 -1.39179 259.937 3.48198 244.205 10.3562C224.549 18.9663 205.281 31.0186 183.827 31.0585C169.216 31.0884 155.282 25.4713 141.313 21.1862C117.957 14.0277 93.6695 10.4709 69.4667 7.18844C46.2948 4.04568 22.8938 1.12242 -0.417557 2.97814C-16.9113 4.29012 -31.4778 10.6056 -47.4835 13.5288C-57.9166 15.4345 -68.3995 14.0277 -78.6383 17.2203C-91.2477 21.1712 -104.216 30.3252 -104.913 44.742C-105.57 58.4654 -93.6082 68.4823 -88.4539 80.1504Z" fill="#F86D70"/>
<path d="M166.746 99.7353C164.62 94.1831 159.137 81.1331 155.526 83.7222C150.964 86.9946 160.088 101.451 160.088 101.451C160.347 104.105 155.217 109.628 152.468 112.381C152.468 112.162 152.468 112.037 152.468 112.037C152.442 112.142 152.402 112.242 152.349 112.336L152.12 112.212C152.058 112.432 151.948 112.635 151.796 112.805C151.796 112.431 151.771 112.212 151.771 112.212C151.243 114.451 142.03 117.29 142.03 117.29C142.03 117.29 141.781 117.29 141.353 117.29C138.793 117.29 132.13 116.711 129.042 111.763C127.446 109.082 125.402 106.694 123.002 104.704C122.18 104.059 121.181 103.679 120.138 103.616C111.607 103.068 104.7 98.7426 103.321 97.8197L103.067 97.6451L103.012 97.8047C102.688 97.3408 102.375 96.8469 102.081 96.3381L101.931 96.0638C103.996 95.0254 105.734 93.4345 106.951 91.4674C108.169 89.5003 108.819 87.2339 108.829 84.9194C108.829 84.8346 108.829 84.7448 108.829 84.66C109.579 83.3607 109.974 81.886 109.974 80.3849V78.8883L111.921 77.1523C112.813 76.3591 113.734 75.5211 114.187 74.4286C114.369 73.9865 114.451 73.5094 114.426 73.0318C114.47 72.6227 114.409 72.2091 114.248 71.8303C114.088 71.4514 113.834 71.1198 113.51 70.8668C112.016 69.8342 109.526 70.8668 108.445 69.4301C107.947 68.7816 108.037 67.8986 107.793 67.1354C107.295 65.584 105.502 64.7459 103.844 64.7209C102.185 64.696 100.597 65.2996 99.0031 65.7536C95.655 66.7057 92.1609 67.0337 88.6945 66.7213C87.7569 66.5542 86.7944 66.5882 85.8708 66.8211C85.3067 67.0547 84.8054 67.418 84.4075 67.8816C84.0095 68.3453 83.726 68.8962 83.5801 69.49C83.4569 69.9361 83.3834 70.3945 83.3609 70.8568C81.9716 72.4265 81.2029 74.4508 81.1996 76.5487V80.3849C81.2026 82.4328 81.9355 84.4123 83.2663 85.967C83.4234 87.772 83.9712 89.5211 84.8717 91.0925C85.7721 92.6639 87.0036 94.0198 88.4804 95.0661C88.4804 95.1658 88.4804 95.2673 88.4804 95.3704L88.5451 95.4103C88.4646 96.5995 88.2813 97.7796 87.9973 98.9371V98.6827C87.9973 98.6827 81.0253 102.399 73.5553 102.489H72.7336C71.2601 102.439 69.8271 102.978 68.7496 103.986C66.5385 106.071 62.6641 109.368 60.2836 109.368C59.7856 109.368 47.2161 111.827 45.1345 112.237L41.2451 108.42L41.1256 108.645L40.8965 108.42C40.4712 108.453 40.0486 108.515 39.6316 108.605C37.6396 106.24 33.6556 100.743 32.7343 93.365C32.7343 93.365 41.3347 83.5526 38.1725 74.4086C35.4733 66.6166 28.0382 83.3181 25.9266 88.3515C25.5573 89.2299 25.5114 90.2111 25.7972 91.1201L32.7841 113.678C32.1188 115.426 31.9281 117.32 32.2313 119.166H32.1516L37.2412 125.706C37.2412 125.706 41.0708 127.342 47.0617 127.312C51.4526 127.319 55.804 126.482 59.8802 124.847H61.0605L60.8364 124.932H66.8971L70.7516 136.61C70.6221 137.673 68.7596 152.504 67.2656 155.821C66.8223 156.93 66.6219 158.12 66.6779 159.313C66.7564 161.605 67.1296 163.877 67.7885 166.073L71.1649 165.948L71.0354 166.212C68.1769 172.084 63.4011 182.545 60.5774 192.322L55.6622 202.299L59.3474 247.046H59.4968L59.7807 247.091C60.1791 247.151 60.7766 247.241 61.5635 247.34L61.2747 247.839L53.1523 261.308C53.1523 261.308 47.3605 273.186 60.1741 270.946C60.1741 270.946 64.9101 269.569 66.8423 261.468L75.2684 253.551C75.2684 253.551 75.6619 248.293 73.2764 246.193C73.127 243.764 72.7486 236.67 73.3312 234.964C74.0334 232.899 70.3432 209.148 70.3432 209.148C70.3432 209.148 83.6796 181.437 91.7572 180.749C92.3493 180.707 92.9438 180.785 93.5052 180.978C100.144 183.143 108.186 199.221 110.552 204.225L110.661 204.454V204.499L110.751 204.694V204.748L110.831 204.918V204.963L110.9 205.118V205.153L110.96 205.277V205.327L111.005 205.422V205.462L111.035 205.532V205.572V205.616L111.06 205.676L112.11 236.83L112.215 236.884H112.265L112.175 237.528L111.717 240.746C111.717 240.746 117.509 252.967 117.155 254.514C116.802 256.06 121.015 262.261 126.981 260.54C132.947 258.819 129.396 249.116 129.396 249.116L123.649 237.254L123.395 236.725C123.968 236.373 124.508 235.971 125.009 235.523C125.009 235.523 123.256 222.787 125.009 220.033C126.762 217.28 127.289 204.714 127.289 204.714C127.289 204.714 126.059 196.108 123.953 192.322L115.128 160.77C117.773 163.234 119.829 164.197 121.548 164.132H121.831C122.587 164.146 123.332 163.96 123.993 163.593C124.347 163.393 124.681 163.157 124.989 162.89C125.047 162.839 125.102 162.784 125.153 162.725C127.608 160.66 122.344 152.569 119.361 147.76C116.488 143.12 120.447 130.514 120.746 129.577C121.012 129.381 121.297 129.214 121.597 129.078C122.215 128.813 122.878 128.669 123.55 128.654C126.408 128.753 129.924 130.4 134.276 131.228C137.301 131.743 140.367 131.982 143.435 131.941H143.614C144.834 131.941 145.94 131.916 146.836 131.881C147.654 131.849 148.454 131.632 149.177 131.248C149.796 130.886 150.357 130.432 150.84 129.901L158.479 121.256L158.28 121.351C158.65 120.37 158.65 119.288 158.28 118.308L166.353 104.34C166.76 103.651 167.007 102.88 167.075 102.083C167.143 101.285 167.031 100.483 166.746 99.7353Z" fill="url(#paint0_linear)"/>
<path d="M76.0502 252.369L67.9179 260.176C66.0554 268.157 61.4787 269.509 61.4787 269.509C49.1134 271.714 54.701 260.031 54.701 260.031L62.5445 246.737L63.5106 245.096C63.5106 245.096 69.1031 243.399 72.8281 244.417C73.2985 244.546 73.7329 244.782 74.0981 245.106C76.4337 247.136 76.0502 252.369 76.0502 252.369Z" fill="#444176"/>
<path d="M126.194 259.328C120.432 261.024 116.368 254.918 116.732 253.386C117.095 251.855 111.468 239.828 111.468 239.828L111.906 236.655L112.315 233.717L121.777 234.395L122.668 236.271L128.216 247.969C128.216 247.969 131.956 257.632 126.194 259.328Z" fill="#444176"/>
<path opacity="0.1" d="M74.1878 246.432C73.2963 247.964 66.0704 247.191 62.5495 246.712L63.5156 245.071C63.5156 245.071 69.1081 243.374 72.8332 244.392C73.3035 244.521 73.7379 244.757 74.1031 245.081C74.1529 245.909 74.1878 246.432 74.1878 246.432Z" fill="black"/>
<path opacity="0.1" d="M122.678 236.261C117.832 239.493 112.673 237.049 111.896 236.645L112.305 233.707L121.767 234.385L122.678 236.261Z" fill="black"/>
<path d="M123.993 219.28C122.3 221.994 123.993 234.555 123.993 234.555C118.4 239.648 111.797 235.912 111.797 235.912L110.801 205.197C110.801 205.197 99.7899 179.911 91.9962 180.589C84.2025 181.268 71.3293 208.59 71.3293 208.59C71.3293 208.59 74.885 232.006 74.2077 234.031C73.5304 236.056 74.2077 245.909 74.2077 245.909C73.0224 247.944 60.6571 245.909 60.6571 245.909L57.1014 201.785L61.8224 191.938C64.5365 182.3 69.148 171.984 71.9069 166.197C73.2764 163.319 74.1928 161.563 74.1928 161.563L83.2065 159.682L112.464 153.606L122.977 191.938C125.009 195.669 126.194 204.155 126.194 204.155C126.194 204.155 125.686 216.566 123.993 219.28Z" fill="#565387"/>
<g opacity="0.1">
<path opacity="0.1" d="M114.506 235.912L113.51 205.197C113.51 205.197 102.499 179.911 94.7053 180.589C94.3569 180.623 94.0139 180.7 93.6844 180.819C101.284 183.348 110.801 205.197 110.801 205.197L111.797 235.912C113.875 236.972 116.217 237.4 118.535 237.144C117.13 236.975 115.766 236.557 114.506 235.912Z" fill="black"/>
<path opacity="0.1" d="M63.3462 245.924L59.7905 201.8L64.5315 191.938C67.2456 182.3 71.8571 171.984 74.616 166.197C75.9855 163.319 76.9018 161.563 76.9018 161.563L85.9156 159.682L112.623 154.12L112.479 153.586L83.2065 159.682L74.1927 161.563C74.1927 161.563 73.2764 163.319 71.9069 166.197C69.138 171.984 64.5365 182.32 61.8224 191.938L57.0814 201.78L60.6371 245.904C60.6371 245.904 67.39 247.016 71.3939 246.772C68.6988 246.625 66.0128 246.342 63.3462 245.924Z" fill="black"/>
</g>
<path d="M42.7441 109.233C42.7441 109.233 33.0878 109.732 34.4424 119.924L37.1515 120.263L41.2152 115.853L43.247 112.122V111.274L42.7441 109.233Z" fill="#CED2DF"/>
<path opacity="0.1" d="M42.7441 109.233C42.7441 109.233 33.0878 109.732 34.4424 119.924L37.1515 120.263L41.2152 115.853L43.247 112.122V111.274L42.7441 109.233Z" fill="black"/>
<path d="M150.168 112.965C150.168 112.965 158.136 117.205 156.099 122.129L153.559 123.126L150.173 121.261L149.675 116.851L150.013 113.798L150.168 112.965Z" fill="#CED2DF"/>
<path opacity="0.1" d="M150.168 112.965C150.168 112.965 158.136 117.205 156.099 122.129L153.559 123.126L150.173 121.261L149.675 116.851L150.013 113.798L150.168 112.965Z" fill="black"/>
<path d="M99.008 69.1807H92.2302C86.4297 69.1807 81.7274 73.891 81.7274 79.7014C81.7274 85.5119 86.4297 90.2222 92.2302 90.2222H99.008C104.809 90.2222 109.511 85.5119 109.511 79.7014C109.511 73.891 104.809 69.1807 99.008 69.1807Z" fill="#88455E"/>
<path d="M42.6793 110.675L36.7481 120.153L36.2501 118.467L28.1925 92.1677C27.9169 91.2712 27.9609 90.3066 28.317 89.439C30.3538 84.4804 37.535 67.9884 40.1395 75.6957C43.1872 84.675 34.8856 94.3627 34.8856 94.3627C35.8318 102.225 40.2391 107.921 41.9721 109.897C42.4104 110.411 42.6793 110.675 42.6793 110.675Z" fill="#FFC896"/>
<path d="M148.898 114.746C148.898 114.746 158.215 105.921 157.862 102.359C157.862 102.359 149.052 88.1071 153.459 84.8995C156.945 82.3454 162.239 95.2157 164.291 100.688C164.562 101.417 164.671 102.197 164.61 102.972C164.549 103.748 164.319 104.5 163.937 105.178L152.802 124.927L148.898 114.746Z" fill="#FFC896"/>
<path d="M88.5848 90.1424C88.5848 90.1424 90.2781 101.002 85.3678 105.078C80.4575 109.154 99.4313 109.129 99.4313 109.129L106.209 102.848C106.209 102.848 98.4154 95.5499 100.786 90.1224L88.5848 90.1424Z" fill="#FFC896"/>
<path opacity="0.1" d="M88.2463 102.529C88.2463 102.529 95.532 107.961 102.813 101.85L114.67 126.459L113.993 156.495C113.993 156.495 89.4265 169.22 79.2624 161.418C69.0982 153.616 77.5692 149.541 77.5692 149.541L75.1987 126.464L77.7385 111.528C77.7385 111.528 82.3101 104.4 82.6537 104.4C82.9974 104.4 88.2463 102.529 88.2463 102.529Z" fill="black"/>
<path d="M88.2463 102.19C88.2463 102.19 95.532 107.632 102.818 101.511L114.675 126.12L113.998 156.155C113.998 156.155 89.4316 168.881 79.2674 161.079C69.1032 153.277 77.5742 149.201 77.5742 149.201L75.2037 126.125L77.7435 111.189C77.7435 111.189 82.3151 104.06 82.6588 104.06C83.0024 104.06 88.2463 102.19 88.2463 102.19Z" fill="#EBF1F6"/>
<path opacity="0.1" d="M88.2463 99.6505C88.2463 99.6505 81.339 103.591 73.8391 103.397C73.1356 103.375 72.4347 103.493 71.7773 103.745C71.1198 103.997 70.5189 104.377 70.0095 104.863C67.8731 106.919 64.1331 110.171 61.8174 110.171C61.3194 110.171 46.9073 113.055 46.9073 113.055L43.0976 109.238C43.0976 109.238 37.4204 120.353 34.7113 119.844L39.6266 126.294C39.6266 126.294 48.9441 130.365 61.1401 125.446H68.2565L71.9816 136.984C71.9816 136.984 70.1191 152.599 68.5952 155.991C67.0713 159.383 69.0932 166.003 69.0932 166.003L82.4745 165.504C82.4745 165.504 83.1517 158.884 84.1676 158.021C85.1836 157.158 80.6119 127.985 80.6119 127.985C80.6119 127.985 77.5642 111.523 88.7442 105.587L88.2463 99.6505Z" fill="black"/>
<path opacity="0.1" d="M83.2016 159.702C82.7088 161.715 82.3577 163.761 82.1508 165.823L71.9069 166.212C73.2764 163.334 74.1928 161.578 74.1928 161.578L83.2016 159.702Z" fill="black"/>
<path opacity="0.1" d="M42.6793 110.675L36.7481 120.153L36.2501 118.467C38.4264 116.302 40.9762 111.778 41.9921 109.892C42.4104 110.411 42.6793 110.675 42.6793 110.675Z" fill="black"/>
<path d="M88.2463 99.6505C88.2463 99.6505 80.9954 103.591 73.5005 103.397C72.797 103.375 72.0961 103.493 71.4387 103.745C70.7812 103.997 70.1803 104.377 69.6709 104.863C67.5345 106.919 63.7945 110.171 61.4788 110.171C60.9808 110.171 46.5687 113.055 46.5687 113.055L42.744 109.233C42.744 109.233 37.0668 120.348 34.3577 119.839L39.273 126.289C39.273 126.289 48.5905 130.36 60.7866 125.441H67.903L71.628 136.975C71.628 136.975 69.7655 152.589 68.2416 155.981C66.7177 159.373 68.7396 165.993 68.7396 165.993L82.1209 165.494C82.1209 165.494 82.7981 158.874 83.8141 158.011C84.83 157.148 80.2584 127.975 80.2584 127.975C80.2584 127.975 77.2106 111.513 88.3907 105.577L88.2463 99.6505Z" fill="#F2994A"/>
<path opacity="0.1" d="M102.818 98.6229C102.818 98.6229 109.73 103.901 118.958 104.509C119.968 104.573 120.933 104.947 121.722 105.582C124.049 107.56 126.021 109.922 127.553 112.566C131.278 118.677 140.427 117.998 140.427 117.998C140.427 117.998 149.321 115.2 149.829 113.01C149.829 113.01 150.083 124.982 155.675 122.089L148.32 130.579C147.856 131.116 147.288 131.551 146.65 131.859C146.012 132.167 145.318 132.341 144.61 132.37C141.846 132.48 137.045 132.515 132.992 131.727C126.891 130.539 122.489 127.656 119.272 130.2C119.272 130.2 115.039 143.435 117.917 148.189C120.796 152.943 125.885 160.914 123.51 162.955C121.134 164.995 118.256 164.82 113.515 159.902C108.774 154.983 108.261 146.667 108.261 146.667L109.446 125.286C109.446 125.286 104.874 109.164 100.482 105.941L102.818 98.6229Z" fill="black"/>
<path opacity="0.1" d="M156.348 121.874L148.972 130.4C148.482 130.965 147.876 131.418 147.194 131.727C146.589 132 145.936 132.155 145.272 132.181C142.508 132.295 137.708 132.33 133.654 131.537C127.947 130.425 123.724 127.831 120.566 129.582C120.343 129.705 120.129 129.847 119.929 130.006C119.929 130.006 115.696 143.24 118.574 147.994C121.453 152.748 126.542 160.72 124.167 162.76C123.769 163.11 123.323 163.401 122.842 163.623C120.711 164.586 118.066 163.753 114.172 159.707C109.431 154.784 108.918 146.473 108.918 146.473L110.103 125.092C110.103 125.092 105.532 108.969 101.139 105.746L103.077 98.7875C104.411 99.6954 111.075 103.961 119.311 104.504C120.321 104.568 121.287 104.942 122.075 105.577C124.402 107.555 126.375 109.917 127.907 112.561C131.632 118.672 140.78 117.993 140.78 117.993C142.973 117.292 145.115 116.439 147.189 115.439C148.489 114.801 149.635 114.102 150.177 113.444C150.33 113.272 150.441 113.067 150.501 112.845C150.501 112.845 150.76 124.758 156.348 121.874Z" fill="black"/>
<path d="M156.009 122.044L148.639 130.579C148.233 131.048 147.748 131.44 147.204 131.737C146.508 132.115 145.735 132.329 144.944 132.36C142.18 132.475 137.379 132.51 133.325 131.717C127.822 130.644 123.694 128.19 120.581 129.592C120.226 129.747 119.891 129.946 119.585 130.185C119.585 130.185 115.352 143.42 118.231 148.174C121.109 152.928 126.199 160.899 123.823 162.94C123.516 163.205 123.182 163.437 122.827 163.633C120.636 164.845 117.927 164.132 113.819 159.887C109.078 154.963 108.565 146.652 108.565 146.652L109.75 125.271C109.75 125.271 105.178 109.149 100.786 105.926L102.818 98.6279L103.062 98.7975C104.396 99.7054 111.06 103.971 119.297 104.514C120.306 104.578 121.272 104.952 122.06 105.587C124.387 107.565 126.36 109.927 127.892 112.571C131.617 118.682 140.765 118.003 140.765 118.003C142.958 117.302 145.1 116.449 147.175 115.449C148.713 114.661 149.968 113.798 150.163 113.01C150.163 113.01 150.163 113.164 150.163 113.439C150.312 115.499 151.059 124.593 156.009 122.044Z" fill="#F2994A"/>
<path opacity="0.1" d="M100.935 90.3968H88.4853C88.7591 92.3797 88.8375 94.3848 88.7194 96.383C90.6199 97.7227 92.8487 98.5187 95.1666 98.6857C97.4846 98.8526 99.8041 98.3843 101.876 97.3308C100.681 95.1159 99.9542 92.6017 100.935 90.3968Z" fill="black"/>
<path d="M96.04 98.4533C102.869 98.4533 108.405 92.9076 108.405 86.0668C108.405 79.2259 102.869 73.6803 96.04 73.6803C89.2108 73.6803 83.6747 79.2259 83.6747 86.0668C83.6747 92.9076 89.2108 98.4533 96.04 98.4533Z" fill="#FFC896"/>
<path opacity="0.1" d="M93.4703 83.8619C94.8497 83.6972 96.2292 83.2084 97.5887 83.4827C98.8238 83.7322 99.8746 84.5852 101.11 84.8446C103.49 85.3434 105.701 83.5875 107.499 81.9513L111.383 78.4094C112.245 77.6262 113.131 76.8031 113.574 75.7256C114.018 74.6481 113.863 73.2313 112.917 72.5529C111.498 71.5552 109.053 72.5529 108.027 71.1362C107.564 70.4976 107.633 69.6396 107.394 68.8764C106.896 67.3499 105.183 66.5168 103.58 66.4968C101.976 66.4769 100.442 67.0655 98.9084 67.4945C95.6772 68.4335 92.2987 68.7567 88.9485 68.4474C88.0443 68.2815 87.1149 68.3139 86.2244 68.5421C85.6762 68.7765 85.1906 69.1365 84.8066 69.5931C84.4226 70.0497 84.1508 70.5902 84.0133 71.1711C83.2464 73.8848 84.5561 78.2598 85.8708 80.6892C87.1855 83.1186 90.8458 84.1861 93.4703 83.8619Z" fill="black"/>
<path d="M93.4703 83.5226C94.8497 83.358 96.2292 82.8691 97.5887 83.1435C98.8238 83.3929 99.8746 84.246 101.11 84.5054C103.49 85.0042 105.701 83.2483 107.499 81.612L111.383 78.0702C112.245 77.287 113.131 76.4639 113.574 75.3864C114.018 74.3088 113.863 72.8921 112.917 72.2137C111.498 71.216 109.053 72.2137 108.027 70.7969C107.564 70.1584 107.633 69.3004 107.394 68.5372C106.896 67.0107 105.183 66.1776 103.58 66.1576C101.976 66.1377 100.442 66.7263 98.9084 67.1553C95.6772 68.0943 92.2987 68.4174 88.9485 68.1081C88.0443 67.9423 87.1149 67.9746 86.2244 68.2029C85.6762 68.4373 85.1906 68.7973 84.8066 69.2539C84.4226 69.7105 84.1508 70.251 84.0133 70.8319C83.2464 73.5456 84.5561 77.9205 85.8708 80.3499C87.1855 82.7793 90.8458 83.822 93.4703 83.5226Z" fill="#88455E"/>
<path opacity="0.1" d="M71.9019 137.064C71.9019 137.064 74.6111 137.404 75.9656 139.1C77.3202 140.796 79.6906 141.305 79.6906 141.305" fill="black"/>
<path opacity="0.1" d="M47.5049 114.661C47.5049 114.661 49.716 119.605 48.3515 120.103C46.987 120.602 47.5049 124.174 47.5049 124.174" fill="black"/>
<g opacity="0.1">
<path opacity="0.1" d="M48.2669 112.965C48.2669 112.965 62.664 110.081 63.162 110.081C65.4827 110.081 69.2177 106.829 71.3541 104.774C72.0038 104.15 72.8032 103.705 73.6748 103.482H73.4905C72.787 103.46 72.0862 103.578 71.4287 103.83C70.7712 104.081 70.1703 104.462 69.6609 104.948C67.5245 107.004 63.7845 110.256 61.4688 110.256C61.0654 110.256 51.8525 112.087 48.1125 112.83L48.2669 112.965Z" fill="black"/>
<path opacity="0.1" d="M88.2662 100.364V99.7303C84.8028 101.499 81.0758 102.694 77.2305 103.267C81.0458 102.927 84.7765 101.946 88.2662 100.364Z" fill="black"/>
<path opacity="0.1" d="M70.4627 165.908C70.4627 165.908 68.4309 159.288 69.9647 155.896C71.4986 152.504 73.3511 136.89 73.3511 136.89L69.6361 125.351H62.4997L62.0665 125.521H67.918L71.6281 137.064C71.6281 137.064 69.7655 152.678 68.2417 156.071C66.7178 159.463 68.7397 166.083 68.7397 166.083L82.1209 165.584V165.479L70.4627 165.908Z" fill="black"/>
</g>
<g opacity="0.1">
<path opacity="0.1" d="M123.993 160.226C123.686 160.491 123.352 160.723 122.997 160.919C120.806 162.132 118.096 161.418 113.988 157.173C110.223 153.267 109.127 147.196 108.834 144.896L108.734 146.652C108.734 146.652 109.232 154.968 113.988 159.887C118.096 164.147 120.806 164.845 122.997 163.633C123.352 163.437 123.686 163.205 123.993 162.94C124.705 162.326 124.745 161.174 124.371 159.737C124.279 159.924 124.15 160.09 123.993 160.226Z" fill="black"/>
<path opacity="0.1" d="M153.614 122.298L148.818 127.851C148.413 128.319 147.927 128.711 147.384 129.008C146.688 129.386 145.914 129.6 145.123 129.631C142.359 129.746 137.558 129.781 133.505 128.988C128.002 127.915 123.873 125.461 120.761 126.863C120.405 127.018 120.07 127.217 119.765 127.456C119.765 127.456 117.031 136.007 117.449 141.828C117.773 136.386 119.765 130.17 119.765 130.17C120.07 129.931 120.405 129.732 120.761 129.577C123.878 128.175 128.002 130.629 133.505 131.702C137.558 132.49 142.354 132.455 145.123 132.345C145.914 132.314 146.688 132.1 147.384 131.722C147.926 131.429 148.411 131.042 148.818 130.579L156.193 122.054C155.812 122.292 155.38 122.438 154.932 122.48C154.485 122.523 154.033 122.46 153.614 122.298Z" fill="black"/>
</g>
<path d="M282.083 50.808C282.083 50.7431 282.083 50.6833 282.083 50.6234C282.083 50.5635 282.083 50.4937 282.053 50.4338H281.973C281.973 50.2991 281.973 50.1645 281.973 50.0198C281.774 45.3954 275.389 35.5531 272.83 38.4265C270.589 40.9507 273.97 47.336 275.693 50.2094L275.848 50.4688L275.763 50.4139C275.763 50.4139 268.637 71.7049 267.795 72.533C266.953 73.361 261.087 90.1025 253.353 91.9881C251.824 92.3523 250.554 92.6815 249.489 92.9858L249.573 92.7015C250.071 91.0703 250.684 89.5288 250.933 87.713C251.182 85.8972 250.933 83.6972 250.016 82.8143C249.568 82.3753 249.02 82.3154 248.652 81.617C248.413 81.0045 248.285 80.3541 248.273 79.6964L247.616 71.625L248.074 71.4854C250.843 70.5974 253.527 68.4923 253.841 65.6588C253.745 65.6954 253.647 65.7271 253.547 65.7536C253.584 65.5888 253.612 65.4223 253.632 65.2547C251.306 66.1726 249.15 63.7582 246.909 62.6756C243.219 60.8648 239.001 62.5709 235.191 62.9849C230.873 63.4588 226.775 61.663 222.362 61.9872C219.962 62.1718 217.293 63.8031 217.422 66.1726C217.497 67.4746 218.418 68.577 218.797 69.8242C219.753 72.8422 217.627 75.8703 215.764 78.4443C214.539 80.1354 213.364 82.1957 213.154 84.1811C208.867 79.6915 204.23 74.5034 203.692 72.5529L191.287 51.2619C191.287 51.2619 190.994 51.5762 190.52 52.0401C190.446 51.8107 190.356 51.5413 190.256 51.2719C188.673 46.8271 184.191 36.0569 178.509 38.0324C172.826 40.0078 180.864 51.0474 184.36 55.4473L184.858 56.0559C184.565 56.128 184.257 56.1142 183.972 56.016L197.806 79.7862C197.806 79.7862 200.321 84.3358 202.627 85.5729C202.627 85.5729 219.813 107.278 220.022 111.618C220.231 115.958 227.751 127.536 227.751 127.536C227.751 127.536 230.266 146.348 225.863 149.655H225.918H225.953H226.008H226.058H226.157H226.222H226.287H226.371H226.441H226.541H226.591C226.381 149.86 226.167 150.084 225.948 150.329C222.686 153.95 218.518 161.713 224.215 174.912C232.596 194.367 233.856 201.99 233.856 201.99C233.856 201.99 217.92 202.818 214.783 203.436C212.004 203.985 201.202 204.369 198.732 204.434C197.851 203.407 195.246 201.132 191.731 204.434C187.328 208.57 184.186 222.393 184.186 222.393C184.186 222.393 182.508 233.557 188.17 230.659C188.17 230.659 194.878 221.355 196.76 220.941C197.697 220.737 198.688 219.355 199.445 218.023L199.484 218.048C199.529 218.048 199.713 217.948 200.012 217.828C201.407 217.275 205.246 215.943 208.274 216.606C209.932 216.97 217.044 217.055 224.499 217.035C222.816 221.076 219.798 231.502 219.798 231.502C219.798 231.502 218.538 241.224 222.721 240.825C225.709 240.531 230.291 232.884 232.681 228.519C234.414 227.247 239.379 222.687 243.049 223.031L267.78 213.523C267.78 213.523 273.646 210.216 270.504 199.261C268.014 190.551 260.928 172.722 258.129 165.773L258.044 165.594C257.367 163.913 256.959 162.915 256.959 162.915C255.809 159.742 255.054 156.44 254.713 153.082C254.688 152.818 254.668 152.549 254.648 152.284C254.994 152.139 255.321 151.949 255.619 151.721C255.619 151.721 253.313 128.364 255.619 125.88L255.659 125.835V125.805L255.699 125.755L255.788 125.641L255.898 125.501C256.022 125.336 256.172 125.132 256.341 124.882C257.661 122.947 260.121 118.527 259.414 113.309C259.384 113.083 259.347 112.855 259.304 112.626C259.033 111.211 258.55 109.845 257.87 108.575C257.77 108.046 257.709 107.511 257.686 106.974C257.686 106.669 257.686 106.335 257.686 105.976V105.916C257.686 105.82 257.686 105.723 257.686 105.627V105.557C257.686 105.322 257.725 105.058 257.76 104.839V104.749C257.76 104.659 257.775 104.568 257.805 104.474V104.36C257.805 104.27 257.845 104.18 257.865 104.09V103.995C257.895 103.876 257.925 103.756 257.964 103.636V103.576C257.994 103.477 258.028 103.379 258.064 103.282L258.109 103.167L258.208 102.928L258.258 102.808C258.298 102.718 258.343 102.629 258.388 102.539L258.423 102.464C258.482 102.354 258.545 102.246 258.612 102.14L258.667 102.055L258.831 101.821L258.911 101.716L259.085 101.506L259.165 101.416C259.254 101.322 259.344 101.227 259.444 101.137C262.168 98.6428 274.324 80.2602 274.324 80.2602C274.324 80.2602 277.257 76.1247 277.257 73.4408C277.421 73.381 282.605 56.0709 282.083 50.808ZM249.449 205.327C249.15 202.494 248.851 198.982 248.577 195.35L253.318 202.753C253.318 202.753 252.87 205.008 249.449 205.327Z" fill="url(#paint1_linear)"/>
<path d="M200.017 203.761C200.017 203.761 197.179 199.271 192.916 203.357C188.653 207.442 185.615 221.031 185.615 221.031C185.615 221.031 183.992 232.006 189.47 229.157C189.47 229.157 195.944 220.013 197.786 219.609C199.629 219.205 201.641 214.122 201.641 214.122L200.017 203.761Z" fill="#493545"/>
<path d="M230.44 214.73C230.44 214.73 226.586 212.9 225.37 214.326C224.155 215.753 220.097 229.97 220.097 229.97C220.097 229.97 218.882 239.319 222.935 238.91C226.989 238.501 234.09 223.864 234.09 223.864L230.44 214.73Z" fill="#493545"/>
<path opacity="0.05" d="M230.44 214.73C230.44 214.73 226.586 212.9 225.37 214.326C224.155 215.753 220.097 229.97 220.097 229.97C220.097 229.97 218.882 239.319 222.935 238.91C226.989 238.501 234.09 223.864 234.09 223.864L230.44 214.73Z" fill="black"/>
<path d="M243.826 187.099L252.546 200.713C252.546 200.713 251.939 203.761 246.665 203.152L228.612 214.531C228.612 214.531 227.044 228.384 232.059 227.127C232.87 226.922 238.533 221.031 242.606 221.44L266.545 212.092C266.545 212.092 272.222 208.839 269.179 198.074C266.137 187.309 256.077 162.346 256.077 162.346L240.176 171.256L243.826 187.099Z" fill="#3E3D77"/>
<path opacity="0.05" d="M243.826 187.099L252.546 200.713C252.546 200.713 251.939 203.761 246.665 203.152L228.612 214.531C228.612 214.531 227.044 228.384 232.059 227.127C232.87 226.922 238.533 221.031 242.606 221.44L266.545 212.092C266.545 212.092 272.222 208.839 269.179 198.074C266.137 187.309 256.077 162.346 256.077 162.346L240.176 171.256L243.826 187.099Z" fill="black"/>
<path d="M249.304 207.213C250.52 214.935 243.627 215.544 243.627 215.544C243.627 215.544 212.592 216.152 208.941 215.339C205.291 214.526 200.421 216.761 200.421 216.761C194.131 212.9 199.206 203.352 199.206 203.352C199.206 203.352 212.188 202.948 215.231 202.354C218.274 201.76 233.687 200.917 233.687 200.917C233.687 200.917 232.472 193.4 224.355 174.304C218.842 161.333 222.861 153.701 226.033 150.144C226.842 149.2 227.779 148.374 228.817 147.69L253.766 148.907C253.74 150.167 253.786 151.428 253.906 152.683C254.332 156.992 255.451 161.203 257.218 165.155C255.798 165.155 246.67 173.69 246.67 173.69C246.67 173.69 248.084 199.496 249.304 207.213Z" fill="#3E3D77"/>
<path opacity="0.1" d="M201.028 204.165C201.028 204.165 214.011 203.761 217.054 203.167C220.097 202.573 235.51 201.745 235.51 201.745C235.51 201.745 234.295 194.228 226.177 175.132C220.664 162.162 224.683 154.529 227.855 150.972C228.665 150.028 229.602 149.202 230.639 148.518L253.756 149.645C253.756 149.406 253.756 149.146 253.756 148.922L228.807 147.705C227.769 148.389 226.832 149.215 226.023 150.159C222.866 153.721 218.832 161.348 224.345 174.319C232.482 193.4 233.687 200.917 233.687 200.917C233.687 200.917 218.249 201.73 215.231 202.339C212.213 202.948 199.206 203.337 199.206 203.337C199.206 203.337 194.136 212.89 200.421 216.766C200.421 216.766 200.61 216.676 200.919 216.546C196.74 212.241 201.028 204.165 201.028 204.165Z" fill="black"/>
<path d="M238.144 73.1166H225.57V105.013H238.144V73.1166Z" fill="#493545"/>
<path opacity="0.1" d="M238.144 73.1166H225.57V105.013H238.144V73.1166Z" fill="black"/>
<path d="M245.335 68.4374C245.769 68.5571 246.257 68.5721 246.55 69.1707C246.733 69.6491 246.832 70.1553 246.844 70.6672L247.636 80.5245C247.647 81.1699 247.772 81.8083 248.005 82.4102C248.338 83.0787 248.891 83.1585 249.324 83.5875C250.196 84.4555 250.45 86.6305 250.211 88.4014C249.972 90.1723 249.369 91.6888 248.896 93.2901C248.219 95.5849 247.771 98.1639 246.819 100.099C245.868 102.035 244.14 103.093 243.025 101.466C241.909 99.8401 242.058 96.5576 241.849 93.8688C241.501 89.3792 239.753 85.5081 239.633 80.9885C239.534 77.3319 240.515 73.9198 241.127 70.4527C241.565 68.0732 241.59 65.1849 242.228 63.0448C242.761 65.5889 243.777 68.0084 245.335 68.4374Z" fill="#493545"/>
<path opacity="0.1" d="M245.335 68.4374C245.769 68.5571 246.257 68.5721 246.55 69.1707C246.733 69.6491 246.832 70.1553 246.844 70.6672L247.636 80.5245C247.647 81.1699 247.772 81.8083 248.005 82.4102C248.338 83.0787 248.891 83.1585 249.324 83.5875C250.196 84.4555 250.45 86.6305 250.211 88.4014C249.972 90.1723 249.369 91.6888 248.896 93.2901C248.219 95.5849 247.771 98.1639 246.819 100.099C245.868 102.035 244.14 103.093 243.025 101.466C241.909 99.8401 242.058 96.5576 241.849 93.8688C241.501 89.3792 239.753 85.5081 239.633 80.9885C239.534 77.3319 240.515 73.9198 241.127 70.4527C241.565 68.0732 241.59 65.1849 242.228 63.0448C242.761 65.5889 243.777 68.0084 245.335 68.4374Z" fill="black"/>
<path d="M192.104 54.4247L187.239 58.4903C187.239 58.4903 186.661 57.8119 185.799 56.7144C182.418 52.3894 174.644 41.5393 180.137 39.5988C185.63 37.6583 189.973 48.2389 191.506 52.6088C191.895 53.7163 192.104 54.4247 192.104 54.4247Z" fill="#C77485"/>
<path d="M279.931 53.0029C277.904 56.0509 275.066 53.0029 275.066 53.0029C275.066 53.0029 274.702 52.4592 274.189 51.5812C272.521 48.7527 269.249 42.4822 271.416 39.9979C273.905 37.1594 280.076 46.8471 280.265 51.3916C280.324 51.9504 280.207 52.5136 279.931 53.0029Z" fill="#C77485"/>
<path d="M230.032 85.9171C230.032 85.9171 234.09 98.9222 232.87 102.778C231.65 106.634 241.595 111.124 241.595 111.124H252.955C252.955 111.124 257.013 102.793 255.997 100.354C254.982 97.9145 246.262 96.0887 246.262 96.0887C246.262 96.0887 241.192 96.0887 241.396 82.4751L230.032 85.9171Z" fill="#C77485"/>
<path opacity="0.1" d="M192.104 54.4247L187.239 58.4903C187.239 58.4903 186.661 57.8119 185.799 56.7144C187.567 56.4001 190.311 53.8161 191.512 52.6088C191.895 53.7163 192.104 54.4247 192.104 54.4247Z" fill="black"/>
<path opacity="0.1" d="M279.931 53.0029C277.904 56.0509 275.066 53.0029 275.066 53.0029C275.066 53.0029 274.702 52.4592 274.189 51.5812L274.254 51.3767C275.569 52.3195 279.657 51.5164 280.265 51.3767C280.327 51.9404 280.21 52.5093 279.931 53.0029Z" fill="black"/>
<path opacity="0.1" d="M253.896 152.678C247.621 155.547 227.233 150.439 226.008 150.134C226.817 149.19 227.754 148.364 228.792 147.68L253.741 148.897C253.719 150.159 253.771 151.422 253.896 152.678Z" fill="black"/>
<path d="M232.671 97.0914C232.671 97.0914 227.806 98.7177 220.908 92.4172C220.908 92.4172 205.47 77.1773 204.474 73.5207L192.522 52.5689C192.522 52.5689 187.453 58.0563 185.421 57.2432L198.807 80.6094C198.807 80.6094 201.242 85.099 203.473 86.2963C203.473 86.2963 220.107 107.632 220.306 111.897C220.505 116.162 227.801 127.586 227.801 127.586C227.801 127.586 230.236 146.074 225.973 149.326C225.973 149.326 249.703 155.422 254.772 151.356C254.772 151.356 252.541 128.409 254.772 125.96C254.772 125.96 261.67 117.834 257.003 108.894C257.003 108.894 256.007 104.02 258.627 101.581C261.246 99.1417 273.029 81.0583 273.029 81.0583C273.029 81.0583 275.868 76.9927 275.868 74.3538C275.868 74.3538 281.141 56.4749 280.35 51.8007C280.35 51.8007 275.683 52.7984 274.264 51.8007C274.264 51.8007 267.367 72.7525 266.555 73.5406C265.743 74.3288 260.081 90.8109 252.561 92.6417C245.041 94.4724 243.841 95.2806 243.841 95.2806C243.841 95.2806 258.443 104.425 251.346 108.485C244.25 112.546 232.671 97.0914 232.671 97.0914Z" fill="#4DC274"/>
<path opacity="0.1" d="M241.889 89.0449C241.648 87.131 241.55 85.2018 241.595 83.2732L230.236 86.7253C230.535 87.4833 230.773 88.264 230.948 89.0599C232.248 89.6336 234.001 90.9904 235.51 90.9904C237.792 91.0652 240.035 90.3811 241.889 89.0449Z" fill="black"/>
<path d="M235.306 90.3868C241.131 90.3868 245.853 85.6564 245.853 79.8212C245.853 73.9859 241.131 69.2555 235.306 69.2555C229.48 69.2555 224.758 73.9859 224.758 79.8212C224.758 85.6564 229.48 90.3868 235.306 90.3868Z" fill="#C77485"/>
<path opacity="0.1" d="M222.756 63.5436C220.435 63.7232 217.846 65.3295 217.975 67.6592C218.045 68.9412 218.921 70.0237 219.305 71.2509C220.226 74.2191 218.174 77.1972 216.372 79.7314C214.569 82.2655 212.886 85.6228 214.429 88.3066C214.869 88.9528 215.345 89.574 215.854 90.1673C217.761 92.7464 217.736 96.2284 218.583 99.3262C219.664 103.289 222.22 106.687 225.724 108.821C229.229 110.955 233.417 111.663 237.427 110.8C235.918 108.87 235.165 106.453 235.311 104.005C235.425 102.23 235.998 100.374 235.311 98.7326C234.424 96.6225 231.825 95.7894 230.485 93.9436C229.145 92.0979 229.235 89.5388 229.882 87.3389C230.53 85.1389 231.65 83.0986 232.188 80.8538C232.321 80.1988 232.487 79.5511 232.686 78.9133C233.622 76.2494 236.421 74.703 239.16 74.0395C241.899 73.376 244.778 73.3361 247.452 72.4631C250.126 71.5901 252.726 69.5448 253.034 66.7363C250.783 67.6392 248.697 65.2846 246.526 64.2021C242.95 62.4262 238.871 64.0974 235.186 64.5064C230.988 64.9754 227.004 63.2344 222.756 63.5436Z" fill="black"/>
<path d="M222.552 63.1396C220.231 63.3192 217.642 64.9255 217.771 67.2551C217.841 68.5372 218.717 69.6197 219.101 70.8468C220.022 73.815 217.97 76.7931 216.167 79.3273C214.365 81.8615 212.681 85.2187 214.225 87.9026C214.665 88.5487 215.141 89.1699 215.65 89.7633C217.557 92.3423 217.532 95.8243 218.379 98.9222C219.46 102.885 222.015 106.283 225.52 108.417C229.025 110.551 233.213 111.259 237.223 110.396C235.713 108.466 234.961 106.049 235.106 103.601C235.221 101.825 235.794 99.9698 235.106 98.3285C234.22 96.2184 231.62 95.3853 230.281 93.5396C228.941 91.6938 229.031 89.1347 229.678 86.9348C230.326 84.7349 231.446 82.6946 231.984 80.4497C232.117 79.7948 232.283 79.1471 232.482 78.5092C233.418 75.8453 236.217 74.2989 238.956 73.6354C241.695 72.9719 244.573 72.932 247.248 72.059C249.922 71.1861 252.521 69.1408 252.83 66.3322C250.579 67.2352 248.493 64.8806 246.321 63.7981C242.746 62.0222 238.667 63.6933 234.982 64.1024C230.794 64.5663 226.825 62.8054 222.552 63.1396Z" fill="#493545"/>
<path opacity="0.1" d="M245.754 103.292C245.754 103.292 249.977 107.068 250.808 108.735L245.754 103.292Z" fill="black"/>
<path opacity="0.1" d="M254.892 125.845C254.892 125.845 249.618 125.845 247.183 126.454C244.748 127.062 238.866 126.454 238.866 126.454" fill="black"/>
<g opacity="0.1">
<path opacity="0.1" d="M251.331 108.47C250.877 108.731 250.384 108.919 249.872 109.029C251.195 109.323 252.579 109.124 253.766 108.47C260.868 104.405 246.262 95.2656 246.262 95.2656H243.826C243.826 95.2656 258.433 104.41 251.331 108.47Z" fill="black"/>
<path opacity="0.1" d="M280.384 52.1549C280.384 52.0252 280.355 51.9005 280.335 51.7857C279.501 51.9589 278.658 52.0871 277.81 52.1698C278.666 52.2642 279.53 52.2591 280.384 52.1549Z" fill="black"/>
<path opacity="0.1" d="M228.413 149.311C232.671 146.059 230.241 127.571 230.241 127.571C230.241 127.571 222.94 116.192 222.736 111.927C222.532 107.662 205.904 86.3262 205.904 86.3262C203.673 85.109 201.237 80.6393 201.237 80.6393C201.237 80.6393 187.443 58.0862 185.416 57.2731L198.802 80.6393C198.802 80.6393 201.237 85.1289 203.468 86.3262C203.468 86.3262 220.102 107.662 220.301 111.927C220.5 116.192 227.801 127.586 227.801 127.586C227.801 127.586 230.236 146.074 225.973 149.326C225.973 149.326 240.559 153.072 249.304 152.733C240.54 152.424 228.413 149.311 228.413 149.311Z" fill="black"/>
<path opacity="0.1" d="M232.791 97.251L232.671 97.0964C232.532 97.1375 232.391 97.1692 232.248 97.1912C232.437 97.2161 232.616 97.236 232.791 97.251Z" fill="black"/>
</g>
<g opacity="0.1">
<path opacity="0.1" d="M280.335 51.7608L280.21 51.7857C279.996 58.0264 275.673 72.6876 275.673 72.6876C275.673 75.3265 272.835 79.3922 272.835 79.3922C272.835 79.3922 261.072 97.4755 258.433 99.9149C255.793 102.354 256.809 107.228 256.809 107.228L256.834 107.278C256.754 105.637 256.954 103.093 258.632 101.536C261.266 99.0968 273.034 81.0134 273.034 81.0134C273.034 81.0134 275.873 76.9478 275.873 74.3089C275.873 74.3388 281.146 56.46 280.335 51.7608Z" fill="black"/>
<path opacity="0.1" d="M254.578 124.319C254.882 126.045 254.678 124.219 254.782 125.945C254.782 125.945 259.762 120.093 258.403 112.86C258.811 119.325 254.578 124.319 254.578 124.319Z" fill="black"/>
</g>
<path opacity="0.1" d="M100.955 330C218.581 330 313.935 320.825 313.935 309.507C313.935 298.189 218.581 289.014 100.955 289.014C-16.6701 289.014 -112.024 298.189 -112.024 309.507C-112.024 320.825 -16.6701 330 100.955 330Z" fill="#4DC274"/>
<path d="M18.3969 288.715C18.3969 288.715 11.146 264.047 19.7564 245.894C23.4185 238.302 24.5229 229.724 22.9038 221.45C22.1041 217.528 20.9472 213.687 19.4477 209.976" stroke="#535461" stroke-width="2" stroke-miterlimit="10"/>
<path d="M24.8161 198.513C24.8161 201.536 19.3381 210.301 19.3381 210.301C19.3381 210.301 13.8601 201.536 13.8601 198.513C13.8045 197.76 13.9045 197.004 14.1538 196.292C14.4032 195.58 14.7965 194.927 15.3092 194.374C15.822 193.821 16.4431 193.379 17.1337 193.078C17.8244 192.776 18.5697 192.62 19.3232 192.62C20.0766 192.62 20.8219 192.776 21.5126 193.078C22.2032 193.379 22.8243 193.821 23.3371 194.374C23.8498 194.927 24.2431 195.58 24.4925 196.292C24.7418 197.004 24.8418 197.76 24.7862 198.513H24.8161Z" fill="#4DC274"/>
<path d="M33.8348 215.254C32.1964 217.793 22.8539 222.173 22.8539 222.173C22.8539 222.173 23.0233 211.842 24.6617 209.303C25.0251 208.644 25.5201 208.067 26.1158 207.607C26.7115 207.148 27.3952 206.816 28.1243 206.633C28.8535 206.45 29.6125 206.419 30.3541 206.542C31.0956 206.666 31.804 206.941 32.4349 207.35C33.0659 207.759 33.606 208.294 34.0216 208.922C34.4372 209.549 34.7195 210.256 34.8508 210.997C34.9821 211.739 34.9597 212.499 34.7849 213.232C34.6101 213.964 34.2867 214.652 33.8348 215.254Z" fill="#4DC274"/>
<path d="M33.4415 243.873C30.7473 245.235 20.4935 244.292 20.4935 244.292C20.4935 244.292 25.847 235.458 28.5411 234.096C29.187 233.707 29.9059 233.457 30.6529 233.359C31.3999 233.262 32.1589 233.319 32.8826 233.529C33.6063 233.739 34.279 234.096 34.8588 234.577C35.4386 235.059 35.9129 235.656 36.2521 236.329C36.5913 237.003 36.7882 237.74 36.8304 238.493C36.8725 239.247 36.7591 240.001 36.4972 240.708C36.2353 241.416 35.8305 242.062 35.3082 242.605C34.7858 243.149 34.1571 243.579 33.4614 243.868L33.4415 243.873Z" fill="#4DC274"/>
<path d="M28.2772 265.454C25.8519 267.25 15.5632 268.063 15.5632 268.063C15.5632 268.063 19.348 258.45 21.7783 256.649C22.9478 255.937 24.3409 255.689 25.6835 255.955C27.0261 256.22 28.2209 256.979 29.0328 258.083C29.8447 259.186 30.2148 260.554 30.0703 261.918C29.9259 263.281 29.2773 264.54 28.2522 265.449L28.2772 265.454Z" fill="#4DC274"/>
<path d="M11.3701 222.762C13.5364 224.867 23.6209 227.052 23.6209 227.052C23.6209 227.052 21.1309 217.02 18.9845 214.91C18.4837 214.348 17.8726 213.895 17.1893 213.579C16.506 213.264 15.7652 213.093 15.013 213.077C14.2608 213.061 13.5135 213.2 12.8174 213.486C12.1214 213.772 11.4916 214.199 10.9674 214.739C10.4432 215.28 10.0358 215.923 9.7705 216.628C9.50523 217.333 9.38783 218.086 9.42561 218.839C9.46339 219.591 9.65554 220.328 9.99009 221.003C10.3246 221.678 10.7944 222.277 11.3701 222.762Z" fill="#4DC274"/>
<path d="M5.65801 248.084C8.35218 249.446 18.606 248.503 18.606 248.503C18.606 248.503 13.2724 239.668 10.5782 238.331C9.30084 237.8 7.87009 237.772 6.57326 238.254C5.27643 238.736 4.2095 239.691 3.58666 240.928C2.96383 242.165 2.83121 243.592 3.21541 244.923C3.59962 246.254 4.47221 247.39 5.65801 248.104V248.084Z" fill="#4DC274"/>
<path d="M3.4668 273.455C5.89206 275.251 16.1807 276.064 16.1807 276.064C16.1807 276.064 12.3959 266.451 9.9657 264.651C9.39608 264.146 8.7278 263.765 8.00341 263.534C7.27901 263.302 6.51437 263.224 5.75815 263.304C5.00194 263.384 4.27072 263.622 3.61105 264.001C2.95137 264.38 2.37771 264.892 1.92656 265.505C1.4754 266.119 1.15664 266.819 0.990589 267.563C0.824533 268.306 0.814819 269.076 0.962047 269.823C1.10928 270.57 1.41023 271.279 1.84575 271.903C2.28127 272.528 2.84181 273.055 3.4917 273.45L3.4668 273.455Z" fill="#4DC274"/>
<path opacity="0.1" d="M24.8161 198.513C24.8161 201.536 19.3381 210.301 19.3381 210.301C19.3381 210.301 13.8601 201.536 13.8601 198.513C13.8045 197.76 13.9045 197.004 14.1538 196.292C14.4032 195.58 14.7965 194.927 15.3092 194.374C15.822 193.821 16.4431 193.379 17.1337 193.078C17.8244 192.776 18.5697 192.62 19.3232 192.62C20.0766 192.62 20.8219 192.776 21.5126 193.078C22.2032 193.379 22.8243 193.821 23.3371 194.374C23.8498 194.927 24.2431 195.58 24.4925 196.292C24.7418 197.004 24.8418 197.76 24.7862 198.513H24.8161Z" fill="#4DC274"/>
<path opacity="0.1" d="M33.8348 215.254C32.1964 217.793 22.8539 222.173 22.8539 222.173C22.8539 222.173 23.0233 211.842 24.6617 209.303C25.0251 208.644 25.5201 208.067 26.1158 207.607C26.7115 207.148 27.3952 206.816 28.1243 206.633C28.8535 206.45 29.6125 206.419 30.3541 206.542C31.0956 206.666 31.804 206.941 32.4349 207.35C33.0659 207.759 33.606 208.294 34.0216 208.922C34.4372 209.549 34.7195 210.256 34.8508 210.997C34.9821 211.739 34.9597 212.499 34.7849 213.232C34.6101 213.964 34.2867 214.652 33.8348 215.254Z" fill="#4DC274"/>
<path opacity="0.1" d="M33.4415 243.873C30.7473 245.235 20.4935 244.292 20.4935 244.292C20.4935 244.292 25.847 235.458 28.5411 234.096C29.187 233.707 29.9059 233.457 30.6529 233.359C31.3999 233.262 32.1589 233.319 32.8826 233.529C33.6063 233.739 34.279 234.096 34.8588 234.577C35.4386 235.059 35.9129 235.656 36.2521 236.329C36.5913 237.003 36.7882 237.74 36.8304 238.493C36.8725 239.247 36.7591 240.001 36.4972 240.708C36.2353 241.416 35.8305 242.062 35.3082 242.605C34.7858 243.149 34.1571 243.579 33.4614 243.868L33.4415 243.873Z" fill="#4DC274"/>
<path opacity="0.1" d="M28.2772 265.454C25.8519 267.25 15.5632 268.063 15.5632 268.063C15.5632 268.063 19.348 258.45 21.7783 256.649C22.9478 255.937 24.3409 255.689 25.6835 255.955C27.0261 256.22 28.2209 256.979 29.0328 258.083C29.8447 259.186 30.2148 260.554 30.0703 261.918C29.9259 263.281 29.2773 264.54 28.2522 265.449L28.2772 265.454Z" fill="#4DC274"/>
<path opacity="0.1" d="M11.3701 222.762C13.5364 224.867 23.6209 227.052 23.6209 227.052C23.6209 227.052 21.1309 217.02 18.9845 214.91C18.4837 214.348 17.8726 213.895 17.1893 213.579C16.506 213.264 15.7652 213.093 15.013 213.077C14.2608 213.061 13.5135 213.2 12.8174 213.486C12.1214 213.772 11.4916 214.199 10.9674 214.739C10.4432 215.28 10.0358 215.923 9.7705 216.628C9.50523 217.333 9.38783 218.086 9.42561 218.839C9.46339 219.591 9.65554 220.328 9.99009 221.003C10.3246 221.678 10.7944 222.277 11.3701 222.762Z" fill="#4DC274"/>
<path opacity="0.1" d="M5.65801 248.084C8.35218 249.446 18.606 248.503 18.606 248.503C18.606 248.503 13.2724 239.668 10.5782 238.331C9.30084 237.8 7.87009 237.772 6.57326 238.254C5.27643 238.736 4.2095 239.691 3.58666 240.928C2.96383 242.165 2.83121 243.592 3.21541 244.923C3.59962 246.254 4.47221 247.39 5.65801 248.104V248.084Z" fill="#4DC274"/>
<path opacity="0.1" d="M3.4668 273.455C5.89206 275.251 16.1807 276.064 16.1807 276.064C16.1807 276.064 12.3959 266.451 9.9657 264.651C9.39608 264.146 8.7278 263.765 8.00341 263.534C7.27901 263.302 6.51437 263.224 5.75815 263.304C5.00194 263.384 4.27072 263.622 3.61105 264.001C2.95137 264.38 2.37771 264.892 1.92656 265.505C1.4754 266.119 1.15664 266.819 0.990589 267.563C0.824533 268.306 0.814819 269.076 0.962047 269.823C1.10928 270.57 1.41023 271.279 1.84575 271.903C2.28127 272.528 2.84181 273.055 3.4917 273.45L3.4668 273.455Z" fill="#4DC274"/>
<path d="M165.127 289.069C165.127 289.069 157.877 264.401 166.487 246.248C170.149 238.656 171.253 230.079 169.634 221.804C168.835 217.882 167.678 214.041 166.178 210.331" stroke="#535461" stroke-width="2" stroke-miterlimit="10"/>
<path d="M171.537 198.862C171.537 201.885 166.059 210.65 166.059 210.65C166.059 210.65 160.581 201.885 160.581 198.862C160.683 197.481 161.303 196.189 162.316 195.246C163.329 194.304 164.661 193.78 166.044 193.78C167.427 193.78 168.758 194.304 169.772 195.246C170.785 196.189 171.405 197.481 171.507 198.862H171.537Z" fill="#4DC274"/>
<path d="M180.57 215.603C178.932 218.143 169.59 222.523 169.59 222.523C169.59 222.523 169.759 212.191 171.397 209.652C171.761 208.993 172.256 208.416 172.851 207.956C173.447 207.497 174.131 207.166 174.86 206.982C175.589 206.799 176.348 206.768 177.09 206.892C177.831 207.015 178.54 207.29 179.17 207.699C179.801 208.109 180.342 208.644 180.757 209.271C181.173 209.898 181.455 210.605 181.586 211.346C181.718 212.088 181.695 212.848 181.52 213.581C181.346 214.313 181.022 215.002 180.57 215.603Z" fill="#4DC274"/>
<path d="M180.192 244.223C177.498 245.584 167.244 244.642 167.244 244.642C167.244 244.642 172.597 235.807 175.292 234.445C175.938 234.053 176.659 233.799 177.408 233.7C178.157 233.6 178.919 233.657 179.645 233.867C180.372 234.076 181.047 234.434 181.628 234.918C182.209 235.402 182.685 236.001 183.024 236.677C183.363 237.354 183.559 238.094 183.598 238.85C183.638 239.606 183.522 240.362 183.256 241.071C182.99 241.779 182.58 242.425 182.053 242.968C181.526 243.51 180.892 243.937 180.192 244.223Z" fill="#4DC274"/>
<path d="M175.008 265.803C172.583 267.599 162.294 268.412 162.294 268.412C162.294 268.412 166.079 258.799 168.509 256.998C169.678 256.286 171.072 256.039 172.414 256.304C173.757 256.569 174.952 257.329 175.763 258.432C176.575 259.536 176.945 260.904 176.801 262.267C176.657 263.63 176.008 264.89 174.983 265.798L175.008 265.803Z" fill="#4DC274"/>
<path d="M158.111 223.111C160.277 225.216 170.361 227.401 170.361 227.401C170.361 227.401 167.871 217.369 165.725 215.259C165.224 214.697 164.613 214.244 163.93 213.928C163.247 213.613 162.506 213.442 161.754 213.426C161.001 213.41 160.254 213.549 159.558 213.835C158.862 214.122 158.232 214.548 157.708 215.089C157.184 215.629 156.776 216.272 156.511 216.977C156.246 217.683 156.128 218.435 156.166 219.188C156.204 219.94 156.396 220.677 156.731 221.352C157.065 222.027 157.535 222.626 158.111 223.111Z" fill="#4DC274"/>
<path d="M152.389 248.433C155.083 249.795 165.337 248.852 165.337 248.852C165.337 248.852 159.983 240.017 157.289 238.655C156.012 238.124 154.581 238.097 153.284 238.578C151.987 239.06 150.92 240.015 150.297 241.252C149.675 242.489 149.542 243.917 149.926 245.248C150.31 246.579 151.183 247.715 152.369 248.428L152.389 248.433Z" fill="#4DC274"/>
<path d="M150.202 273.804C152.628 275.6 162.916 276.413 162.916 276.413C162.916 276.413 159.132 266.801 156.701 265C155.532 264.288 154.139 264.04 152.796 264.306C151.453 264.571 150.259 265.33 149.447 266.434C148.635 267.537 148.265 268.905 148.409 270.268C148.554 271.632 149.202 272.891 150.227 273.799L150.202 273.804Z" fill="#4DC274"/>
<path opacity="0.1" d="M171.537 198.862C171.537 201.885 166.059 210.65 166.059 210.65C166.059 210.65 160.581 201.885 160.581 198.862C160.683 197.481 161.303 196.189 162.316 195.246C163.329 194.304 164.661 193.78 166.044 193.78C167.427 193.78 168.758 194.304 169.772 195.246C170.785 196.189 171.405 197.481 171.507 198.862H171.537Z" fill="#4DC274"/>
<path opacity="0.1" d="M180.57 215.603C178.932 218.143 169.59 222.523 169.59 222.523C169.59 222.523 169.759 212.191 171.397 209.652C171.761 208.993 172.256 208.416 172.851 207.956C173.447 207.497 174.131 207.166 174.86 206.982C175.589 206.799 176.348 206.768 177.09 206.892C177.831 207.015 178.54 207.29 179.17 207.699C179.801 208.109 180.342 208.644 180.757 209.271C181.173 209.898 181.455 210.605 181.586 211.346C181.718 212.088 181.695 212.848 181.52 213.581C181.346 214.313 181.022 215.002 180.57 215.603Z" fill="#4DC274"/>
<path opacity="0.1" d="M180.192 244.223C177.498 245.584 167.244 244.642 167.244 244.642C167.244 244.642 172.597 235.807 175.292 234.445C175.938 234.053 176.659 233.799 177.408 233.7C178.157 233.6 178.919 233.657 179.645 233.867C180.372 234.076 181.047 234.434 181.628 234.918C182.209 235.402 182.685 236.001 183.024 236.677C183.363 237.354 183.559 238.094 183.598 238.85C183.638 239.606 183.522 240.362 183.256 241.071C182.99 241.779 182.58 242.425 182.053 242.968C181.526 243.51 180.892 243.937 180.192 244.223Z" fill="#4DC274"/>
<path opacity="0.1" d="M175.008 265.803C172.583 267.599 162.294 268.412 162.294 268.412C162.294 268.412 166.079 258.799 168.509 256.998C169.678 256.286 171.072 256.039 172.414 256.304C173.757 256.569 174.952 257.329 175.763 258.432C176.575 259.536 176.945 260.904 176.801 262.267C176.657 263.63 176.008 264.89 174.983 265.798L175.008 265.803Z" fill="#4DC274"/>
<path opacity="0.1" d="M158.111 223.111C160.277 225.216 170.361 227.401 170.361 227.401C170.361 227.401 167.871 217.369 165.725 215.259C165.224 214.697 164.613 214.244 163.93 213.928C163.247 213.613 162.506 213.442 161.754 213.426C161.001 213.41 160.254 213.549 159.558 213.835C158.862 214.122 158.232 214.548 157.708 215.089C157.184 215.629 156.776 216.272 156.511 216.977C156.246 217.683 156.128 218.435 156.166 219.188C156.204 219.94 156.396 220.677 156.731 221.352C157.065 222.027 157.535 222.626 158.111 223.111Z" fill="#4DC274"/>
<path opacity="0.1" d="M152.389 248.433C155.083 249.795 165.337 248.852 165.337 248.852C165.337 248.852 159.983 240.017 157.289 238.655C156.012 238.124 154.581 238.097 153.284 238.578C151.987 239.06 150.92 240.015 150.297 241.252C149.675 242.489 149.542 243.917 149.926 245.248C150.31 246.579 151.183 247.715 152.369 248.428L152.389 248.433Z" fill="#4DC274"/>
<path opacity="0.1" d="M150.202 273.804C152.628 275.6 162.916 276.413 162.916 276.413C162.916 276.413 159.132 266.801 156.701 265C155.532 264.288 154.139 264.04 152.796 264.306C151.453 264.571 150.259 265.33 149.447 266.434C148.635 267.537 148.265 268.905 148.409 270.268C148.554 271.632 149.202 272.891 150.227 273.799L150.202 273.804Z" fill="#4DC274"/>
<path opacity="0.5" d="M200.61 7.63741H197.482C197.779 7.65157 198.075 7.60535 198.353 7.50155C198.63 7.39776 198.884 7.23856 199.099 7.03358C199.314 6.8286 199.484 6.58211 199.601 6.30904C199.718 6.03598 199.778 5.74201 199.778 5.44496C199.778 5.14791 199.718 4.85395 199.601 4.58088C199.484 4.30782 199.314 4.06132 199.099 3.85634C198.884 3.65136 198.63 3.49216 198.353 3.38836C198.075 3.28457 197.779 3.23835 197.482 3.25251H172.124C171.562 3.27939 171.031 3.52212 170.643 3.93033C170.254 4.33855 170.038 4.88093 170.038 5.44496C170.038 6.00898 170.254 6.55136 170.643 6.95958C171.031 7.3678 171.562 7.61053 172.124 7.63741H175.252C174.689 7.66429 174.159 7.90702 173.77 8.31524C173.382 8.72346 173.165 9.26584 173.165 9.82986C173.165 10.3939 173.382 10.9363 173.77 11.3445C174.159 11.7527 174.689 11.9954 175.252 12.0223H170.874C170.578 12.0082 170.282 12.0544 170.004 12.1582C169.726 12.262 169.473 12.4212 169.258 12.6261C169.043 12.8311 168.872 13.0776 168.756 13.3507C168.639 13.6237 168.579 13.9177 168.579 14.2148C168.579 14.5118 168.639 14.8058 168.756 15.0788C168.872 15.3519 169.043 15.5984 169.258 15.8034C169.473 16.0084 169.726 16.1676 170.004 16.2714C170.282 16.3752 170.578 16.4214 170.874 16.4072H196.213C196.509 16.4214 196.805 16.3752 197.083 16.2714C197.36 16.1676 197.614 16.0084 197.829 15.8034C198.044 15.5984 198.215 15.3519 198.331 15.0788C198.448 14.8058 198.508 14.5118 198.508 14.2148C198.508 13.9177 198.448 13.6237 198.331 13.3507C198.215 13.0776 198.044 12.8311 197.829 12.6261C197.614 12.4212 197.36 12.262 197.083 12.1582C196.805 12.0544 196.509 12.0082 196.213 12.0223H200.61C201.172 11.9954 201.703 11.7527 202.091 11.3445C202.48 10.9363 202.697 10.3939 202.697 9.82986C202.697 9.26584 202.48 8.72346 202.091 8.31524C201.703 7.90702 201.172 7.66429 200.61 7.63741Z" fill="#DEE3F3"/>
<path opacity="0.5" d="M54.0885 20.4279H51.708C51.9345 20.4404 52.161 20.4064 52.3739 20.3281C52.5868 20.2499 52.7815 20.129 52.9462 19.9728C53.1108 19.8166 53.242 19.6285 53.3316 19.4198C53.4212 19.2112 53.4675 18.9864 53.4675 18.7593C53.4675 18.5321 53.4212 18.3074 53.3316 18.0987C53.242 17.8901 53.1108 17.7019 52.9462 17.5458C52.7815 17.3896 52.5868 17.2687 52.3739 17.1904C52.161 17.1122 51.9345 17.0782 51.708 17.0906H32.4255C31.9994 17.114 31.5985 17.3 31.3052 17.6103C31.0118 17.9207 30.8483 18.3319 30.8483 18.7593C30.8483 19.1867 31.0118 19.5979 31.3052 19.9082C31.5985 20.2186 31.9994 20.4046 32.4255 20.4279H34.8059C34.5795 20.4155 34.353 20.4495 34.1401 20.5278C33.9272 20.606 33.7325 20.7269 33.5678 20.8831C33.4032 21.0392 33.272 21.2274 33.1824 21.436C33.0927 21.6447 33.0465 21.8695 33.0465 22.0966C33.0465 22.3237 33.0927 22.5485 33.1824 22.7572C33.272 22.9658 33.4032 23.154 33.5678 23.3101C33.7325 23.4663 33.9272 23.5872 34.1401 23.6654C34.353 23.7437 34.5795 23.7777 34.8059 23.7653H31.4743C31.2479 23.7529 31.0213 23.7868 30.8085 23.8651C30.5956 23.9433 30.4009 24.0642 30.2362 24.2204C30.0715 24.3766 29.9404 24.5647 29.8508 24.7734C29.7611 24.982 29.7149 25.2068 29.7149 25.4339C29.7149 25.6611 29.7611 25.8858 29.8508 26.0945C29.9404 26.3031 30.0715 26.4913 30.2362 26.6474C30.4009 26.8036 30.5956 26.9245 30.8085 27.0028C31.0213 27.081 31.2479 27.115 31.4743 27.1026H50.7569C50.9833 27.115 51.2099 27.081 51.4227 27.0028C51.6356 26.9245 51.8303 26.8036 51.995 26.6474C52.1596 26.4913 52.2908 26.3031 52.3804 26.0945C52.4701 25.8858 52.5163 25.6611 52.5163 25.4339C52.5163 25.2068 52.4701 24.982 52.3804 24.7734C52.2908 24.5647 52.1596 24.3766 51.995 24.2204C51.8303 24.0642 51.6356 23.9433 51.4227 23.8651C51.2099 23.7868 50.9833 23.7529 50.7569 23.7653H54.0885C54.5145 23.7419 54.9155 23.5559 55.2088 23.2456C55.5022 22.9352 55.6657 22.524 55.6657 22.0966C55.6657 21.6692 55.5022 21.258 55.2088 20.9476C54.9155 20.6373 54.5145 20.4513 54.0885 20.4279Z" fill="#DEE3F3"/>
<path d="M312.625 260.67C312.625 260.67 316.798 266.157 310.698 274.388C304.597 282.619 299.567 289.608 301.604 294.756C301.604 294.756 310.807 279.426 318.297 279.212C325.787 278.997 320.867 269.883 312.625 260.67Z" fill="#4DC274"/>
<path opacity="0.1" d="M312.625 260.67C312.989 261.198 313.275 261.776 313.477 262.386C320.787 270.986 324.677 279.012 317.655 279.217C311.111 279.407 303.263 291.125 301.38 294.088C301.442 294.316 301.517 294.541 301.604 294.761C301.604 294.761 310.807 279.431 318.297 279.217C325.787 279.002 320.867 269.883 312.625 260.67Z" fill="black"/>
<path d="M320.384 267.634C320.384 269.559 320.17 271.126 319.886 271.126C319.602 271.126 319.388 269.564 319.388 267.634C319.388 265.703 319.657 266.636 319.921 266.636C320.185 266.636 320.384 265.713 320.384 267.634Z" fill="#FFD037"/>
<path d="M323.048 269.933C321.36 270.856 319.891 271.43 319.766 271.175C319.642 270.921 320.902 270.003 322.59 269.085C324.278 268.167 323.611 268.836 323.74 269.085C323.87 269.335 324.731 269.01 323.048 269.933Z" fill="#FFD037"/>
<path d="M290.584 260.67C290.584 260.67 286.41 266.157 292.511 274.388C298.611 282.619 303.641 289.608 301.604 294.756C301.604 294.756 292.401 279.426 284.911 279.212C277.421 278.997 282.342 269.883 290.584 260.67Z" fill="#4DC274"/>
<path opacity="0.1" d="M290.583 260.67C290.22 261.198 289.933 261.776 289.732 262.386C282.421 270.986 278.532 279.012 285.554 279.217C292.097 279.407 299.946 291.125 301.828 294.088C301.766 294.316 301.691 294.541 301.604 294.761C301.604 294.761 292.401 279.431 284.911 279.217C277.421 279.002 282.342 269.883 290.583 260.67Z" fill="black"/>
<path d="M282.825 267.634C282.825 269.559 283.039 271.126 283.323 271.126C283.607 271.126 283.821 269.564 283.821 267.634C283.821 265.703 283.552 266.636 283.288 266.636C283.024 266.636 282.825 265.713 282.825 267.634Z" fill="#FFD037"/>
<path d="M280.16 269.933C281.849 270.856 283.318 271.43 283.442 271.175C283.567 270.921 282.307 270.003 280.619 269.085C278.93 268.167 279.598 268.836 279.468 269.085C279.339 269.335 278.472 269.01 280.16 269.933Z" fill="#FFD037"/>
<path d="M284.154 294.038C284.154 294.038 295.822 293.679 299.338 291.169C302.854 288.66 317.266 285.682 318.158 289.673C319.049 293.664 335.692 309.682 322.52 309.787C309.348 309.891 291.913 307.731 288.402 305.591C284.891 303.451 284.154 294.038 284.154 294.038Z" fill="#A8A8A8"/>
<path opacity="0.2" d="M322.754 308.405C309.582 308.509 292.147 306.349 288.636 304.209C285.962 302.578 284.896 296.727 284.543 294.028H284.154C284.154 294.028 284.891 303.456 288.402 305.596C291.913 307.736 309.348 309.901 322.52 309.792C326.325 309.762 327.635 308.405 327.565 306.399C327.037 307.622 325.608 308.38 322.754 308.405Z" fill="black"/>
</g>
<defs>
<linearGradient id="paint0_linear" x1="96.3288" y1="271.255" x2="96.3288" y2="64.7309" gradientUnits="userSpaceOnUse">
<stop stop-color="#808080" stop-opacity="0.25"/>
<stop offset="0.54" stop-color="#808080" stop-opacity="0.12"/>
<stop offset="1" stop-color="#808080" stop-opacity="0.1"/>
</linearGradient>
<linearGradient id="paint1_linear" x1="90205.1" y1="122270" x2="90205.1" y2="39631.4" gradientUnits="userSpaceOnUse">
<stop stop-color="#808080" stop-opacity="0.25"/>
<stop offset="0.54" stop-color="#808080" stop-opacity="0.12"/>
<stop offset="1" stop-color="#808080" stop-opacity="0.1"/>
</linearGradient>
<clipPath id="clip0">
<rect width="473" height="330" fill="white" transform="translate(-133)"/>
</clipPath>
</defs>
</svg>
