<svg width="382" height="319" viewBox="0 0 382 319" fill="none" xmlns="http://www.w3.org/2000/svg">
<path d="M230.698 189.006L241.205 207.206L251.712 225.406H230.698H209.684L220.191 207.206L230.698 189.006Z" fill="#2D9CDB"/>
<path d="M170.993 153.26H126.928V197.328H170.993V153.26Z" fill="#F2C94C"/>
<path d="M202.578 125.182C218.192 125.182 230.85 112.524 230.85 96.9089C230.85 81.2941 218.192 68.6357 202.578 68.6357C186.965 68.6357 174.307 81.2941 174.307 96.9089C174.307 112.524 186.965 125.182 202.578 125.182Z" fill="#EB5757"/>
<path d="M228.023 144.118C228.023 143.192 228.297 142.287 228.811 141.518C229.326 140.748 230.056 140.148 230.911 139.794C231.766 139.44 232.707 139.347 233.615 139.528C234.523 139.709 235.356 140.154 236.011 140.809C236.665 141.463 237.111 142.297 237.292 143.205C237.472 144.113 237.379 145.053 237.025 145.909C236.671 146.764 236.071 147.495 235.302 148.009C234.532 148.523 233.628 148.797 232.702 148.797C231.461 148.796 230.272 148.303 229.395 147.425C228.518 146.548 228.024 145.358 228.023 144.118ZM228.803 144.118C228.803 144.889 229.031 145.643 229.46 146.284C229.888 146.926 230.497 147.425 231.21 147.721C231.922 148.016 232.706 148.093 233.463 147.943C234.219 147.792 234.914 147.421 235.459 146.875C236.005 146.33 236.376 145.635 236.527 144.879C236.677 144.122 236.6 143.338 236.305 142.625C236.01 141.913 235.51 141.304 234.869 140.875C234.227 140.447 233.473 140.218 232.702 140.218C231.668 140.219 230.677 140.63 229.946 141.361C229.215 142.093 228.804 143.084 228.803 144.118Z" fill="#3F3D56"/>
<path d="M187.735 225.52L180.847 218.135L188.232 211.246L195.12 218.632L187.735 225.52ZM181.945 218.173L187.773 224.422L194.022 218.593L188.194 212.344L181.945 218.173Z" fill="#3F3D56"/>
<path d="M130.849 120.458L125.243 114.448L131.253 108.841L136.859 114.852L130.849 120.458ZM126.136 114.479L130.88 119.565L135.966 114.821L131.222 109.735L126.136 114.479Z" fill="#3F3D56"/>
<path d="M419 318.22H175.672V319H419V318.22Z" fill="#3F3D56"/>
<path d="M209.597 128.692C201.885 128.692 194.346 126.405 187.933 122.12C181.52 117.835 176.522 111.744 173.571 104.618C170.619 97.4922 169.847 89.6511 171.352 82.0863C172.856 74.5216 176.57 67.5729 182.024 62.1189C187.477 56.665 194.426 52.9509 201.99 51.4462C209.554 49.9414 217.395 50.7137 224.52 53.6653C231.646 56.617 237.736 61.6154 242.021 68.0285C246.305 74.4416 248.592 81.9814 248.592 89.6944C248.581 100.034 244.469 109.946 237.158 117.257C229.848 124.568 219.936 128.68 209.597 128.692ZM209.597 51.4768C202.039 51.4768 194.651 53.7182 188.366 57.9176C182.082 62.117 177.184 68.0858 174.291 75.0691C171.399 82.0525 170.642 89.7368 172.117 97.1503C173.591 104.564 177.231 111.373 182.575 116.718C187.92 122.063 194.729 125.703 202.142 127.178C209.555 128.652 217.239 127.895 224.222 125.003C231.205 122.11 237.173 117.212 241.372 110.927C245.571 104.642 247.812 97.2531 247.812 89.6944C247.801 79.562 243.771 69.8478 236.607 62.6831C229.443 55.5184 219.729 51.4882 209.597 51.4768Z" fill="#3F3D56"/>
<path d="M185.591 120.036L175.518 141.002L176.221 141.34L186.294 120.374L185.591 120.036Z" fill="#3F3D56"/>
<path d="M183.267 168.906L182.895 169.592L227.267 193.608L227.638 192.922L183.267 168.906Z" fill="#3F3D56"/>
<path d="M183.471 197.718H126.538V140.781H183.471V197.718ZM127.318 196.938H182.691V141.561H127.318V196.938Z" fill="#3F3D56"/>
<path d="M267.899 225.796H209.009L238.454 174.793L267.899 225.796ZM210.36 225.016H266.548L238.454 176.352L210.36 225.016Z" fill="#3F3D56"/>
<path d="M342.18 141.171C347.564 141.171 351.929 136.806 351.929 131.422C351.929 126.037 347.564 121.672 342.18 121.672C336.796 121.672 332.431 126.037 332.431 131.422C332.431 136.806 336.796 141.171 342.18 141.171Z" fill="#FFC896"/>
<path d="M347.249 136.491C347.249 136.491 348.419 148.191 350.369 150.141C352.319 152.09 336.721 148.971 336.721 148.971C336.721 148.971 339.061 139.221 337.501 137.661C335.941 136.101 347.249 136.491 347.249 136.491Z" fill="#FFC896"/>
<path d="M354.074 156.185C354.074 156.185 358.753 169.444 359.923 177.634C361.093 185.823 361.093 189.333 361.093 189.333C361.093 189.333 366.162 204.932 364.602 212.342C364.602 212.342 370.451 229.891 365.382 229.891C360.313 229.891 358.753 215.461 358.753 215.461L350.954 178.414L354.074 156.185Z" fill="#FFC896"/>
<path d="M356.413 162.425C356.413 162.425 355.243 147.996 350.174 146.826C347.754 146.267 343.823 145.442 340.375 144.732C334.369 143.495 328.174 146.345 325.444 151.836C324.932 152.832 324.592 153.907 324.437 155.015C323.658 161.255 319.758 161.255 323.268 169.444C326.777 177.634 325.997 186.213 325.997 186.213L328.337 206.882C328.337 206.882 318.588 234.18 319.368 252.509L310.399 297.356C310.399 297.356 312.349 302.036 317.808 299.696C317.808 299.696 331.457 276.688 330.287 259.919L344.325 228.721C344.325 228.721 354.074 258.359 356.803 261.089L363.822 303.206C363.822 303.206 370.451 305.156 373.571 303.206C373.571 303.206 374.741 262.649 368.112 256.019C368.112 256.019 361.483 227.941 363.042 220.531C364.602 213.122 364.992 201.812 353.294 191.673C353.294 191.673 354.853 187.383 349.784 185.043L353.684 172.564L356.413 162.425Z" fill="#2F2E41"/>
<path d="M331.956 145.806C331.85 145.79 331.743 145.778 331.633 145.768C328.18 145.456 325.208 148.213 325.054 151.677L324.437 165.545L322.098 180.754L317.028 213.512C317.028 213.512 307.28 225.211 313.909 225.991C320.538 226.771 321.708 213.122 321.708 213.122L330.287 187.383L333.796 163.595C333.796 163.595 337.89 159.501 336.186 150.037C336.012 148.978 335.511 148 334.752 147.241C333.993 146.481 333.015 145.98 331.956 145.806Z" fill="#FFC896"/>
<path d="M309.619 295.796L306.89 309.836C306.89 309.836 300.261 312.955 304.55 316.855C308.839 320.755 314.689 316.075 314.689 316.075L316.248 311.395L315.859 318.415H317.028L318.198 311.395C318.198 311.395 320.538 307.106 318.978 303.596V298.916L309.619 295.796Z" fill="#2F2E41"/>
<path d="M362.847 297.161L361.288 310.031C361.288 310.031 354.658 313.15 358.948 317.05C363.237 320.95 369.087 316.27 369.087 316.27L370.646 311.59L370.256 318.61H371.426L372.596 311.59C372.596 311.59 374.936 307.301 373.376 303.791V299.111L362.847 297.161Z" fill="#2F2E41"/>
<path d="M347.265 116.353H347.265C346.719 116.354 346.173 116.408 345.637 116.515C344.668 116.044 343.605 115.799 342.528 115.798H342.246C336.806 115.798 332.396 120.721 332.396 126.794V126.794H334.219L334.513 124.553L334.945 126.794H336.463C335.991 128.592 335.754 130.444 335.758 132.303V143.495H338.514L340.11 139.348L339.711 143.495H357.425L358.876 139.725L358.513 143.495H360.508V134.707C360.508 124.57 354.579 116.353 347.265 116.353Z" fill="#2F2E41"/>
<path d="M402.257 174.003L401.557 173.793C401.601 173.646 405.899 158.917 398.842 149.435C394.856 144.08 388.017 141.365 378.514 141.365V140.634C388.262 140.634 395.299 143.449 399.43 149.001C406.706 158.78 402.302 173.852 402.257 174.003Z" fill="#3F3D56"/>
<path d="M378.514 150.138C383.561 150.138 387.652 146.046 387.652 140.999C387.652 135.952 383.561 131.861 378.514 131.861C373.467 131.861 369.376 135.952 369.376 140.999C369.376 146.046 373.467 150.138 378.514 150.138Z" fill="#F2F2F2"/>
<path opacity="0.1" d="M306.89 153.927L300.698 181.779L295.671 204.374L291.665 222.395L286.642 244.99L270.227 318.809L66.8228 224.813L51.8714 217.903L32.946 209.156L17.9895 202.245L0 193.931L10.1983 179.092L18.6793 166.754L29.408 151.143L37.8859 138.812L133.292 0L234.359 89.6164L252.357 105.574L266.707 118.299L284.707 134.257L306.89 153.927Z" fill="#860081"/>
</svg>
