<svg width="290" height="267" viewBox="0 0 290 267" fill="none" xmlns="http://www.w3.org/2000/svg">
<g clip-path="url(#clip0)">
<path d="M133.16 146.9C133.109 146.9 133.076 146.899 133.065 146.898L126.864 146.899V145.985H133.087C133.231 145.99 136.171 146.073 138.879 142.788C142.916 137.892 146.23 125.773 139.099 95.8372C129.511 55.5847 137.508 20.0239 141.392 6.60323C141.583 5.93925 141.617 5.2399 141.491 4.56043C141.366 3.88096 141.084 3.24 140.668 2.68817C140.252 2.13634 139.713 1.68877 139.094 1.38083C138.476 1.07289 137.794 0.913018 137.102 0.913839H44.4981C43.7941 0.914783 43.1002 1.08164 42.4727 1.40086C41.8453 1.72009 41.302 2.18269 40.8869 2.75111C39.2418 5.01295 36.9843 9.35814 35.5716 17.215L34.6718 17.0534C36.1151 9.02592 38.4461 4.5529 40.1474 2.21388C40.6474 1.52895 41.3019 0.971528 42.0579 0.586865C42.8138 0.202202 43.6498 0.0011381 44.4981 2.48656e-06H137.102C137.935 -0.000798735 138.757 0.192039 139.503 0.563279C140.248 0.934519 140.897 1.47399 141.399 2.13907C141.9 2.80415 142.24 3.57663 142.391 4.39545C142.542 5.21428 142.501 6.05703 142.27 6.85713C138.407 20.2081 130.451 55.5845 139.989 95.6257C147.22 125.982 143.744 138.365 139.554 143.406C136.791 146.732 133.746 146.9 133.16 146.9Z" fill="#E6E6E6"/>
<path d="M116.475 163.578C116.423 163.578 116.391 163.576 116.379 163.576L110.179 163.576V162.663H116.402C116.547 162.667 119.485 162.751 122.194 159.466C126.23 154.57 129.545 142.45 122.414 112.515C112.826 72.2622 120.823 36.7014 124.706 23.2807C124.897 22.6167 124.932 21.9174 124.806 21.2379C124.681 20.5585 124.399 19.9175 123.983 19.3657C123.567 18.8138 123.028 18.3663 122.409 18.0583C121.79 17.7504 121.108 17.5905 120.417 17.5913H27.8127C27.1087 17.5923 26.4148 17.7591 25.7873 18.0784C25.1599 18.3976 24.6166 18.8602 24.2015 19.4286C22.5565 21.6904 20.2989 26.0356 18.8863 33.8925L17.9864 33.7309C19.4297 25.7034 21.7607 21.2304 23.462 18.8914C23.962 18.2064 24.6166 17.649 25.3725 17.2644C26.1284 16.8797 26.9645 16.6786 27.8127 16.6775H120.417C121.25 16.6767 122.072 16.8695 122.817 17.2408C123.563 17.612 124.212 18.1515 124.713 18.8166C125.215 19.4816 125.554 20.2541 125.705 21.0729C125.857 21.8918 125.815 22.7345 125.584 23.5346C121.721 36.8856 113.765 72.262 123.304 112.303C130.535 142.66 127.058 155.042 122.869 160.084C120.106 163.409 117.061 163.578 116.475 163.578Z" fill="#CCCCCC"/>
<path d="M99.7897 180.255C99.7379 180.255 99.7053 180.254 99.6939 180.253L8.51713 180.254C7.6393 180.255 6.7746 180.041 5.99869 179.631C5.22278 179.22 4.55931 178.626 4.06635 177.9C3.57339 177.174 3.26596 176.338 3.17096 175.466C3.07595 174.594 3.19628 173.712 3.52141 172.897C6.82961 164.635 11.2839 144.815 3.94724 104.889C-4.71609 57.7444 3.03989 40.7061 6.77659 35.5689C7.27659 34.884 7.93114 34.3266 8.6871 33.9419C9.44306 33.5572 10.2791 33.3562 11.1274 33.355H103.731C104.564 33.3542 105.386 33.5471 106.132 33.9183C106.878 34.2896 107.527 34.829 108.028 35.4941C108.529 36.1592 108.869 36.9317 109.02 37.7505C109.171 38.5693 109.13 39.4121 108.899 40.2122C105.036 53.5632 97.08 88.9395 106.618 128.981C113.849 159.337 110.373 171.72 106.184 176.762C103.42 180.087 100.376 180.255 99.7897 180.255ZM11.1274 34.2689C10.4233 34.2698 9.72941 34.4367 9.10195 34.7559C8.47449 35.0751 7.93116 35.5377 7.51609 36.1062C3.84869 41.1481 -3.75294 57.9273 4.84643 104.724C11.8552 142.865 8.45595 163.033 4.37015 173.236C4.09479 173.909 3.99143 174.641 4.0694 175.364C4.14738 176.087 4.40423 176.779 4.81679 177.378C5.22587 177.983 5.77717 178.478 6.42233 178.82C7.06749 179.162 7.78678 179.341 8.51711 179.34H99.7163C99.8603 179.347 102.8 179.429 105.509 176.143C109.545 171.247 112.86 159.128 105.729 129.192C96.1403 88.9398 104.137 53.3789 108.021 39.9583C108.212 39.2943 108.246 38.5949 108.121 37.9155C107.995 37.236 107.713 36.595 107.297 36.0432C106.881 35.4914 106.342 35.0438 105.724 34.7359C105.105 34.4279 104.423 34.2681 103.731 34.2689H11.1274Z" fill="#3F3D56"/>
<path d="M87.9804 74.4777H15.2961C14.3262 74.4777 13.396 74.0926 12.7102 73.4071C12.0244 72.7215 11.6391 71.7918 11.6391 70.8223C11.6391 69.8529 12.0244 68.9231 12.7102 68.2376C13.396 67.5521 14.3262 67.167 15.2961 67.167H87.9804C88.9503 67.167 89.8805 67.5521 90.5664 68.2376C91.2522 68.9231 91.6375 69.8529 91.6375 70.8223C91.6375 71.7918 91.2522 72.7215 90.5664 73.4071C89.8805 74.0926 88.9503 74.4777 87.9804 74.4777Z" fill="#040404"/>
<path d="M87.9804 90.0129H15.2961C14.3262 90.0129 13.396 89.6277 12.7102 88.9422C12.0244 88.2567 11.6391 87.327 11.6391 86.3575C11.6391 85.388 12.0244 84.4583 12.7102 83.7728C13.396 83.0873 14.3262 82.7021 15.2961 82.7021H87.9804C88.9503 82.7021 89.8805 83.0873 90.5664 83.7728C91.2522 84.4583 91.6375 85.388 91.6375 86.3575C91.6375 87.327 91.2522 88.2567 90.5664 88.9422C89.8805 89.6277 88.9503 90.0129 87.9804 90.0129Z" fill="#CCCCCC"/>
<path d="M87.9804 105.548H15.2961C14.3262 105.548 13.396 105.163 12.7102 104.477C12.0244 103.792 11.6391 102.862 11.6391 101.893C11.6391 100.923 12.0244 99.9936 12.7102 99.308C13.396 98.6225 14.3262 98.2374 15.2961 98.2374H87.9804C88.9503 98.2374 89.8805 98.6225 90.5664 99.308C91.2522 99.9936 91.6375 100.923 91.6375 101.893C91.6375 102.862 91.2522 103.792 90.5664 104.477C89.8805 105.163 88.9503 105.548 87.9804 105.548Z" fill="#CCCCCC"/>
<path d="M93.4661 121.083H20.7818C19.8119 121.083 18.8817 120.698 18.1958 120.013C17.51 119.327 17.1247 118.397 17.1247 117.428C17.1247 116.459 17.51 115.529 18.1958 114.843C18.8817 114.158 19.8119 113.773 20.7818 113.773H93.4661C94.436 113.773 95.3662 114.158 96.052 114.843C96.7378 115.529 97.1231 116.459 97.1231 117.428C97.1231 118.397 96.7378 119.327 96.052 120.013C95.3662 120.698 94.436 121.083 93.4661 121.083Z" fill="#CCCCCC"/>
<path d="M93.4661 136.619H20.7818C19.8119 136.619 18.8817 136.233 18.1958 135.548C17.51 134.862 17.1247 133.933 17.1247 132.963C17.1247 131.994 17.51 131.064 18.1958 130.378C18.8817 129.693 19.8119 129.308 20.7818 129.308H93.4661C94.436 129.308 95.3662 129.693 96.052 130.378C96.7378 131.064 97.1231 131.994 97.1231 132.963C97.1231 133.933 96.7378 134.862 96.052 135.548C95.3662 136.233 94.436 136.619 93.4661 136.619Z" fill="#CCCCCC"/>
<path d="M49.5812 58.9424H15.2961C14.3262 58.9424 13.396 58.5573 12.7102 57.8718C12.0244 57.1863 11.6391 56.2565 11.6391 55.2871C11.6391 54.3176 12.0244 53.3878 12.7102 52.7023C13.396 52.0168 14.3262 51.6317 15.2961 51.6317H49.5812C50.5511 51.6317 51.4813 52.0168 52.1671 52.7023C52.853 53.3878 53.2383 54.3176 53.2383 55.2871C53.2383 56.2565 52.853 57.1863 52.1671 57.8718C51.4813 58.5573 50.5511 58.9424 49.5812 58.9424Z" fill="#040404"/>
<path d="M45.1542 161.668C45.892 158.545 49.3588 157.521 52.1932 157.635C53.984 157.756 55.7604 158.037 57.501 158.475C59.3223 158.882 61.1258 159.364 62.9203 159.876C66.2109 160.814 69.4677 161.948 72.8125 162.682C75.5972 163.292 78.6232 163.65 81.4002 162.807C84.0696 161.997 86.3342 160.008 87.0605 157.258C87.7449 154.667 86.8053 151.833 84.293 150.649C82.0019 149.569 79.1079 150.118 77.9724 152.561C76.6921 155.314 77.9713 158.317 79.9986 160.31C81.1509 161.391 82.413 162.35 83.7644 163.169C85.136 164.103 86.6628 164.787 88.2734 165.188C90.918 165.752 94.0682 164.92 95.432 162.395C95.7351 161.823 95.9175 161.195 95.9676 160.55C96.0484 159.672 94.6765 159.678 94.5962 160.55C94.365 163.065 91.4188 164.243 89.2156 163.967C87.7284 163.721 86.3082 163.17 85.0441 162.349C83.8242 161.638 82.6681 160.822 81.589 159.912C79.7203 158.296 77.9686 155.636 79.2237 153.113C80.2456 151.059 82.9096 151.08 84.53 152.404C86.4922 154.009 86.1423 156.92 84.8481 158.825C83.4151 160.934 80.8177 161.818 78.3687 161.914C75.7077 162.017 73.069 161.407 70.5258 160.685C67.3658 159.788 64.2373 158.784 61.0621 157.94C59.2595 157.461 57.4431 157.028 55.608 156.691C53.8728 156.309 52.0905 156.186 50.3191 156.325C47.4575 156.656 44.5364 158.321 43.8318 161.303C43.6291 162.161 44.9511 162.527 45.1542 161.668L45.1542 161.668Z" fill="#3F3D56"/>
<path d="M185.266 239.169C185.344 248.166 186.004 257.149 187.239 266.061C187.283 266.374 187.33 266.687 187.373 267L271.67 266.529C271.917 266.218 272.161 265.904 272.397 265.585C273.184 264.532 273.921 263.449 274.599 262.328C277.853 256.928 279.343 250.607 277.85 246.245L277.823 246.177C277.501 245.222 276.993 244.34 276.329 243.582C272.925 239.751 266.042 240.39 259.795 243.481C265.398 237.352 269.859 229.617 270.198 222.713C270.53 215.979 267.007 211.168 263.186 207.08C263.061 206.945 262.935 206.814 262.81 206.682C262.749 206.615 262.685 206.551 262.624 206.483C259.643 203.368 256.167 200.296 251.137 200.668C245.619 201.076 239.502 205.695 235.213 211.078C230.924 216.457 228.074 222.567 225.185 228.531C222.292 234.491 219.162 240.603 214.521 245.697C220.808 237.748 225.877 228.704 227.749 219.909C229.622 211.113 227.974 202.665 222.371 198.523C220.669 197.304 218.701 196.51 216.63 196.208C216.388 196.168 216.143 196.135 215.893 196.106C210.706 195.516 204.513 197.309 199.244 201.596C193.441 206.315 189.418 213.311 187.416 219.953C185.414 226.594 185.201 232.988 185.266 239.169Z" fill="#4DC274"/>
<path d="M240.417 266.704L242.029 266.695C242.541 266.375 243.055 266.059 243.572 265.746C243.892 265.545 244.215 265.35 244.539 265.152C249.886 261.888 255.266 258.758 260.679 255.76C266.088 252.76 271.524 249.898 276.987 247.174C277.132 247.111 277.25 247 277.321 246.858C277.392 246.717 277.411 246.556 277.375 246.402C277.37 246.382 277.361 246.363 277.349 246.346C277.272 246.203 277.102 246.143 276.853 246.266C276.183 246.601 275.509 246.937 274.839 247.281C269.361 250.051 263.907 252.959 258.476 256.006C253.049 259.052 247.653 262.232 242.287 265.546C242.174 265.615 242.061 265.687 241.949 265.756C241.437 266.072 240.929 266.388 240.417 266.704Z" fill="white"/>
<path d="M219.634 266.82L220.631 266.814C220.855 266.5 221.076 266.185 221.301 265.871C226.583 258.467 231.864 251.064 237.143 243.661C245.79 231.54 254.433 219.42 263.074 207.3C263.125 207.234 263.163 207.16 263.186 207.08C263.26 206.812 263.063 206.654 262.81 206.682C262.704 206.697 262.602 206.735 262.511 206.793C262.42 206.851 262.342 206.927 262.284 207.017C257.436 213.814 252.59 220.609 247.745 227.401C239.144 239.461 230.544 251.519 221.945 263.577C221.398 264.342 220.851 265.111 220.304 265.876C220.079 266.191 219.855 266.505 219.634 266.82Z" fill="white"/>
<path d="M197.428 261.034C197.479 262.713 197.59 264.366 197.735 266.003C197.763 266.316 197.791 266.629 197.82 266.942L198.865 266.936C198.833 266.623 198.802 266.31 198.773 265.997C198.552 263.632 198.396 261.24 198.374 258.784C198.347 251.973 199.011 245.177 200.356 238.5C201.787 231.311 203.841 224.26 206.495 217.427C209.28 210.221 212.639 203.249 216.538 196.578C216.611 196.469 216.644 196.338 216.63 196.208C216.587 195.91 216.19 195.822 215.893 196.106C215.835 196.162 215.784 196.226 215.743 196.296C215.261 197.125 214.787 197.957 214.323 198.791C210.567 205.498 207.353 212.495 204.71 219.713C202.193 226.568 200.278 233.63 198.988 240.817C197.779 247.485 197.256 254.26 197.428 261.034Z" fill="white"/>
<path d="M95.5431 161.992C95.3697 161.848 95.243 161.656 95.1788 161.439C95.1146 161.223 95.1159 160.993 95.1825 160.777C95.2491 160.562 95.378 160.371 95.553 160.229C95.728 160.086 95.9412 159.999 96.1658 159.978C98.6591 159.737 101.175 159.995 103.568 160.736L127.94 168.259C128.256 168.357 128.549 168.515 128.803 168.726C129.057 168.937 129.267 169.195 129.422 169.487C129.576 169.779 129.671 170.098 129.702 170.427C129.732 170.755 129.698 171.087 129.601 171.402C129.503 171.717 129.345 172.01 129.134 172.264C128.923 172.519 128.664 172.729 128.372 172.883C128.08 173.037 127.761 173.132 127.432 173.163C127.104 173.193 126.772 173.159 126.456 173.062L102.084 165.538C99.6901 164.802 97.4665 163.596 95.5431 161.992Z" fill="#3F3D56"/>
<path d="M195.448 193.245C194.786 192.968 194.193 192.549 193.711 192.017C193.228 191.486 192.868 190.855 192.656 190.169C192.444 189.484 192.385 188.76 192.483 188.049C192.581 187.338 192.833 186.658 193.223 186.055L189.046 164.218L199.693 163.388L200.336 184.748C201.305 185.469 201.976 186.521 202.222 187.704C202.468 188.887 202.271 190.119 201.668 191.166C201.066 192.214 200.1 193.004 198.953 193.387C197.807 193.77 196.56 193.72 195.448 193.245Z" fill="#FFC896"/>
<path d="M188.388 181.975L177.544 131.494C177.099 129.421 177.496 127.255 178.647 125.474C179.799 123.693 181.612 122.443 183.686 121.998C185.761 121.553 187.927 121.949 189.709 123.101C191.49 124.252 192.742 126.064 193.187 128.137L204.032 178.618C204.145 179.151 204.043 179.708 203.747 180.165C203.451 180.623 202.985 180.945 202.452 181.06L190.832 183.554C190.567 183.611 190.295 183.615 190.029 183.566C189.763 183.518 189.51 183.417 189.283 183.271C189.056 183.124 188.86 182.934 188.707 182.712C188.553 182.49 188.445 182.239 188.388 181.975Z" fill="#F86D70"/>
<path d="M170.589 261.386H164.985L162.318 239.78L170.59 239.78L170.589 261.386Z" fill="#FFC896"/>
<path d="M160.981 259.786H171.79V266.588H154.176C154.176 265.695 154.352 264.81 154.694 263.985C155.036 263.159 155.537 262.41 156.169 261.778C156.801 261.146 157.551 260.645 158.377 260.303C159.203 259.962 160.088 259.786 160.981 259.786Z" fill="#2F2E41"/>
<path d="M189.331 260.929H183.727L181.061 239.323L189.332 239.323L189.331 260.929Z" fill="#FFC896"/>
<path d="M179.724 259.329H190.532V266.131H172.919C172.919 265.238 173.095 264.353 173.437 263.528C173.779 262.703 174.28 261.953 174.912 261.321C175.544 260.69 176.294 260.188 177.12 259.847C177.945 259.505 178.83 259.329 179.724 259.329Z" fill="#2F2E41"/>
<path d="M163.874 257.356C163.664 257.184 163.49 256.971 163.364 256.731C163.237 256.491 163.159 256.227 163.135 255.957L156.62 184.321C156.595 184.043 156.626 183.763 156.713 183.498C156.8 183.232 156.939 182.987 157.124 182.778C157.308 182.568 157.534 182.398 157.786 182.278C158.038 182.158 158.312 182.091 158.592 182.081L191.267 180.856C191.55 180.845 191.832 180.893 192.095 180.996C192.359 181.1 192.598 181.256 192.798 181.456C192.998 181.656 193.155 181.895 193.259 182.158C193.362 182.422 193.411 182.703 193.4 182.986L190.788 254.346C190.769 254.845 190.569 255.321 190.225 255.684C189.881 256.047 189.417 256.272 188.919 256.318L182.33 256.917C182.057 256.942 181.782 256.912 181.52 256.829C181.259 256.746 181.017 256.611 180.808 256.433C180.599 256.255 180.428 256.037 180.305 255.792C180.182 255.547 180.11 255.28 180.091 255.006L177.068 209.672C177.066 209.585 177.046 209.499 177.01 209.42C176.975 209.34 176.924 209.268 176.86 209.209C176.796 209.149 176.721 209.103 176.64 209.073C176.558 209.043 176.471 209.029 176.384 209.033H176.381C176.294 209.029 176.207 209.043 176.125 209.074C176.043 209.105 175.968 209.151 175.904 209.212C175.841 209.272 175.79 209.344 175.755 209.424C175.719 209.504 175.7 209.59 175.699 209.677L172.993 255.317C172.966 255.806 172.765 256.268 172.425 256.621C172.086 256.974 171.632 257.194 171.144 257.241L165.389 257.817C165.118 257.844 164.845 257.818 164.585 257.739C164.325 257.66 164.083 257.53 163.874 257.356H163.874Z" fill="#2F2E41"/>
<path d="M176.443 111.27C182.644 111.27 187.671 106.246 187.671 100.048C187.671 93.85 182.644 88.8256 176.443 88.8256C170.242 88.8256 165.215 93.85 165.215 100.048C165.215 106.246 170.242 111.27 176.443 111.27Z" fill="#FFC896"/>
<path d="M154.822 184.806C154.622 184.579 154.475 184.311 154.392 184.02C154.308 183.729 154.291 183.424 154.34 183.126C156.413 170.532 155.245 152.021 153.9 138.71C153.549 135.179 154.135 131.618 155.598 128.385C157.062 125.152 159.352 122.362 162.238 120.295L168.102 115.272C168.492 114.942 168.989 114.766 169.5 114.778L184.067 115.193C184.592 115.208 185.092 115.423 185.463 115.795L187.713 120.778L187.737 120.795C190.419 122.765 192.571 125.37 194 128.375C195.429 131.38 196.091 134.693 195.926 138.016L193.782 182.308C193.755 182.823 193.536 183.309 193.168 183.671C192.8 184.033 192.311 184.244 191.795 184.264L156.437 185.506C156.414 185.506 156.391 185.507 156.369 185.507C156.076 185.507 155.786 185.445 155.519 185.324C155.252 185.203 155.014 185.027 154.822 184.806Z" fill="#F86D70"/>
<path d="M112.411 166.324C112.393 165.606 112.533 164.894 112.821 164.236C113.108 163.579 113.537 162.992 114.076 162.518C114.615 162.044 115.251 161.694 115.94 161.492C116.629 161.291 117.354 161.243 118.063 161.351L136.287 148.604L141.402 157.974L122.168 167.303C121.906 168.482 121.221 169.525 120.241 170.233C119.262 170.941 118.057 171.266 116.854 171.145C115.651 171.024 114.535 170.467 113.716 169.578C112.897 168.69 112.432 167.532 112.411 166.324L112.411 166.324Z" fill="#FFC896"/>
<path d="M127.747 168.54C127.48 168.499 127.223 168.406 126.992 168.266C126.761 168.126 126.56 167.942 126.4 167.724L119.368 158.147C119.045 157.707 118.911 157.157 118.994 156.618C119.076 156.08 119.369 155.596 119.809 155.272L161.451 124.721C163.162 123.466 165.301 122.942 167.398 123.264C168.436 123.423 169.433 123.785 170.332 124.329C171.23 124.874 172.012 125.59 172.634 126.436C173.256 127.283 173.704 128.243 173.955 129.263C174.205 130.283 174.252 131.342 174.092 132.38C173.933 133.418 173.571 134.414 173.026 135.312C172.482 136.21 171.765 136.992 170.918 137.614L129.276 168.165C128.925 168.424 128.5 168.564 128.063 168.564C127.957 168.564 127.852 168.555 127.747 168.54Z" fill="#F86D70"/>
<path d="M177.018 110.038C178.507 108.213 178.344 105.434 177.149 103.405C175.954 101.375 173.925 99.9778 171.838 98.8861C169.75 97.7945 167.533 96.9361 165.568 95.6363C163.604 94.3365 163.69 88.8339 163.167 86.538L164.414 86.9533C163.935 86.3402 163.781 84.5286 163.301 83.9155C164.711 84.0547 165.795 85.3925 167.205 85.5317L166.391 83.3492C171.225 83.0514 174.23 86.4088 179.064 86.1109C181.459 85.9634 184.06 85.87 186.029 87.241C187.74 88.4323 188.606 90.4943 189.175 92.4997C190.395 96.8053 190.584 101.628 188.477 105.577C186.37 109.525 181.512 112.185 177.268 110.76L177.018 110.038Z" fill="#2F2E41"/>
<path d="M115.375 266.84H289.543C289.664 266.84 289.78 266.792 289.866 266.706C289.952 266.621 290 266.504 290 266.383C290 266.262 289.952 266.146 289.866 266.06C289.78 265.975 289.664 265.926 289.543 265.926H115.375C115.254 265.926 115.137 265.975 115.052 266.06C114.966 266.146 114.918 266.262 114.918 266.383C114.918 266.504 114.966 266.621 115.052 266.706C115.137 266.792 115.254 266.84 115.375 266.84Z" fill="#3F3D56"/>
</g>
<defs>
<clipPath id="clip0">
<rect width="290" height="267" fill="white"/>
</clipPath>
</defs>
</svg>
